<svg width="129" height="40" viewBox="0 0 129 40" fill="none" xmlns="http://www.w3.org/2000/svg">
<g filter="url(#filter0_d_2364_636)">
<rect x="-6" y="4" width="127" height="24" rx="10" fill="#BB9C77"/>
</g>
<path d="M73.756 15.714H86.328V17.156H73.756V15.714ZM74.904 13.558H83.052V14.93H74.904V13.558ZM77.578 19.844H83.822V20.894H77.578V19.844ZM77.592 21.608H83.808V22.868H77.592V21.608ZM78.292 12.774H79.944V16.596H78.292V12.774ZM84.382 12.956L85.768 13.74C84.8627 14.8227 83.7893 15.784 82.548 16.624C81.3067 17.464 79.9673 18.192 78.53 18.808C77.0927 19.4147 75.6227 19.9233 74.12 20.334C74.064 20.2127 73.9847 20.0633 73.882 19.886C73.7887 19.7087 73.686 19.5313 73.574 19.354C73.462 19.1673 73.364 19.018 73.28 18.906C74.7733 18.57 76.2153 18.122 77.606 17.562C79.006 17.002 80.2893 16.3393 81.456 15.574C82.6227 14.7993 83.598 13.9267 84.382 12.956ZM76.71 10.1H78.348V13.166H76.71V10.1ZM81.554 10.1H83.192V13.166H81.554V10.1ZM73.77 10.884H86.23V12.354H73.77V10.884ZM78.026 17.912H84.13V19.172H78.026V23.232H76.36V18.878L77.382 17.912H78.026ZM83.416 17.912H85.082V23.218H83.416V17.912ZM87.7 14.356H100.3V15.826H87.7V14.356ZM88.904 11.612H96.912V13.068H88.904V11.612ZM91.382 19.228H97.626V20.502H91.382V19.228ZM91.382 21.44H97.626V22.854H91.382V21.44ZM92.208 10.1H93.874V15.182H92.208V10.1ZM98.368 10.506L99.81 11.262C98.9047 12.5313 97.8407 13.6887 96.618 14.734C95.3953 15.7793 94.0747 16.7033 92.656 17.506C91.2467 18.3087 89.786 18.99 88.274 19.55C88.2087 19.4287 88.1153 19.284 87.994 19.116C87.8727 18.9387 87.742 18.7613 87.602 18.584C87.4713 18.4067 87.3547 18.2667 87.252 18.164C88.7733 17.6787 90.2247 17.0627 91.606 16.316C92.9967 15.5693 94.266 14.706 95.414 13.726C96.5713 12.746 97.556 11.6727 98.368 10.506ZM90.43 16.946H98.69V23.204H96.94V18.332H92.11V23.26H90.43V16.946Z" fill="#31291F"/>
<rect x="11" y="4" width="5" height="24" fill="#FFFBF5"/>
<g filter="url(#filter1_d_2364_636)">
<rect x="-6" y="4" width="127" height="24" rx="10" fill="#D5B58F"/>
</g>
<path d="M73.756 15.714H86.328V17.156H73.756V15.714ZM74.904 13.558H83.052V14.93H74.904V13.558ZM77.578 19.844H83.822V20.894H77.578V19.844ZM77.592 21.608H83.808V22.868H77.592V21.608ZM78.292 12.774H79.944V16.596H78.292V12.774ZM84.382 12.956L85.768 13.74C84.8627 14.8227 83.7893 15.784 82.548 16.624C81.3067 17.464 79.9673 18.192 78.53 18.808C77.0927 19.4147 75.6227 19.9233 74.12 20.334C74.064 20.2127 73.9847 20.0633 73.882 19.886C73.7887 19.7087 73.686 19.5313 73.574 19.354C73.462 19.1673 73.364 19.018 73.28 18.906C74.7733 18.57 76.2153 18.122 77.606 17.562C79.006 17.002 80.2893 16.3393 81.456 15.574C82.6227 14.7993 83.598 13.9267 84.382 12.956ZM76.71 10.1H78.348V13.166H76.71V10.1ZM81.554 10.1H83.192V13.166H81.554V10.1ZM73.77 10.884H86.23V12.354H73.77V10.884ZM78.026 17.912H84.13V19.172H78.026V23.232H76.36V18.878L77.382 17.912H78.026ZM83.416 17.912H85.082V23.218H83.416V17.912ZM87.7 14.356H100.3V15.826H87.7V14.356ZM88.904 11.612H96.912V13.068H88.904V11.612ZM91.382 19.228H97.626V20.502H91.382V19.228ZM91.382 21.44H97.626V22.854H91.382V21.44ZM92.208 10.1H93.874V15.182H92.208V10.1ZM98.368 10.506L99.81 11.262C98.9047 12.5313 97.8407 13.6887 96.618 14.734C95.3953 15.7793 94.0747 16.7033 92.656 17.506C91.2467 18.3087 89.786 18.99 88.274 19.55C88.2087 19.4287 88.1153 19.284 87.994 19.116C87.8727 18.9387 87.742 18.7613 87.602 18.584C87.4713 18.4067 87.3547 18.2667 87.252 18.164C88.7733 17.6787 90.2247 17.0627 91.606 16.316C92.9967 15.5693 94.266 14.706 95.414 13.726C96.5713 12.746 97.556 11.6727 98.368 10.506ZM90.43 16.946H98.69V23.204H96.94V18.332H92.11V23.26H90.43V16.946Z" fill="#31291F"/>
<rect x="11" y="4" width="5" height="24" fill="#FFFBF5"/>
<defs>
<filter id="filter0_d_2364_636" x="-10" y="4" width="135" height="32" filterUnits="userSpaceOnUse" color-interpolation-filters="sRGB">
<feFlood flood-opacity="0" result="BackgroundImageFix"/>
<feColorMatrix in="SourceAlpha" type="matrix" values="0 0 0 0 0 0 0 0 0 0 0 0 0 0 0 0 0 0 127 0" result="hardAlpha"/>
<feOffset dy="4"/>
<feGaussianBlur stdDeviation="2"/>
<feComposite in2="hardAlpha" operator="out"/>
<feColorMatrix type="matrix" values="0 0 0 0 0 0 0 0 0 0 0 0 0 0 0 0 0 0 0.25 0"/>
<feBlend mode="normal" in2="BackgroundImageFix" result="effect1_dropShadow_2364_636"/>
<feBlend mode="normal" in="SourceGraphic" in2="effect1_dropShadow_2364_636" result="shape"/>
</filter>
<filter id="filter1_d_2364_636" x="-14" y="0" width="143" height="40" filterUnits="userSpaceOnUse" color-interpolation-filters="sRGB">
<feFlood flood-opacity="0" result="BackgroundImageFix"/>
<feColorMatrix in="SourceAlpha" type="matrix" values="0 0 0 0 0 0 0 0 0 0 0 0 0 0 0 0 0 0 127 0" result="hardAlpha"/>
<feOffset dy="4"/>
<feGaussianBlur stdDeviation="4"/>
<feComposite in2="hardAlpha" operator="out"/>
<feColorMatrix type="matrix" values="0 0 0 0 0.105882 0 0 0 0 0.215686 0 0 0 0 0.388235 0 0 0 0.3 0"/>
<feBlend mode="normal" in2="BackgroundImageFix" result="effect1_dropShadow_2364_636"/>
<feBlend mode="normal" in="SourceGraphic" in2="effect1_dropShadow_2364_636" result="shape"/>
</filter>
</defs>
</svg>
