<svg width="172" height="240" viewBox="0 0 172 240" fill="none" xmlns="http://www.w3.org/2000/svg">
<g filter="url(#filter0_d_2210_560)">
<rect x="8" y="4" width="156" height="224" rx="20" fill="#F4E9D7"/>
</g>
<path d="M81.2688 92.5455V110H78.0813L70.4876 99.0142H70.3597V110H66.6694V92.5455H69.908L77.4421 103.523H77.5955V92.5455H81.2688ZM90.1644 110.256C88.8406 110.256 87.6957 109.974 86.7298 109.412C85.7695 108.844 85.0281 108.054 84.5053 107.043C83.9826 106.026 83.7212 104.847 83.7212 103.506C83.7212 102.153 83.9826 100.972 84.5053 99.9602C85.0281 98.9432 85.7695 98.1534 86.7298 97.5909C87.6957 97.0227 88.8406 96.7386 90.1644 96.7386C91.4883 96.7386 92.6303 97.0227 93.5906 97.5909C94.5565 98.1534 95.3008 98.9432 95.8235 99.9602C96.3462 100.972 96.6076 102.153 96.6076 103.506C96.6076 104.847 96.3462 106.026 95.8235 107.043C95.3008 108.054 94.5565 108.844 93.5906 109.412C92.6303 109.974 91.4883 110.256 90.1644 110.256ZM90.1815 107.443C90.7837 107.443 91.2866 107.273 91.69 106.932C92.0934 106.585 92.3974 106.114 92.6019 105.517C92.8121 104.92 92.9173 104.241 92.9173 103.48C92.9173 102.719 92.8121 102.04 92.6019 101.443C92.3974 100.847 92.0934 100.375 91.69 100.028C91.2866 99.6818 90.7837 99.5085 90.1815 99.5085C89.5735 99.5085 89.0621 99.6818 88.6474 100.028C88.2383 100.375 87.9286 100.847 87.7184 101.443C87.5138 102.04 87.4116 102.719 87.4116 103.48C87.4116 104.241 87.5138 104.92 87.7184 105.517C87.9286 106.114 88.2383 106.585 88.6474 106.932C89.0621 107.273 89.5735 107.443 90.1815 107.443ZM105.931 96.9091V99.6364H98.0479V96.9091H105.931ZM99.8377 93.7727H103.468V105.977C103.468 106.312 103.52 106.574 103.622 106.761C103.724 106.943 103.866 107.071 104.048 107.145C104.235 107.219 104.451 107.256 104.696 107.256C104.866 107.256 105.037 107.241 105.207 107.213C105.377 107.179 105.508 107.153 105.599 107.136L106.17 109.838C105.988 109.895 105.733 109.96 105.403 110.034C105.074 110.114 104.673 110.162 104.201 110.179C103.326 110.213 102.559 110.097 101.9 109.83C101.247 109.562 100.738 109.148 100.375 108.585C100.011 108.023 99.832 107.312 99.8377 106.455V93.7727ZM51.06 139V121.545H62.6168V124.588H54.7504V128.747H61.8498V131.79H54.7504V139H51.06ZM69.9847 139.256C68.6609 139.256 67.516 138.974 66.5501 138.412C65.5898 137.844 64.8484 137.054 64.3256 136.043C63.8029 135.026 63.5415 133.847 63.5415 132.506C63.5415 131.153 63.8029 129.972 64.3256 128.96C64.8484 127.943 65.5898 127.153 66.5501 126.591C67.516 126.023 68.6609 125.739 69.9847 125.739C71.3086 125.739 72.4506 126.023 73.4109 126.591C74.3768 127.153 75.1211 127.943 75.6438 128.96C76.1665 129.972 76.4279 131.153 76.4279 132.506C76.4279 133.847 76.1665 135.026 75.6438 136.043C75.1211 137.054 74.3768 137.844 73.4109 138.412C72.4506 138.974 71.3086 139.256 69.9847 139.256ZM70.0018 136.443C70.604 136.443 71.1069 136.273 71.5103 135.932C71.9137 135.585 72.2177 135.114 72.4222 134.517C72.6325 133.92 72.7376 133.241 72.7376 132.48C72.7376 131.719 72.6325 131.04 72.4222 130.443C72.2177 129.847 71.9137 129.375 71.5103 129.028C71.1069 128.682 70.604 128.509 70.0018 128.509C69.3938 128.509 68.8825 128.682 68.4677 129.028C68.0586 129.375 67.7489 129.847 67.5387 130.443C67.3342 131.04 67.2319 131.719 67.2319 132.48C67.2319 133.241 67.3342 133.92 67.5387 134.517C67.7489 135.114 68.0586 135.585 68.4677 135.932C68.8825 136.273 69.3938 136.443 70.0018 136.443ZM87.1836 133.426V125.909H90.8143V139H87.3285V136.622H87.1921C86.8967 137.389 86.4052 138.006 85.7177 138.472C85.0359 138.937 84.2035 139.17 83.2205 139.17C82.3455 139.17 81.5756 138.972 80.9109 138.574C80.2461 138.176 79.7262 137.611 79.3512 136.878C78.9819 136.145 78.7944 135.267 78.7887 134.244V125.909H82.4194V133.597C82.4251 134.369 82.6325 134.98 83.0415 135.429C83.4506 135.878 83.9989 136.102 84.6864 136.102C85.1239 136.102 85.533 136.003 85.9137 135.804C86.2944 135.599 86.6012 135.298 86.8342 134.901C87.0728 134.503 87.1893 134.011 87.1836 133.426ZM97.3491 131.432V139H93.7184V125.909H97.1786V128.219H97.332C97.6218 127.457 98.1076 126.855 98.7894 126.412C99.4712 125.963 100.298 125.739 101.27 125.739C102.179 125.739 102.971 125.938 103.647 126.335C104.324 126.733 104.849 127.301 105.224 128.04C105.599 128.773 105.787 129.648 105.787 130.665V139H102.156V131.312C102.162 130.511 101.957 129.886 101.542 129.438C101.127 128.983 100.556 128.756 99.8292 128.756C99.3406 128.756 98.9087 128.861 98.5337 129.071C98.1644 129.281 97.8746 129.588 97.6644 129.991C97.4599 130.389 97.3548 130.869 97.3491 131.432ZM113.472 139.213C112.478 139.213 111.577 138.957 110.77 138.446C109.969 137.929 109.333 137.17 108.861 136.17C108.395 135.165 108.162 133.932 108.162 132.472C108.162 130.972 108.404 129.724 108.887 128.73C109.37 127.73 110.012 126.983 110.813 126.489C111.62 125.989 112.503 125.739 113.463 125.739C114.196 125.739 114.807 125.864 115.296 126.114C115.79 126.358 116.188 126.665 116.489 127.034C116.796 127.398 117.029 127.756 117.188 128.108H117.299V121.545H120.921V139H117.341V136.903H117.188C117.017 137.267 116.776 137.628 116.463 137.986C116.157 138.338 115.756 138.631 115.262 138.864C114.773 139.097 114.176 139.213 113.472 139.213ZM114.623 136.324C115.208 136.324 115.702 136.165 116.105 135.847C116.515 135.523 116.827 135.071 117.043 134.491C117.265 133.912 117.375 133.233 117.375 132.455C117.375 131.676 117.267 131 117.051 130.426C116.836 129.852 116.523 129.409 116.114 129.097C115.705 128.784 115.208 128.628 114.623 128.628C114.026 128.628 113.523 128.79 113.114 129.114C112.705 129.437 112.395 129.886 112.185 130.46C111.975 131.034 111.87 131.699 111.87 132.455C111.87 133.216 111.975 133.889 112.185 134.474C112.401 135.054 112.711 135.509 113.114 135.838C113.523 136.162 114.026 136.324 114.623 136.324Z" fill="black"/>
<defs>
<filter id="filter0_d_2210_560" x="0" y="0" width="172" height="240" filterUnits="userSpaceOnUse" color-interpolation-filters="sRGB">
<feFlood flood-opacity="0" result="BackgroundImageFix"/>
<feColorMatrix in="SourceAlpha" type="matrix" values="0 0 0 0 0 0 0 0 0 0 0 0 0 0 0 0 0 0 127 0" result="hardAlpha"/>
<feOffset dy="4"/>
<feGaussianBlur stdDeviation="4"/>
<feComposite in2="hardAlpha" operator="out"/>
<feColorMatrix type="matrix" values="0 0 0 0 0.105882 0 0 0 0 0.215686 0 0 0 0 0.388235 0 0 0 0.3 0"/>
<feBlend mode="normal" in2="BackgroundImageFix" result="effect1_dropShadow_2210_560"/>
<feBlend mode="normal" in="SourceGraphic" in2="effect1_dropShadow_2210_560" result="shape"/>
</filter>
</defs>
</svg>
