<svg width="177" height="224" viewBox="0 0 177 224" fill="none" xmlns="http://www.w3.org/2000/svg">
<rect width="177" height="224" fill="#F4E9D7"/>
<path d="M83.7707 89.5455V107H80.5832L72.9894 96.0142H72.8616V107H69.1713V89.5455H72.4099L79.944 100.523H80.0974V89.5455H83.7707ZM92.6663 107.256C91.3424 107.256 90.1975 106.974 89.2316 106.412C88.2714 105.844 87.5299 105.054 87.0072 104.043C86.4845 103.026 86.2231 101.847 86.2231 100.506C86.2231 99.1534 86.4845 97.9716 87.0072 96.9602C87.5299 95.9432 88.2714 95.1534 89.2316 94.5909C90.1975 94.0227 91.3424 93.7386 92.6663 93.7386C93.9902 93.7386 95.1322 94.0227 96.0924 94.5909C97.0583 95.1534 97.8027 95.9432 98.3254 96.9602C98.8481 97.9716 99.1095 99.1534 99.1095 100.506C99.1095 101.847 98.8481 103.026 98.3254 104.043C97.8027 105.054 97.0583 105.844 96.0924 106.412C95.1322 106.974 93.9902 107.256 92.6663 107.256ZM92.6833 104.443C93.2856 104.443 93.7885 104.273 94.1919 103.932C94.5953 103.585 94.8992 103.114 95.1038 102.517C95.314 101.92 95.4191 101.241 95.4191 100.48C95.4191 99.7188 95.314 99.0398 95.1038 98.4432C94.8992 97.8466 94.5953 97.375 94.1919 97.0284C93.7885 96.6818 93.2856 96.5085 92.6833 96.5085C92.0754 96.5085 91.564 96.6818 91.1492 97.0284C90.7402 97.375 90.4305 97.8466 90.2203 98.4432C90.0157 99.0398 89.9135 99.7188 89.9135 100.48C89.9135 101.241 90.0157 101.92 90.2203 102.517C90.4305 103.114 90.7402 103.585 91.1492 103.932C91.564 104.273 92.0754 104.443 92.6833 104.443ZM108.433 93.9091V96.6364H100.55V93.9091H108.433ZM102.34 90.7727H105.97V102.977C105.97 103.312 106.021 103.574 106.124 103.761C106.226 103.943 106.368 104.071 106.55 104.145C106.737 104.219 106.953 104.256 107.198 104.256C107.368 104.256 107.538 104.241 107.709 104.213C107.879 104.179 108.01 104.153 108.101 104.136L108.672 106.838C108.49 106.895 108.234 106.96 107.905 107.034C107.575 107.114 107.175 107.162 106.703 107.179C105.828 107.213 105.061 107.097 104.402 106.83C103.749 106.562 103.24 106.148 102.877 105.585C102.513 105.023 102.334 104.312 102.34 103.455V90.7727ZM53.5619 136V118.545H65.1187V121.588H57.2522V125.747H64.3517V128.79H57.2522V136H53.5619ZM72.4866 136.256C71.1627 136.256 70.0179 135.974 69.0519 135.412C68.0917 134.844 67.3502 134.054 66.8275 133.043C66.3048 132.026 66.0434 130.847 66.0434 129.506C66.0434 128.153 66.3048 126.972 66.8275 125.96C67.3502 124.943 68.0917 124.153 69.0519 123.591C70.0179 123.023 71.1627 122.739 72.4866 122.739C73.8105 122.739 74.9525 123.023 75.9127 123.591C76.8787 124.153 77.623 124.943 78.1457 125.96C78.6684 126.972 78.9298 128.153 78.9298 129.506C78.9298 130.847 78.6684 132.026 78.1457 133.043C77.623 134.054 76.8787 134.844 75.9127 135.412C74.9525 135.974 73.8105 136.256 72.4866 136.256ZM72.5037 133.443C73.1059 133.443 73.6088 133.273 74.0122 132.932C74.4156 132.585 74.7196 132.114 74.9241 131.517C75.1343 130.92 75.2394 130.241 75.2394 129.48C75.2394 128.719 75.1343 128.04 74.9241 127.443C74.7196 126.847 74.4156 126.375 74.0122 126.028C73.6088 125.682 73.1059 125.509 72.5037 125.509C71.8957 125.509 71.3843 125.682 70.9696 126.028C70.5605 126.375 70.2508 126.847 70.0406 127.443C69.836 128.04 69.7338 128.719 69.7338 129.48C69.7338 130.241 69.836 130.92 70.0406 131.517C70.2508 132.114 70.5605 132.585 70.9696 132.932C71.3843 133.273 71.8957 133.443 72.5037 133.443ZM89.6855 130.426V122.909H93.3162V136H89.8304V133.622H89.694C89.3985 134.389 88.9071 135.006 88.2196 135.472C87.5377 135.937 86.7054 136.17 85.7224 136.17C84.8474 136.17 84.0775 135.972 83.4127 135.574C82.748 135.176 82.2281 134.611 81.8531 133.878C81.4838 133.145 81.2963 132.267 81.2906 131.244V122.909H84.9213V130.597C84.9269 131.369 85.1343 131.98 85.5434 132.429C85.9525 132.878 86.5008 133.102 87.1883 133.102C87.6258 133.102 88.0349 133.003 88.4156 132.804C88.7963 132.599 89.1031 132.298 89.336 131.901C89.5747 131.503 89.6912 131.011 89.6855 130.426ZM99.851 128.432V136H96.2203V122.909H99.6805V125.219H99.8339C100.124 124.457 100.609 123.855 101.291 123.412C101.973 122.963 102.8 122.739 103.771 122.739C104.68 122.739 105.473 122.938 106.149 123.335C106.825 123.733 107.351 124.301 107.726 125.04C108.101 125.773 108.288 126.648 108.288 127.665V136H104.658V128.312C104.663 127.511 104.459 126.886 104.044 126.438C103.629 125.983 103.058 125.756 102.331 125.756C101.842 125.756 101.411 125.861 101.036 126.071C100.666 126.281 100.377 126.588 100.166 126.991C99.9617 127.389 99.8566 127.869 99.851 128.432ZM115.974 136.213C114.98 136.213 114.079 135.957 113.272 135.446C112.471 134.929 111.835 134.17 111.363 133.17C110.897 132.165 110.664 130.932 110.664 129.472C110.664 127.972 110.906 126.724 111.389 125.73C111.872 124.73 112.514 123.983 113.315 123.489C114.122 122.989 115.005 122.739 115.965 122.739C116.698 122.739 117.309 122.864 117.798 123.114C118.292 123.358 118.69 123.665 118.991 124.034C119.298 124.398 119.531 124.756 119.69 125.108H119.801V118.545H123.423V136H119.843V133.903H119.69C119.519 134.267 119.278 134.628 118.965 134.986C118.658 135.338 118.258 135.631 117.764 135.864C117.275 136.097 116.678 136.213 115.974 136.213ZM117.124 133.324C117.71 133.324 118.204 133.165 118.607 132.847C119.016 132.523 119.329 132.071 119.545 131.491C119.766 130.912 119.877 130.233 119.877 129.455C119.877 128.676 119.769 128 119.553 127.426C119.337 126.852 119.025 126.409 118.616 126.097C118.207 125.784 117.71 125.628 117.124 125.628C116.528 125.628 116.025 125.79 115.616 126.114C115.207 126.437 114.897 126.886 114.687 127.46C114.477 128.034 114.372 128.699 114.372 129.455C114.372 130.216 114.477 130.889 114.687 131.474C114.903 132.054 115.212 132.509 115.616 132.838C116.025 133.162 116.528 133.324 117.124 133.324Z" fill="black"/>
</svg>
