<?xml version="1.0" encoding="UTF-8"?>
<svg id="_レイヤー_2" data-name="レイヤー 2" xmlns="http://www.w3.org/2000/svg" xmlns:xlink="http://www.w3.org/1999/xlink" viewBox="0 0 729.18 729.18">
  <defs>
    <style>
      .cls-1 {
        fill: none;
      }

      .cls-2 {
        font-size: 91.11px;
        letter-spacing: .06em;
      }

      .cls-2, .cls-3 {
        fill: #8d7659;
        font-family: ProximaNovaCond-Light, 'Proxima Nova Condensed';
        font-weight: 300;
        stroke: #8d7659;
        stroke-miterlimit: 10;
        stroke-width: 4px;
      }

      .cls-4 {
        fill: #75634d;
      }

      .cls-5 {
        fill: #faf4eb;
      }

      .cls-3 {
        font-size: 167.99px;
      }

      .cls-6 {
        fill: #bb9c77;
      }

      .cls-7 {
        clip-path: url(#clippath);
      }
    </style>
    <clipPath id="clippath">
      <circle class="cls-1" cx="364.59" cy="364.59" r="364.59"/>
    </clipPath>
  </defs>
  <g id="_レイヤー_1-2" data-name="レイヤー 1">
    <g class="cls-7">
      <g>
        <g>
          <path class="cls-6" d="M364.59,728.59c-49.14,0-96.81-9.62-141.69-28.6-43.34-18.33-82.27-44.58-115.7-78.01-33.43-33.43-59.68-72.36-78.01-115.7C10.21,461.4.59,413.73.59,364.59s9.62-96.81,28.6-141.68c18.33-43.34,44.58-82.27,78.01-115.7,33.43-33.43,72.36-59.68,115.7-78.01C267.78,10.21,315.45.59,364.59.59s96.81,9.62,141.68,28.6c43.34,18.33,82.27,44.58,115.7,78.01s59.68,72.36,78.01,115.7c18.98,44.87,28.6,92.54,28.6,141.68s-9.62,96.81-28.6,141.68c-18.33,43.34-44.58,82.27-78.01,115.7s-72.36,59.68-115.7,78.01c-44.87,18.98-92.54,28.6-141.68,28.6Z"/>
          <path class="cls-4" d="M364.59,2.09c48.94,0,96.41,9.58,141.1,28.49,43.17,18.26,81.93,44.4,115.23,77.69,33.29,33.29,59.43,72.06,77.69,115.23,18.9,44.69,28.49,92.16,28.49,141.1s-9.58,96.41-28.49,141.1c-18.26,43.17-44.4,81.93-77.69,115.23-33.29,33.29-72.06,59.43-115.23,77.69-44.69,18.9-92.16,28.49-141.1,28.49s-96.41-9.58-141.1-28.49c-43.17-18.26-81.93-44.4-115.23-77.69-33.29-33.29-59.43-72.06-77.69-115.23C11.67,461,2.09,413.53,2.09,364.59s9.58-96.41,28.49-141.1c18.26-43.17,44.4-81.93,77.69-115.23,33.29-33.29,72.06-59.43,115.23-77.69C268.18,11.67,315.65,2.09,364.59,2.09M364.59-.91C162.73-.91-.91,162.73-.91,364.59s163.64,365.5,365.5,365.5,365.5-163.64,365.5-365.5S566.45-.91,364.59-.91h0Z"/>
        </g>
        <g>
          <path class="cls-5" d="M706.48,852.17c1.31,1.6,2.24,3.6,2.54,6.04.02.16.08.34.15.52.76.72,1.46,1.58,2.09,2.62.63,1.04,1.25,2.08,1.88,3.13.87,1.45,1.38,2.88,1.6,4.24,3.01,6.92,5.5,14.06,8.12,21.14,1.07,2.9,1.95,5.86,3.04,8.76.46,1.23,1.84,3.45,1.92,4.69,0,.09.01.15.02.23,5.94,3.76,6.03,11.83,2.36,16.69,2.13,1.56,3.87,3.5,5.22,5.69.66.16,1.31.35,1.96.6,30.33,11.57,62.91,12.1,95.35,9.57,13.99-1.09,28.37-3.02,42.33-6.2,0-1.67.02-3.35-.03-5.02-.32-10.37-1.45-16.42-2.9-25.85,0,0,0,0,0,0-.28-1-.48-2.07-.62-3.21-1.89-.45-3.72-1.31-5.28-2.63-2.45-2.07-4.19-4.63-5.49-7.44-1.44-1.21-2.58-2.54-3.83-4.06-3.02-3.7-5.74-7.6-8.92-11.18-8.1-9.11-15.53-18.78-23.7-27.82-1.59-1.76-2.47-3.67-2.81-5.57-1.08-.52-2.08-1.19-2.9-2.13-2.4-2.76-4.56-5.69-6.46-8.81-.69-1.12-1.34-2.27-2.02-3.4-.16-.26-1.41-2.27-1.17-2-2.72-3.79-5.98-7.08-7.67-11.35-2.48-1.44-4.43-3.84-5.51-6.72-3.52-9.44-11.47-16.74-15.72-25.88-.5-1.07-.79-2.11-1-3.14-.29-.25-.54-.47-.69-.61-1.73-1.64-2.73-3.44-3.16-5.26-.74-.74-1.42-1.62-2-2.69-12.18-22.31-22.16-44.98-31.65-68.57-.74-1.85-.95-3.54-.77-5.06-3.54-6.26-3.6-14.01-3.96-21.19-1.62-5.71-3.21-11.46-3.35-17.52,0,0,0,0,0-.01-2.35-7.86-1.02-15.28-.87-23.66.03-1.75.4-3.28,1.01-4.6-1.02-3.07-.8-6.61.66-9.48-.02-3.11-.02-6.21.04-9.32.04-1.92.44-3.56,1.1-4.96-.07-5.83-.35-11.73-1.67-17.33-1.22-5.15-2.82-9.89-3.69-14.94-.49-.58-.95-1.23-1.36-1.97-3.37-6.09-5.77-12.65-9.11-18.75-2.54-4.63-5.5-8.83-7.21-13.78-.76-.91-1.42-1.98-1.92-3.23-4.23-10.39-9.84-20.17-15.51-29.86-.59-.66-1.14-1.42-1.64-2.3-.68-1.08-1.26-2.23-1.71-3.42-.23-.53-.41-1.05-.56-1.57-.21-.51-.38-1.02-.51-1.55-.64-1.01-1.3-2-1.98-3.03l-.62.08c-1.53.06-2.95-.26-4.28-.96-.27-.09-.52-.21-.77-.34-1.76-.53-3.18-1.47-4.3-2.67-.04-.03-.08-.06-.12-.1-.82-.82-1.47-1.75-1.99-2.75-.41-.09-.79-.23-1.17-.36-.66.11-1.34.18-2.07.18-3.89,0-6.71-1.65-8.48-4.03-1.13.39-2.38.61-3.79.61-4.22,0-7.18-1.94-8.91-4.66-1.1-1.17-1.97-2.63-2.45-4.46-.73-2.77-.2-6.12,1.31-8.83-1.48-10.65-.21-21.53-.08-32.32,0-.72.09-1.4.2-2.05-2.82-12.24-1.18-24.58-2.64-36.95-.25-2.15.41-4.18,1.6-5.91-.14-36.77-1.55-73.52-1.6-110.3,0-1.67.31-3.13.83-4.4,0-.16-.02-.31-.02-.47.05-22.75,1.02-45.51.81-68.26-.18-19.78-3.2-39.39-3.26-59.17-.58-.06-1.17-.15-1.78-.31-2.71-.69-5.24-1.77-7.67-3.05-4.51-.12-7.55-2.47-9.12-5.6-4.15-2.77-8.42-6.2-13.56-5.64-2.54.28-4.92-.7-6.82-2.32-.07-.06-.15-.11-.23-.17-.26.02-.52.04-.79.04-1.8,0-3.37-.35-4.72-.97-2.6.93-5.61.94-8.72-.55-.3-.15-.63-.25-.94-.37-1.44.73-3.04,1.1-4.72.91-12.34-1.36-24.49,1.02-36.79,1.41-.64.03-1.28.06-1.9.06-.18,0-.34-.02-.51-.03-.65,0-1.29.04-1.94.03-1.65-.02-3.1-.35-4.37-.89-5.64,2.11-12.24,2.42-18.11,3.01-10.28,1.03-20.63,1.21-30.9,2.29-1.73.18-3.25,0-4.56-.43-5.08.98-10.3,1.32-15.43,2.14-9.83,1.58-19.45,4.22-29.32,5.63-1.01.14-1.97.15-2.89.09-.35.17-.71.33-1.09.48-10.18,3.87-20.86,5.51-31.27,8.53-11.35,3.29-22.12,8.26-33.54,11.37-1.01.27-1.96.4-2.88.42-2.51,1.59-5.53,2.26-8.5,1.27-.86-.29-1.72-.57-2.58-.86-1.56-.52-2.85-1.27-3.91-2.18-1.58-.09-3.19-.56-4.77-1.52-.66-.41-1.34-.79-2.02-1.19-2.28-.59-4.33-1.44-6.59-2.54-.9-.44-1.64-1-2.31-1.61-3-.21-5.32-1.43-6.94-3.21-11.98-4.52-25.03-7.46-36.82-8.88-1.29-.15-2.45-.49-3.51-.95-1.34.24-2.78.27-4.33-.02-16.39-3.03-32.54-6.79-49.29-7.07-1.49-.02-2.81-.3-3.99-.75-.27.11-.53.26-.81.35-4.36,1.43-9.1.83-13.47-.25-1.83-.45-3.63-1.04-5.45-1.53-.89-.24-1.78-.46-2.69-.66-.03,0-.04-.01-.07-.02-.14,0-.31,0-.51-.02-1.38-.06-2.7-.37-3.93-.85-1.19.1-2.4.08-3.61-.12-5.95-.98-11.98-1.23-18-1.04-.8.02-1.54-.03-2.25-.14-.62.15-1.25.22-1.88.23-3.6.67-7.53.5-10.88.44-5.43-.08-10.85-.48-16.28-.54-1.84-.02-3.44-.41-4.81-1.06-2.63.83-5.22,1.28-8.22,1.51-1.6.13-3.21.16-4.82.22-.46.02-5.08.33-3.31.08-2.06.3-4.2.16-6.16-.41-.15.04-.29.09-.44.12-1.82.41-3.65.35-5.37-.04-1.76,1.66-4.21,2.73-7.34,2.73-1.25,0-2.38-.18-3.41-.49-.69,2.99-2.49,5.74-5.17,7.18-2.44,1.31-5,2.36-7.56,3.42-.62.26-1.23.51-1.85.76-.36.18-1.96.91-2.27,1.06-2.62,1.28-5.34,1.62-7.87,1.12-.05.99-.22,2.04-.59,3.14-.46,1.38-.88,2.76-1.28,4.14,0,.03,0,.05,0,.08.01,0,.02,0,.04,0,0,.05-.01.11-.02.17,1.31,11.62.31,22.96.02,34.69-.35,14.02,2.08,28.1,1.63,42.02-.07,2.32-.75,4.24-1.78,5.81.3,1.01.47,2.1.48,3.31.05,11.41.63,22.8.98,34.2.05,1.56-.19,2.93-.61,4.15.24,1.01.36,2.12.29,3.35-.52,9.58.28,19.1.65,28.67.09,2.32-.42,4.26-1.34,5.82.32,1.63.34,3.32-.03,4.95-.03.14-.05.28-.08.43-.12,1.58-.17,3.17-.17,4.77,0,.32-.07.61-.09.91.6,1.36.89,2.82.75,4.3-.07.67-.17,1.33-.25,1.99.83,2.33.84,4.95.2,7.41.26.54.48,1.09.64,1.65.88,3.21.27,6.14-1.28,8.54,0,.03-.01.06-.02.09.02.17.06.34.07.51.33,5.97.62,11.94.65,17.92,0,1.43-.29,2.79-.81,4.06.57,1.35.87,2.93.81,4.74-.58,16.25,1.36,32.45-.07,48.66-.69,7.81.85,15.05,1.43,22.79.56,7.49-.7,14.91.27,22.37.95,7.29-4.5,10.77-10.25,10.53-.93.59-1.97,1-3.12,1.16-3.87.53-6.88,3.08-10.38,4.74-3.54,1.68-7.24,3.04-10.42,5.39-6.4,4.72-10.07,12.23-13.94,18.97-.77,1.35-1.7,2.39-2.71,3.21-.08.12-.14.25-.22.37-6.86,10.47-10.08,22.76-16.94,33.23-1.24,1.89-2.77,3.2-4.43,4.02-1,6.11-3.15,11.53-6.25,17.1-3,5.37-6.49,10.24-6.36,16.61.06,3.21-1,5.69-2.7,7.45.28.96.43,1.96.42,2.97-.03,1.42-.05,2.88-.11,4.33,1.61,2.39,1.82,5.19,1.11,7.81.04.16.07.33.1.49.05.13.08.25.13.38-.02,0-.03,0-.05,0,.19.93.34,1.88.45,2.95.09.91.01,1.79-.18,2.65.55,1.3.86,2.81.84,4.52-.02,1.89-.08,3.77-.13,5.66.26.88.45,1.81.45,2.81.02,3-.03,5.93-.23,8.85.45,1.09.76,2.27.88,3.53.58,6.01-.76,11.64-1.3,17.59-.14,1.56-.55,2.93-1.14,4.15.1.65.17,1.32.16,2.04-.11,11.76-1.56,23.44-4.31,34.88-.95,3.94-3.34,6.29-6.22,7.32-2.79,16.81-8,34.14-18.03,48.11-1.07,1.49-2.33,2.59-3.68,3.38-.17.51-.33,1.02-.55,1.51-5.32,11.77-11.67,22.97-18.57,33.88-1.08,1.7-2.39,2.93-3.82,3.77-.54,1.2-1.26,2.29-2.15,3.04-.35.29-.67.6-.98.92-.43.66-.83,1.34-1.19,2.04-.45.8-1,1.48-1.6,2.1-.44.94-1.01,1.86-1.76,2.75-4.9,5.79-7.44,13.34-12.26,19.3-1.04,1.28-2.27,2.45-3.51,3.61-.08.29-.16.57-.27.85-2.29,5.73-5.52,9.6-9.7,14.02-.54.57-1.1,1.06-1.68,1.47-.4.71-.86,1.38-1.45,1.95-.51,1.94-1.46,3.8-2.73,5.37-1.12,1.39-2.35,2.67-3.59,3.95-.64.66-1.28,1.32-1.9,2-.24.26-2.07,2.62-.59.6-1.37,1.87-3.03,3.33-4.87,4.26-.11.21-.21.42-.34.63-8.07,13.39-18.12,25.38-28.77,36.78-1.52,1.63-3.18,2.59-4.87,3.06-1.89,7.78-4.5,15.3-7.47,22.68-.36,1.68-.8,3.34-1.29,4.98,20.72-2.23,41.5-3.89,62.34-4.22,25-.4,50.62.81,74.81,7.36.07-.1.17-.22.24-.31.47-.59.97-1.13,1.5-1.63,2.4-3.86,5.69-6.97,9.55-8.95-1.17-2.71-1.1-5.95,1.06-9.28,9.07-13.98,14.38-29.72,19.75-45.38,3.63-10.6,7.99-20.95,11.97-31.42.08-2.45.93-4.89,2.55-6.9,1.5-4.21,2.9-8.45,4.13-12.74.09-.31.23-.58.34-.87-.2-1.37-.15-2.85.25-4.44,2.15-8.76,5.97-17.02,9.97-25.07,1.21-2.43,3.44-4.02,5.95-4.82.16-.36.33-.72.54-1.08,11.32-20.27,20.96-42.78,39.49-57.69.48-.38.97-.71,1.46-1,.19-1.36.67-2.67,1.52-3.83,6.85-9.27,12.52-19.21,17.7-29.49,1.2-2.39,2.85-3.94,4.69-4.79-.31-1.5-.32-3.15.09-4.94,2.49-10.94,6.16-21.58,7.48-32.76,1.33-11.3,2.08-22.62,3.73-33.89.66-4.52,3.31-6.97,6.54-7.75,1.36-.63,2.94-.99,4.76-.99.44,0,.85.04,1.27.08,1.09-.94,2.45-1.63,4.03-2.04,0,0,0,0,.01,0,7.18-2.51,13.87-6.26,21.23-8.26,2.11-.57,4.03-.55,5.72-.11,4.13-1.81,8.34-3.36,12.55-4.97,1.98-.76,3.17-1.24,4.83-2.07.75-.38,1.49-.78,2.22-1.2.46-.26,2.2-1.56,1.03-.59,3.29-2.72,7.51-3.84,11.32-2.65,1.45-.76,3.17-1.21,5.19-1.21,1.18,0,2.26.16,3.25.44,0,0,0,0,0,0h0c.36-.21.75-.39,1.15-.56.06-.03.13-.05.19-.08,0,0,0,0,0,0,.31-.12.64-.23.97-.32h0c.11-.03.21-.06.32-.09.38-.09.77-.17,1.18-.22.08-.01.15-.03.24-.04h0c.47-.05.95-.09,1.45-.09,2.14,0,3.96.51,5.46,1.35,1.38-.66,2.99-1.04,4.85-1.04,2.62,0,4.75.75,6.41,1.96,1.66-1.21,3.79-1.96,6.4-1.96,1.06,0,2.02.13,2.92.36,1.17-.42,2.48-.67,3.95-.67,2,0,3.72.45,5.16,1.2,1.44-.75,3.15-1.2,5.15-1.2,2.59,0,4.71.74,6.36,1.93,1.71-1.38,3.95-2.24,6.76-2.24,2.08,0,3.84.48,5.32,1.28,1.34-.61,2.9-.96,4.69-.97,8.13-.02,16.25-.29,24.38-.31,2.14,0,3.95.49,5.45,1.33,1.16-.43,2.46-.69,3.92-.71,11.61-.15,23.09-2.04,34.7-2.19,2.99-.04,5.34.91,7.08,2.42.72-.14,1.48-.23,2.29-.23,14.07-.09,28.01-.82,41.74,2.83,1.15-.41,2.45-.64,3.89-.64,1.26,0,2.4.18,3.44.49,1.04-.31,2.18-.49,3.44-.49,1.64,0,3.08.3,4.34.82,1.05-.32,2.2-.5,3.47-.5s2.52.19,3.6.54c1.08-.34,2.27-.54,3.59-.54,1.45,0,2.75.24,3.91.65,1.16-.41,2.45-.65,3.9-.65s2.87.26,4.07.71c1.2-.45,2.54-.71,4.06-.71,1.94,0,3.61.42,5.02,1.12,1.03-.31,2.17-.5,3.42-.5,22.03-.07,43.94-1.56,65.95-.94,2.65.07,4.81.9,6.48,2.2.85-.21,1.71-.33,2.59-.32,6.02.1,11.4,1.63,16.86,4.02,1.97.86,3.35,2.38,4.21,4.19.46-.05.94-.08,1.43-.08,3.19,0,5.66,1.11,7.43,2.82.03,0,.05,0,.08,0,3.21,0,5.7,1.12,7.47,2.86.32-.02.64-.05.97-.05,3.2,0,5.67,1.11,7.44,2.83.13,0,.25-.02.37-.02,3.27,0,5.78,1.17,7.56,2.96.58-.08,1.18-.14,1.82-.14,8.22,0,11.7,7.33,10.48,13.56.4.56.72,1.17,1.01,1.79.82,1.55,1.36,3.29,1.49,5.13.19,2.62,2.39,10.53,3.8,13.15,2.08,3.88,1.82,8.53-.55,11.97.32.77.57,1.61.73,2.56,1.65,9.79,4.99,18.98,7.78,28.47,2.3,7.84,6.85,14.41,9.1,22.17.29.99.43,1.93.47,2.83.69.39,1.35.83,1.99,1.34,6.57,5.19,11.95,11.58,17.82,17.5.73.73,1.28,1.57,1.76,2.44.94.84,1.78,1.9,2.48,3.25,2.19,4.23,5.47,7.65,8.08,11.55.76.72,1.45,1.53,1.92,2.51,1.7,3.57,3.74,6.93,5.35,10.48,2.18,1.09,3.98,3.03,4.89,5.98.73.73,1.4,1.56,1.94,2.6,1.32,2.54,2.6,5.11,3.83,7.68.07.15.16.29.23.44.02.04.03.09.05.13,3.25,6.84,6.1,13.82,8.21,21.07.39.41.77.83,1.12,1.3,1.44,1.96,2.36,4.19,3,6.51.84.69,1.62,1.53,2.31,2.55,9.05,13.32,13.75,28.93,19.25,43.91,1.24,3.37.82,6.25-.58,8.48Z"/>
          <path d="M196.44,122.1l65.2,6.98c25.07,4.7,50.83,8.09,75.19,15.87,6.74,2.15,26.26,12.46,29.66,12.69,5.04.33,26.29-10.48,33.79-12.7,25.25-7.49,51.57-10.99,77.39-15.89l74.11-6.95h53.3c3.86,3.64,9.97,1.79,15.5,3.47s7.96,9.03,13.43,10.83c6.32,2.08,14.76-.84,15.49,6.8l2.14,328.31c11.58,8.31,27.57,7.69,37.82,18.17,12.15,24.23,27.07,47.84,38.93,72.11,12.79,26.17,4.56,47.85,5.4,76.77,1.96,67.1,34.33,120.91,71.58,174.94,18.96,27.5,40.96,53.19,61.78,79.25v6.66c-20.68-26.18-42.68-51.84-61.77-79.25-25.96-37.27-67.41-102.35-73.43-146.44-4.47-32.71-1-65.82-1.32-98.63l-43.27-82.7-35.63-14.95v31.09c3.59.97,7.46-13.14,11.09-8.87,2.38,2.8-5.4,7.43-6.29,10.46-1.89,6.49,8.45,26.99,11.85,27.16,1.23.06,3.83-5.94,7.78-4.3-10.38,9.67-12.32,21.77-13.31,35.53l4.39,1.05c-.58,4.89-15.48,18.76-15.48,20.03,0,1.64,14.54,12.61,15.51,16.64-6.54-2.5-14.78-9.67-20.02-14.38-21.27-19.15-17.34-24.51-28.43-47.08-5.29-10.76-13.08-23.31-21.52-31.79-3.54,3.1,2.76,7.27,3.04,10.35.48,5.25-25.41,26-29.69,11.85-1.68-.35-1.42,2.13-1.07,3.28,3.4,11.1,18.66,31.21,24.08,44.78,15.26,38.19,10.81,87.48,34.93,120.53,6.12,8.39,16.38,17.11,23.07,25.79,19.48,25.33,34.93,60.45,47.74,89.96,13.77,31.73,26.14,64.89,36.7,97.64-6.34,1.2-3.58-1.7-5.03-4.85-28.75-62.47-42.91-128.63-86.09-184.96-6.25-8.16-17.43-17.14-23.12-25.74-18.41-27.85-16.97-65.83-26.16-97.1l-67.39-22.55c-107.56.24-214.32-6.94-321.76-.01l-67.64,22.3c-6.12,34.13-7.07,73.1-28.18,101.75-27.71,37.62-43.21,53.36-63.49,98.63-14.3,31.9-25.89,78.73-41.71,107.09-1.72,3.08-1.87,6.41-6.75,5.44,22.49-54.66,39.82-113.2,69.91-164.38,14.62-24.88,41.87-45.71,51.09-71.06,9.51-26.12,9.92-58.68,18.33-86.05,6.45-20.99,19.63-38.53,27.2-58.28-3.58,8.36-25.78-5.67-27.81-8.9-3.38-5.36,2.82-9.16.08-13.3-18.92,14.37-21.66,44.48-33.43,62.07-2.74,4.1-21.44,20.3-26.55,24.53-1.48,1.23-5.57,6.63-7.77,4.43-4.11-4.12,15.5-14.52,15.5-16.65-3.82-4.38-14-12.86-15.07-18.28-1.49-7.57,4.19-17.76-2.7-29.97-1.98-3.5-7.8-2.72-6.61-8.37,3.8-1.71,7.45,5.43,8.84,4.43,1.12-.81,11.36-22.06,10.76-24.99-.81-3.93-7.4-7.46-6.26-12.77l7.75,6.62c5.1.01,3.89-28.88,2.19-28.86-10.4,5.01-26.23,6.46-34.4,14.46l-43.89,82.68c-5.37,15.17,1.92,32.01,1.82,48.42-.47,77.71-31.02,130.68-73.81,192.75-20,29-43.36,57.21-66.22,83.69v-4.44c17.85-23.7,37.94-46.15,55.11-70.37C-32.32,761.4,2.27,705.17,3.32,625.25c.35-26.81-9.14-34.42,3.19-61.23,10.85-23.59,27.26-45.37,36.7-69.91,10.06-14.54,28.27-14.3,42.29-22.57l-.08-319.43c1.99-19.74,2.3-11.6,15.47-15.73,5.77-1.81,7.1-7.72,10.21-9.58,3.95-2.35,8.91-1.38,12.05-4.71h73.29ZM365.23,564.06V163.18c-34.76-20.55-81.29-27.36-121.31-31.93-31.95-3.65-84.38-8.55-115.32-4.82-2.38.29-5.11-.09-6.7,2.19-2.63,3.77-.56,47.68-.88,56.87-4.06,118.87-6.97,238.57-13.52,357.37-.16,2.98-1.6,13.89,2.3,14.53,4.55-19.17,17.27-42.94,35.44-52.3,9.42-4.85,20.29-9.17,27.82,1.28,12.22,16.93-16.42,53.01-14.36,55.47,2.59-1.09,4.72-2.16,7.71-2.26,51.74-1.82,106.22-2.43,157.71.07,12.98.63,27.95,3.5,41.11,4.42ZM369.67,162.07v401.98c69.26-5.84,139.38-6.18,208.76-2.24-7.4-14.19-27.67-41.28-14.52-55.59,21.32-23.21,59.05,26.14,61.19,46.72,3.87.53,2.09-5.04,2.2-7.74.25-6.49.38-13.65.11-20.12-4.06-96.85-7.74-193.93-11.3-290.74-1.29-35.04-1.06-70.32-2.37-105.35-6.72-7.89-116.21,2.24-133.81,4.52-37.67,4.89-75.79,12.39-110.25,28.56ZM112.04,132.09c-2.05,8.03,1.49,23.18,0,32.2-8.35-4.7-3.04-18.48-4.46-26.65-1.43-.16-4.42,2.95-4.42,3.33v37.76c0,1.68,5.04,5.51-2.2,7.77l-4.44-42.19c1.27,142.28-1.68,284.28-2.23,426.39l8.96-3.73c1.93-31.65.91-63.53,2.04-95.19,3.45-95.94,8.77-192.47,11.29-288.53.47-18.13-.52-36.39-.11-54.5-1.4-.07-4.23,2.58-4.42,3.33ZM636.18,144.31v42.2c-1.44.17-4.44-2.94-4.44-3.33v-42.2c0-.5-3.85-4.07-4.42-3.33,1.01,7.8,3.31,15.27,2.2,23.37-.41,3.03-1.6,6.98-4.43,3.27-1.35-10.75,3.72-29.39-6.65-35.52.35,9.23-.51,18.63-.13,27.87,4.11,98.31,7.89,196.89,11.3,295.18,1.34,38.72,1.39,77.62,2.47,116.33l8.55,1.46-4.45-425.3ZM645.06,142.09l-4.44.02c-1.06.88,2.22,2.81,2.22,3.31v216.54h2.22v-219.87ZM92.06,477.44V146.53h-2.22v325.36c0,2.12-6.47,6.58,2.22,5.55ZM647.28,577.38v-206.54h-2.22v204.32l-8.87.02v2.18c2.41-.36,10.49.62,11.09.02ZM160.86,537.41c2.18-10.25,18.98-20.38,6.66-29.93-6.53-5.06-12.79-4.31-18.67,1.23-16.59,15.65-2.94,21.93,12,28.7ZM573.42,504.44c-21.24,4.05.47,32.29,3.87,32.55.88.07,13.44-7.45,15.28-8.78,8.76-6.32-7.27-26.04-19.15-23.77ZM585.09,577.37c.73-13.17-19.54-12.77-29.88-13.41-63.03-3.91-127.34,5.25-188.99,4.63-13.63-.14-30.66-4.34-44.21-4.63-53.32-1.15-106.78,1.15-160.12-.04-8.02-.57-8.94,8.08-12.09,13.43,65.37-1.98,131.28.15,196.63-2.12,7.27-.25,13.85-4.02,19.88-4.1,10.51-.14,29.71,5.59,42.13,6.33,57.62,3.44,118.68-2.75,176.64-.1ZM194.22,581.83h-45.53c-2.59,0-7.64,14.41-6.64,17.8,6.99-2.64,20.8-5.07,26.43-9.11,3.53-2.53,2.48-7.06,5.71-6.45-.36,2.96-.19,5.24,3.17,4.49l16.85-6.73ZM589.54,581.83c-3.01-2.03-41.44,1.52-48.86,0l16.87,6.75c3.12,1.96,3.83-9.21,7.55-4.52.61.76-1.52,5.02,1.47,6.74,6.05,3.47,19.27,5.38,26.26,8.84,2.24-2.2-2.55-17.29-3.3-17.8Z"/>
        </g>
        <g>
          <text class="cls-3" transform="translate(128.52 420.63) scale(.95 1)"><tspan x="0" y="0">L</tspan></text>
          <text class="cls-2" transform="translate(197.71 420.43) scale(.95 1)"><tspan x="0" y="0">IBRA RIUM</tspan></text>
        </g>
      </g>
    </g>
  </g>
</svg>