<svg width="1024" height="1024" viewBox="0 0 1024 1024" fill="none" xmlns="http://www.w3.org/2000/svg">
<path d="M398.199 109.273C421.405 131.864 436.657 162.7 440 195C440.164 196.5 440.164 196.5 440.332 198.031C442.964 225.26 439.515 254.056 428 279C427.718 279.63 427.436 280.261 427.146 280.91C420.086 296.596 410.341 310.126 398.398 322.461C395.91 324.952 395.91 324.952 394 328C392.349 329.026 390.68 330.023 389 331C387.524 332.186 386.066 333.396 384.625 334.625C369.399 346.882 351.817 354.199 333 359C333.535 363.186 334.466 366.311 336.5 370C339.042 374.923 340.513 378.487 339.375 384.062C337.68 387.683 336.153 389.515 333 392C330.033 392.595 327.198 392.476 324.187 392.312C323.399 392.29 322.611 392.267 321.799 392.244C319.865 392.185 317.932 392.096 316 392C316.119 397.247 316.243 402.494 316.372 407.741C316.415 409.522 316.457 411.304 316.497 413.086C316.556 415.66 316.619 418.234 316.683 420.809C316.7 421.593 316.717 422.378 316.734 423.187C316.856 427.825 317.215 432.377 317.766 436.984C318.053 439.455 318.22 441.923 318.359 444.406C321.64 496.855 333.058 550.815 355.755 598.369C357.113 601.239 358.428 604.128 359.742 607.019C366.011 620.64 373.222 633.178 381.488 645.675C384.519 650.336 387.28 655.152 390 660C393.564 657.018 396.989 654.059 400.187 650.687C404.233 646.531 408.915 643.273 413.621 639.918C414.799 638.969 414.799 638.969 416 638C416 637.34 416 636.68 416 636C414.461 634.933 412.864 633.949 411.25 633C401.646 627.047 392.959 619.936 386 611C385.05 609.805 385.05 609.805 384.082 608.586C361.948 579.559 357.66 542.637 361.648 507.168C364.031 490.148 369.205 473.338 377 458C375.679 456.805 375.679 456.805 374.332 455.586C373.159 454.516 371.985 453.445 370.812 452.375C370.234 451.853 369.656 451.331 369.06 450.793C357.757 440.447 351.602 428.118 350.148 412.793C349.432 394.495 353.353 378.145 366.065 364.295C378.622 351.343 393.821 345.275 411.75 344.812C428.915 345.078 443.597 350.631 455.937 362.687C462 369.065 462 369.065 462 372C463.454 371.437 463.454 371.437 464.937 370.863C469.276 369.199 473.633 367.588 478 366C478.641 365.765 479.281 365.531 479.941 365.289C501.301 357.62 524.15 355.771 546.687 355.75C547.834 355.748 547.834 355.748 549.005 355.747C562.838 355.759 576.34 356.705 590 359C590.844 359.139 591.687 359.278 592.557 359.422C604.629 361.493 616.057 365.101 627.595 369.161C631.382 370.482 635.19 371.742 639 373C639.388 372.458 639.776 371.916 640.176 371.358C650.711 356.77 663.903 349.021 681.5 345.25C699.963 343.931 715.962 346.7 731 358C731.592 358.427 732.183 358.853 732.793 359.293C744.62 368.522 751.735 382.32 753.719 397.008C755.279 413.606 752.101 429.368 741.824 442.855C737.794 447.456 733.414 451.602 728.726 455.527C727.062 456.947 725.537 458.445 724 460C724.377 460.979 724.377 460.979 724.763 461.977C730.18 476.155 734.74 489.969 737 505C737.286 506.783 737.286 506.783 737.578 508.602C738.351 515.134 738.244 521.743 738.25 528.312C738.251 529.381 738.251 529.381 738.252 530.471C738.235 541.864 737.699 552.891 735 564C734.839 564.668 734.678 565.335 734.512 566.023C727.438 593.966 710.782 619.459 686.098 634.777C685.405 635.181 684.713 635.584 684 636C686.672 639.164 689.325 642.301 692.203 645.281C713.972 668.033 724.507 694.931 725.137 726.242C725.006 729.822 724.487 732.801 723.562 736.25C722.439 740.683 721.861 744.683 721.75 749.25C721.312 755.919 718.302 759.157 714 764C712.662 765.794 711.349 767.606 710.062 769.437C709.476 770.261 708.889 771.085 708.285 771.934C706.824 773.877 706.824 773.877 707 776C707.773 776.242 708.547 776.485 709.344 776.734C715.539 778.728 721.269 780.914 727 784C727 784.66 727 785.32 727 786C727.589 786.265 728.178 786.531 728.785 786.805C737.452 791.482 742.344 800.48 745.25 809.5C751.867 832.661 745.418 854.748 734.183 875.32C732.395 878.469 730.286 881.189 728 884C727.67 884.99 727.34 885.98 727 887C727.887 887.247 728.774 887.495 729.687 887.75C733.196 889.074 735.353 890.353 738 893C739 895.437 739 895.437 739 898C735.857 904.931 728.69 907.301 722 910C717.381 911.558 712.722 912.803 708 914C706.615 914.414 706.615 914.414 705.203 914.836C698.773 916.757 692.391 917.726 685.734 918.535C682.428 918.947 679.16 919.451 675.875 920C670.383 920.856 664.891 921.447 659.359 921.965C657.982 922.094 657.982 922.094 656.576 922.227C646.851 923.128 637.117 923.878 627.375 924.562C626.464 924.628 625.552 924.693 624.614 924.76C610.01 925.793 595.427 926.433 580.788 926.621C579.757 926.639 579.757 926.639 578.704 926.658C576.874 926.689 575.043 926.709 573.212 926.729C569.988 926.872 569.988 926.872 567.03 928.003C563.474 929.173 560.526 929.259 556.785 929.266C556.101 929.268 555.418 929.271 554.714 929.274C552.496 929.278 550.28 929.265 548.062 929.25C547.3 929.248 546.539 929.246 545.754 929.244C535.54 929.211 525.455 928.821 515.288 927.778C508.622 927.1 502.009 926.796 495.312 926.625C481.302 926.224 467.347 925.138 453.375 924.062C452.249 923.977 451.124 923.891 449.965 923.803C432.887 922.499 415.866 921.079 399 918C398.247 917.869 397.495 917.737 396.719 917.602C360.959 911.351 360.959 911.351 348.375 902.062C347 900 347 900 346.312 897.125C347.332 892.491 350.15 890.561 354 888C356.937 886.625 356.937 886.625 359 886C357.271 881.784 355.406 877.831 353.145 873.865C342.256 854.626 338.105 833.505 344 812C345.406 807.85 347.061 803.928 349 800C349.384 799.21 349.768 798.42 350.164 797.605C355.55 788.171 367.066 780.939 377 777C379.696 776.463 382.248 776.196 385 776C385 775.01 385 774.02 385 773C383.892 772.814 383.892 772.814 382.762 772.625C372.136 770.22 363.086 761.487 357.125 752.75C349.027 738.813 347.728 722.92 350.73 707.168C351.632 704.301 352.682 701.697 354 699C354.351 698.198 354.701 697.396 355.062 696.57C359.71 686.984 368.648 680.667 378 676C378.66 676 379.32 676 380 676C375.085 666.289 370.024 656.779 364.125 647.625C332.939 599.118 315.731 545.841 307 489C306.865 488.136 306.73 487.273 306.591 486.383C301.917 455.64 300.733 424.058 300 393C298.903 392.974 297.806 392.948 296.676 392.922C295.221 392.866 293.767 392.808 292.312 392.75C291.591 392.736 290.87 392.722 290.127 392.707C285.219 392.483 282.581 391.642 279 388C275.853 381.705 277.99 373.271 280 366.937C280.557 365.342 280.557 365.342 281.125 363.715C282.153 360.999 282.153 360.999 282 358C280.546 357.58 280.546 357.58 279.062 357.152C257.484 350.769 238.597 341.334 222 326C221.461 325.51 220.923 325.021 220.368 324.517C191.826 298.339 177.406 261.451 175.215 223.289C174.557 207.697 175.452 192.216 179 177C179.149 176.339 179.298 175.679 179.451 174.998C184.971 151.385 197.303 130.377 214 113C214.446 112.523 214.891 112.046 215.35 111.555C222.587 103.825 229.997 97.6562 239 92C240.054 91.3116 241.109 90.6232 242.195 89.914C257.297 80.5958 274.486 76.0358 292 74C293.176 73.8582 294.351 73.7164 295.562 73.5703C334.247 69.8988 370.151 82.5887 398.199 109.273Z" fill="#774D33"/>
<path d="M439.813 367.125C447.953 372.658 453.056 380.656 458 389C462.757 388.612 465.7 387.755 469.828 385.234C480.422 379.213 492.174 375.653 504 373C505.11 372.75 505.11 372.75 506.241 372.495C547.579 363.833 599.101 368.337 636.266 388.723C640.118 390.522 642.836 390.583 647 390C647.31 388.793 647.31 388.793 647.625 387.563C652.399 375.193 661.605 367.74 673.301 362.129C679.075 359.714 684.436 359.783 690.625 359.75C691.573 359.729 692.52 359.709 693.496 359.688C706.835 359.615 718.432 364.644 728 374C737.782 385.437 740.248 398.262 739.223 412.918C737.883 425.421 730.778 435.171 721.418 443.113C718.038 445.751 714.54 448.185 710.969 450.555C708.882 451.856 708.882 451.856 708 454C707.542 457.845 708 460.316 709.801 463.656C716.51 476.646 720.305 490.701 723 505C723.176 505.911 723.352 506.822 723.533 507.761C724.06 511.412 724.18 514.999 724.203 518.68C724.209 519.41 724.215 520.141 724.221 520.893C724.23 522.438 724.236 523.983 724.24 525.527C724.25 527.834 724.281 530.139 724.313 532.445C724.408 545.68 722.701 558.367 718.375 570.938C718.124 571.675 717.872 572.412 717.613 573.172C712.961 586.208 706.388 597.81 697 608C696.176 608.944 696.176 608.944 695.336 609.906C676.86 629.93 647.817 637.425 622 642C621.34 642 620.68 642 620 642C619.842 641.18 619.683 640.36 619.52 639.516C618.199 632.836 618.199 632.836 614.5 627.313C606.349 623.033 597.362 625.182 588.949 627.746C578.088 631.059 578.088 631.059 567.844 635.82C564.319 637.282 562.135 636.906 558.431 636.337C554.238 635.756 550.039 635.856 545.813 635.875C544.518 635.869 544.518 635.869 543.197 635.863C539.563 635.869 536.292 635.94 532.719 636.672C529.183 637.099 527.733 636.164 524.688 634.375C519.602 631.645 514.645 629.775 509.125 628.188C508.412 627.981 507.699 627.775 506.964 627.562C498.995 625.335 491.414 623.97 483.25 625.875C479.141 628.562 478.34 630.98 476.824 635.527C476.059 637.823 475.133 639.867 474 642C443.909 637.147 414.145 624.572 395 600C387.946 589.824 382.856 579.323 379.313 567.5C379.11 566.824 378.907 566.148 378.699 565.452C375.45 554.094 374.625 543.129 374.688 531.375C374.69 530.617 374.693 529.859 374.696 529.078C374.757 518.136 374.914 507.578 378 497C378.264 496.091 378.527 495.183 378.798 494.247C382.142 483.022 385.827 472.113 391.649 461.908C393.155 459.198 394.014 457.388 393.902 454.254C392.908 451.771 392.09 450.76 390 449.125C389.058 448.367 389.058 448.367 388.098 447.594C386.656 446.499 385.205 445.416 383.746 444.344C373.507 436.721 369.01 428.03 365 416C364.024 400.542 365.498 387.172 376 375C392.569 356.875 419.159 355.174 439.813 367.125Z" fill="#FCDAAD"/>
<path d="M670 644C672.757 646.031 675.216 648.321 677.687 650.688C678.752 651.702 678.752 651.702 679.838 652.737C697.984 670.452 711.39 696.002 712.101 721.664C711.608 740.896 704.009 759.682 690 773C675.471 785.551 657.923 793.957 638.476 793.313C627.75 792.348 620.432 788.189 613.437 780C610.35 773.682 610.875 765.06 612.707 758.449C617.02 749.613 626.025 742.49 633.375 736.188C642.815 728.037 649.126 717.473 650.183 704.801C650.293 702.382 650.293 702.382 650 699C648.057 696.62 648.057 696.62 644.5 696.75C640.943 696.62 640.943 696.62 639 699C638.637 701.03 638.358 703.076 638.125 705.125C636.27 717.914 629.467 725.551 619.5 733.5C610.579 740.629 602.123 749.304 600 761C599.137 773.026 600.518 782.577 608.242 792.184C618.371 802.651 631.305 803.664 645 805C643.569 808.894 641.719 812.273 639.562 815.813C633.891 825.257 633.891 825.257 633 836C633.98 838.064 633.98 838.064 636 839C639.018 839.021 639.018 839.021 642 838C643.57 835.679 643.57 835.679 644.437 832.688C650.745 815.991 662.538 800.851 679 793C685.209 790.434 690.799 789.477 697.5 789.563C698.751 789.574 698.751 789.574 700.028 789.586C706.115 789.749 710.881 790.522 716 794C716.679 794.413 717.359 794.825 718.058 795.25C725.651 800.302 731.337 808.117 733.562 816.992C736.51 837.257 731.43 856.373 719.832 873.133C709.519 886.238 695.76 897.748 679 901C665.205 902.462 653.68 900.539 642.351 892.106C635.608 886.068 631.409 878.503 628.008 870.215C627.091 867.858 627.091 867.858 625 866C622.5 865.667 622.5 865.667 620 866C617.861 868.139 617.573 869.133 617 872C606.435 875.03 595.886 877.442 585 879C583.553 879.207 583.553 879.207 582.076 879.419C547.361 884.186 504.348 886.45 471 874C470.897 872.886 470.794 871.773 470.687 870.625C470.46 869.429 470.234 868.233 470 867C467.249 864.758 467.249 864.758 464.465 865.031C461.789 865.785 461.789 865.785 460.629 868.406C460.277 869.427 459.925 870.448 459.562 871.5C455.024 883.358 447.795 892.657 436.117 898.211C423.092 903.065 409.725 901.92 396.976 896.781C378.497 888.23 365.519 872.614 358.32 853.82C353.921 841.133 352.137 825.514 358 813C363.834 801.802 370.985 793.664 382.902 788.82C392.949 786.16 403.724 787.483 413 792C429.135 801.528 438.611 816.42 444.211 833.926C444.906 836.179 444.906 836.179 447 838C450.307 837.71 450.307 837.71 453 836C455.097 825.488 449.194 814.689 443.531 806.152C441.974 803.887 440.363 801.685 438.722 799.477C437 797 437 797 437 795C439.97 794.01 442.94 793.02 446 792C446.037 790.202 446.037 790.202 446.076 788.367C446.171 783.853 446.271 779.339 446.372 774.825C446.415 772.883 446.457 770.942 446.497 769.001C447.098 740.245 447.098 740.245 449.574 727.41C450.162 724.081 450.421 721.368 450 718C448.5 715.833 448.5 715.833 446 715C442.807 715.226 442.807 715.226 440 716C438.415 722.682 437.309 729.316 436.437 736.125C436.231 737.633 436.231 737.633 436.021 739.172C435.43 743.675 434.917 748.075 434.972 752.621C435.037 761.934 435.037 761.934 432.058 764.996C429.113 766.686 426.187 767.826 423 769C421.623 769.621 420.252 770.255 418.887 770.899C406.905 776.474 406.905 776.474 402 776C402.16 773.668 402.16 773.668 403 771C405.371 769.551 405.371 769.551 408.437 768.313C420.564 762.624 427.251 753.335 432 741C436.409 726.404 436.202 712.864 429.875 698.875C423.746 687.445 415.176 680.496 403 676.688C401.003 676.114 399.004 675.547 397 675C398.626 670.703 401.882 667.969 405.187 664.938C405.801 664.371 406.414 663.805 407.046 663.221C413.625 657.261 420.679 652.009 428 647C429.297 646.076 429.297 646.076 430.621 645.133C433.715 643.659 434.739 643.979 438 645C438.663 645.201 439.327 645.402 440.01 645.608C441.589 646.089 443.166 646.576 444.741 647.07C454.415 650.099 463.992 652.407 474 654C474.014 654.589 474.029 655.178 474.044 655.785C474.119 658.503 474.216 661.22 474.312 663.938C474.335 664.864 474.357 665.79 474.381 666.744C474.672 674.287 475.56 681.072 480.5 687C486.023 691.419 493.253 690.597 500 690C509.422 688.586 518.313 685.819 526.972 681.856C530.218 680.939 532.602 681.152 535.905 681.692C539.389 682.204 542.86 682.146 546.375 682.125C547.492 682.128 547.492 682.128 548.631 682.13C552.638 682.114 556.415 681.854 560.375 681.188C565.348 680.587 568.523 682.381 572.902 684.586C583.758 689.542 596.159 691.457 608 690C612.098 688.261 614.854 686.97 617 683C618.848 676.794 619.4 670.953 619.625 664.5C619.664 663.582 619.702 662.664 619.742 661.719C619.835 659.479 619.921 657.24 620 655C625.934 653.195 631.928 651.94 638 650.688C646.28 648.954 654.139 646.839 662.039 643.82C665.446 642.876 666.726 642.668 670 644Z" fill="#FCDAAD"/>
<path d="M305.442 88.6843C307.798 88.6875 310.153 88.664 312.51 88.6387C340.498 88.5198 365.594 99.0898 386 118C387.29 119.151 387.29 119.151 388.605 120.324C412.727 142.912 425.105 176.939 426.238 209.453C426.503 223.414 425.2 236.413 422 250C421.829 250.748 421.657 251.496 421.481 252.267C414.136 283.297 394.388 311.825 367.309 328.828C356.693 335.317 345.98 339.774 334 343C333.354 343.189 332.707 343.378 332.041 343.573C325.385 345.324 318.752 345.338 311.9 345.316C309.9 345.313 307.899 345.337 305.898 345.361C275.578 345.376 248.688 331.656 227.312 310.75C202.188 285.289 189.704 249.356 189.625 213.938C190.11 177.127 203.332 143.933 229.552 118.032C243.426 104.766 260.26 95.4536 279 91C279.727 90.8241 280.454 90.6483 281.203 90.4671C289.269 88.7415 297.232 88.6614 305.442 88.6843Z" fill="#F9865C"/>
<path d="M356.827 882C357.473 882.636 358.12 883.271 358.786 883.926C359.255 884.381 359.724 884.836 360.207 885.305C361.413 886.505 362.589 887.733 363.746 888.979C375.222 901.001 392.162 911.397 409.204 912.23C425.672 912.609 439.998 911.78 452.977 900.75C457.637 896.252 461.918 891.685 465.002 885.977C466.519 886.245 468.035 886.515 469.551 886.785C470.583 886.967 471.616 887.149 472.679 887.336C474.958 887.752 477.233 888.192 479.503 888.656C526.576 898.053 575.284 895.58 621.704 883.988C622.182 884.757 622.661 885.526 623.153 886.319C631.719 899.585 641.764 907.644 657.404 911.702C674.757 915.098 691.553 911.963 706.627 902.878C714.725 897.552 721.752 891.498 727.857 883.988C728.191 884.973 728.524 885.957 728.868 886.971C730.886 887.647 732.908 888.308 734.934 888.959C737.962 890.878 739.626 892.066 741 895.359C741 898.773 740.028 900.137 737.967 902.878C729.306 908.467 719.621 911.33 709.66 913.814C708.726 914.088 707.793 914.363 706.832 914.645C700.331 916.556 693.88 917.519 687.149 918.323C683.807 918.732 680.503 919.234 677.182 919.779C671.629 920.63 666.077 921.218 660.485 921.733C659.092 921.862 659.092 921.862 657.671 921.993C647.839 922.889 637.999 923.635 628.149 924.315C626.767 924.412 626.767 924.412 625.357 924.511C610.594 925.539 595.851 926.175 581.051 926.362C580.356 926.374 579.661 926.386 578.944 926.398C577.093 926.429 575.242 926.45 573.391 926.469C570.132 926.612 570.132 926.612 567.142 927.736C563.546 928.899 560.566 928.984 556.784 928.991C555.747 928.995 555.747 928.995 554.69 928.999C552.448 929.003 550.207 928.991 547.966 928.976C547.195 928.974 546.425 928.971 545.631 928.969C535.305 928.936 525.11 928.549 514.831 927.512C508.092 926.839 501.407 926.536 494.636 926.366C480.472 925.967 466.364 924.888 452.238 923.818C451.101 923.733 449.963 923.648 448.791 923.561C431.525 922.264 414.317 920.852 397.266 917.791C396.125 917.595 396.125 917.595 394.96 917.395C358.807 911.18 358.807 911.18 346.085 901.946C344.695 899.895 344.695 899.895 344 897.037C345.031 892.43 347.88 890.511 351.772 887.965C354.742 886.598 354.742 886.598 356.827 885.977C356.827 884.664 356.827 883.352 356.827 882Z" fill="#FCDCB0"/>
<path d="M547.125 513.812C547.942 513.8 548.759 513.788 549.601 513.775C563.919 513.741 574.428 518.952 584.781 528.781C594.318 538.318 600.236 548.773 600.375 562.625C600.31 574.494 597.303 584.304 589 593C588.122 593.938 588.122 593.938 587.226 594.894C575.779 605.979 560.994 608.429 545.748 608.439C531.871 608.1 519.029 603.409 508.726 593.902C499.891 584.591 496.828 575.301 496.75 562.75C496.729 561.942 496.709 561.133 496.687 560.301C496.604 547.265 502.809 536.613 511.551 527.293C518.302 520.972 526.315 517.818 535 515C539.076 513.641 542.856 513.816 547.125 513.812Z" fill="#FDEED5"/>
<path d="M404.25 689.5C413.725 694.759 418.3 701.969 422 712C422.812 715.125 422.812 715.125 423 718C423.062 718.628 423.124 719.256 423.188 719.902C423.807 730.6 419.487 741.613 413 750C408.048 755.206 403.497 759.411 396.168 760.371C388.904 760.533 384.656 759.554 379 755C378.154 754.443 377.309 753.886 376.438 753.313C367.754 745.074 363.034 734.403 362.5 722.438C363.011 711.425 367.596 702.054 375 694C384.074 686.541 393.299 684.417 404.25 689.5Z" fill="#FBDBAE"/>
<path d="M266 120C270.097 121.769 272.8 124.108 275 128C275.342 132.476 274.815 135.804 272.269 139.539C269.912 142.095 267.556 143.919 264.687 145.875C248.66 157.339 238.889 174.298 235.606 193.632C234.581 199.094 232.931 202.038 229 206C225.298 207.851 221.041 207.465 217 207C213.339 204.864 211.616 202.853 210 199C207.557 182.056 216.113 161.871 225.879 148.41C227.864 145.889 229.917 143.441 232 141C232.593 140.25 233.186 139.5 233.797 138.727C241.231 129.673 253.605 118.417 266 120Z" fill="#FEB89C"/>
<path d="M561.875 531.688C565.049 534.036 566.63 535.318 568 539C568.518 543.067 568.34 545.321 566.5 549C563.367 552.759 559.957 556.106 556 559C555.34 559 554.68 559 554 559C553.919 561.438 553.86 563.874 553.813 566.313C553.788 567.003 553.762 567.693 553.736 568.404C553.645 572.419 553.645 572.419 555.387 575.918C559.042 578.369 561.482 578.042 565.746 577.508C569.903 576.571 572.198 574.203 574.5 570.75C576 569 576 569 578.563 568.625C581 569 581 569 583 571C583.439 574.874 583.453 577.207 581.5 580.625C575.408 586.413 568.967 589.458 560.563 590.375C557.104 590.011 555.975 589.523 553.125 587.813C550.719 586.487 549.607 585.885 546.879 586.402C545.386 586.98 543.896 587.568 542.41 588.164C536.753 590.126 531.464 590.115 525.996 587.641C520.819 584.525 516.455 581.612 514 576C513.575 572.414 513.323 570.141 515.188 567C517 566 517 566 519.313 565.813C522.949 567.419 524.389 569.841 526.57 573.09C528.335 575.448 529.968 576.84 532.938 577.301C533.959 577.307 533.959 577.307 535 577.313C535.681 577.329 536.361 577.346 537.063 577.363C539.697 576.869 540.471 576.205 542 574C543.169 569.146 543.169 564.851 542 560C539.502 556.425 536.152 553.846 532.723 551.207C530 549 530 549 529 546C528.734 542.405 528.737 539.706 530 536.313C537.151 528.044 552.183 527.274 561.875 531.688Z" fill="#74482C"/>
<path d="M606 635C610.629 647.013 611.15 663.702 607 676C606.36 677.346 605.699 678.684 605 680C597.836 680.71 591.548 679.609 584.688 677.688C583.541 677.368 583.541 677.368 582.372 677.042C577.849 675.716 574.334 674.167 570 672C570 663.42 570 654.84 570 646C581.263 640.369 581.263 640.369 585.395 639.199C586.287 638.945 587.18 638.69 588.1 638.428C588.995 638.183 589.89 637.939 590.812 637.688C592.184 637.292 592.184 637.292 593.584 636.889C597.87 635.689 601.521 634.856 606 635Z" fill="#FB8959"/>
<path d="M490 635C502.894 635.667 514.539 641.46 526 647C526.145 655.054 525.714 662.979 525 671C517.98 674.235 510.925 676.764 503.5 678.875C502.723 679.102 501.946 679.329 501.145 679.563C494.642 681.354 494.642 681.354 491 680C486.216 673.621 486.817 666.429 486.813 658.812C486.8 657.822 486.788 656.831 486.775 655.811C486.762 648.891 486.841 641.319 490 635Z" fill="#FB8A59"/>
<path d="M701.418 385.652C707.601 388.439 712.461 393.714 715 400C715.972 407.07 715.429 412.959 711.57 419.023C707.882 423.666 703.772 427.559 697.809 428.508C692.351 427.78 690.472 424.971 687.062 420.875C682.911 416.023 678.923 411.926 673.624 408.316C672 407 672 407 670.75 404.125C671.24 398.004 673.938 393.656 678.5 389.625C685.253 384.13 692.987 383.378 701.418 385.652Z" fill="#764A2E"/>
<path d="M422 387C427.194 390.75 431.406 394.434 432.5 401C431.701 405.792 428.738 407.718 424.945 410.516C418.887 415.002 414.517 419.985 410 426C409 427 409 427 405.438 427.5C400.616 427.431 398.117 425.345 394.766 422.047C389.899 416.404 388.244 411.221 388.555 403.742C389.705 396.661 393.747 391.47 399.32 387.152C406.472 382.246 414.587 382.882 422 387Z" fill="#74482D"/>
<path d="M482 506C487.307 508.842 489.733 513.431 491.687 518.938C492.662 525.369 492.011 531.22 489 537C484.96 541.575 481.4 543.76 475.25 544.375C471.169 544.315 468.795 543.043 465.543 540.68C460.328 535.003 460.49 528.958 460.648 521.645C461.247 515.434 463.089 511.818 467.562 507.563C472.414 504.452 476.56 504.652 482 506Z" fill="#784C2F"/>
<path d="M627 506C632.976 508.767 635.425 512.932 637.75 518.938C638.54 525.452 638.413 531.252 635 537C632.01 540.191 628.545 543.69 624.047 544.238C618.5 544.418 615.277 543.879 611 540C606.265 534.392 606.348 528.798 606.547 521.609C607.168 516.662 608.645 513.625 612 510C612.722 509.175 613.444 508.35 614.187 507.5C618.438 505.233 622.289 505.267 627 506Z" fill="#784B2F"/>
<path d="M537 647C543.93 647 550.86 647 558 647C558 654.59 558 662.18 558 670C551.07 670 544.14 670 537 670C537 662.41 537 654.82 537 647Z" fill="#FA8959"/>
<path d="M301 360C305.95 360 310.9 360 316 360C317.338 362.623 318.671 365.248 320 367.875C320.382 368.621 320.763 369.368 321.156 370.137C321.517 370.852 321.878 371.568 322.25 372.305C322.585 372.965 322.92 373.624 323.266 374.304C324 376 324 376 324 378C313.77 378 303.54 378 293 378C295.145 371.564 297.916 366.033 301 360Z" fill="#F7875D"/>
<path d="M436 719C436.33 719 436.66 719 437 719C437.238 726.736 436.902 734.24 435.762 741.892C435.263 745.348 434.952 748.646 435.031 752.141C435.107 761.848 435.107 761.848 432.055 765.023C429.109 766.686 426.175 767.831 423 769C421.624 769.621 420.253 770.255 418.887 770.898C406.906 776.474 406.906 776.474 402 776C402.16 773.668 402.16 773.668 403 771C405.371 769.551 405.371 769.551 408.438 768.312C420.548 762.631 427.279 753.335 432 741C434.048 733.79 435.255 726.452 436 719Z" fill="#FADBAF"/>
<path d="M698 397C701.062 398.938 701.062 398.938 703 402C703.92 407.001 703.759 410.735 701.125 415.125C699 417 699 417 697 417C695.52 415.242 695.52 415.242 693.812 412.875C690.582 408.579 687.198 405.341 683 402C687.739 395.839 690.51 395.179 698 397Z" fill="#FBD3A0"/>
<path d="M414 396C416.875 397.875 416.875 397.875 419 400C419 400.66 419 401.32 419 402C417.623 402.861 416.245 403.722 414.867 404.582C411.045 407.485 408.079 411.343 405 415C401.165 412.599 401.165 412.599 400.434 409.949C400.441 405.709 400.63 402.864 403.375 399.5C407.047 396.002 408.952 395.505 414 396Z" fill="#F9D29F"/>
<path d="M436 719C436.33 719 436.66 719 437 719C437.238 726.737 436.88 734.232 435.771 741.888C435.282 745.346 434.939 748.716 434.891 752.211C434.73 762.122 434.73 762.122 432.453 764.859C430.562 766 430.562 766 427 767C426.34 766.67 425.68 766.34 425 766C429.75 763 429.75 763 432 763C432 758.05 432 753.1 432 748C429.525 751.465 429.525 751.465 427 755C427 751.595 427.784 750.194 429.312 747.188C433.465 738.317 435.031 728.693 436 719Z" fill="#F7E9C2"/>
<path d="M337 373C339.648 375.648 339.715 377.298 340 381C338.967 386.061 337.045 388.813 333 392C330.027 392.596 327.203 392.476 324.188 392.312C320.135 392.158 320.135 392.158 316 392C316 399.59 316 407.18 316 415C315.67 415 315.34 415 315 415C315 407.08 315 399.16 315 391C323.312 390.75 323.312 390.75 325.919 390.702C330.369 390.562 330.369 390.562 334.004 388.215C335.015 385.966 335.45 384.263 335.625 381.812C336 378 336 378 337 377C337 375.68 337 374.36 337 373Z" fill="#774D33"/>
<path d="M691.711 914.547C692.136 915.026 692.562 915.506 693 916C686.532 917.512 680.644 918.214 674 918C677.27 913.276 677.27 913.276 680.312 912.125C688.606 911.739 688.606 911.739 691.711 914.547Z" fill="#F8D6A7"/>
<path d="M422 767C422.66 767.33 423.32 767.66 424 768C409.403 775.852 409.403 775.852 402 776C402.33 774.35 402.66 772.7 403 771C408.75 770.875 408.75 770.875 411 772C412.865 771.24 414.695 770.393 416.5 769.5C418.305 768.607 420.135 767.76 422 767Z" fill="#F8E6BA"/>
<path d="M282 357C283.65 357 285.3 357 287 357C286.35 361.714 284.485 365.577 282.438 369.812C281.944 370.852 281.944 370.852 281.44 371.912C280.631 373.61 279.817 375.306 279 377C277.697 373.092 278.643 371.37 279.938 367.5C281.528 362.842 281.528 362.842 282 358C282 357.67 282 357.34 282 357Z" fill="#774D33"/>
<path d="M434 778C434 779.65 434 781.3 434 783C428.754 786.05 428.754 786.05 425.188 785.812C423 785 423 785 422 783C423.622 782.162 425.248 781.33 426.875 780.5C427.78 780.036 428.685 779.572 429.617 779.094C432 778 432 778 434 778Z" fill="#F6E4B9"/>
</svg>
