<svg width="679" height="679" viewBox="0 0 679 679" fill="none" xmlns="http://www.w3.org/2000/svg">
<path d="M221.837 47.2857C223.412 48.6655 224.946 50.0847 226.47 51.5213C227.912 52.8693 229.393 54.1187 230.92 55.3677C233.882 57.9196 235.943 61.0511 238.048 64.3193C240.419 63.913 242.473 63.2717 244.684 62.3275C271.112 51.2622 298.932 45.8132 327.564 45.0898C328.364 45.068 328.364 45.068 329.18 45.0458C353.34 44.485 377.182 47.4371 400.504 53.71C401.066 53.8574 401.629 54.0049 402.209 54.1568C411.842 56.711 420.932 60.4814 430.085 64.376C431.593 65.0615 431.593 65.0615 432.995 64.9824C433.976 63.7442 434.897 62.4957 435.813 61.2111C447.2 45.9057 465.005 34.6724 483.845 31.3878C504.61 28.3714 525.504 33.1603 542.404 45.7529C558.249 58.4966 568.705 76.4885 570.917 96.8105C572.414 117.549 566.578 136.056 553.014 151.847C549.289 156.026 545.412 159.485 540.84 162.676C540.414 162.977 539.989 163.277 539.55 163.586C538.514 164.317 537.475 165.045 536.436 165.771C536.657 166.421 536.877 167.07 537.104 167.74C551.24 209.599 558.174 255.328 537.845 296.607C532.143 307.784 524.443 317.139 515.881 326.238C515.472 326.675 515.064 327.112 514.643 327.562C509.067 333.337 502.464 338.523 495.506 342.53C493.922 343.345 493.922 343.345 493.336 344.805C493.697 344.954 494.057 345.104 494.429 345.258C496.457 346.393 498.041 347.901 499.718 349.488C500.427 350.149 501.135 350.811 501.845 351.472C502.197 351.802 502.55 352.131 502.913 352.471C504.408 353.852 505.94 355.19 507.468 356.533C509.789 358.622 511.91 360.761 513.917 363.151C514.933 364.359 515.965 365.542 517.015 366.72C522.01 372.361 526.378 378.266 530.469 384.59C530.726 384.983 530.983 385.377 531.247 385.782C546.81 409.838 555.453 439.45 550.018 468.101C547.436 479.973 542.53 492.547 533.784 501.293C534.586 501.478 535.388 501.664 536.214 501.855C545.83 504.172 554.037 507.327 561.634 513.892C562.114 514.269 562.594 514.647 563.089 515.036C574.365 524.269 580.826 538.962 582.438 553.221C584.658 576.579 576.985 600.352 562.058 618.425C560.429 620.329 558.74 622.168 556.992 623.964C557.394 624.124 557.796 624.285 558.209 624.451C559.384 624.921 560.557 625.394 561.729 625.87C562.919 626.339 564.119 626.785 565.33 627.196C569.754 628.752 573.151 630.989 576.222 634.573C577.05 636.687 577.05 636.687 576.885 638.552C573.825 644.623 567.311 646.82 561.219 648.871C505.668 666.718 443.467 666.766 104.413 645.724C100.225 643.529 96.9451 641.318 95.2356 636.811C95.4905 634.517 95.9273 633.245 97.5383 631.571C102.323 627.867 108.371 625.864 114.051 623.964C113.697 623.601 113.343 623.237 112.978 622.863C96.7028 605.546 87.7128 581.904 88.0479 558.21C88.609 540.943 96.0002 526.504 108.355 514.658C116.645 507.099 127.158 503.718 137.922 501.293C137.457 500.698 136.992 500.103 136.513 499.49C122.543 481.27 117.837 459.523 120.647 436.779C122.696 422.138 127.679 408.844 134.606 395.862C134.841 395.419 135.075 394.977 135.316 394.521C139.894 385.925 145.345 378.241 151.391 370.624C151.88 370.007 151.88 370.007 152.378 369.379C154.289 367.007 156.302 364.846 158.477 362.708C159.437 361.676 160.382 360.632 161.328 359.587C164.615 355.963 167.924 352.525 171.739 349.446C172.332 348.966 172.926 348.486 173.537 347.991C175.142 346.7 176.753 345.417 178.37 344.142C177.635 343.599 177.635 343.599 176.886 343.046C169.793 337.774 162.965 332.259 156.488 326.238C156.014 325.807 155.539 325.377 155.051 324.933C133.163 304.201 122.675 272.998 121.402 243.49C120.697 217.178 125.803 190.096 135.933 165.771C135.385 165.416 134.838 165.06 134.275 164.694C124.302 158.009 115.889 149.797 110.072 139.248C109.443 138.125 109.443 138.125 108.8 136.979C100.508 121.349 98.0323 102.691 102.778 85.5381C107.016 71.9501 114.052 60.5005 123.997 50.3945C124.449 49.9261 124.901 49.4577 125.367 48.9751C151.792 23.5331 194.528 24.2121 221.837 47.2857Z" fill="#79502E"/>
<path d="M202.241 50.3945C202.838 50.6638 203.434 50.933 204.049 51.2104C209.203 53.7427 213.075 57.341 217.13 61.3254C218.088 62.2643 219.061 63.1876 220.036 64.1095C224.287 68.2012 227.393 72.4502 230.257 77.5811C231.198 79.6121 231.198 79.6121 232.743 80.2334C237.256 80.7979 240.338 79.7721 244.264 77.6639C257.487 71.0337 271.336 66.6585 285.79 63.6562C286.555 63.4926 287.32 63.329 288.109 63.1604C294.21 61.8888 300.32 60.9144 306.511 60.2165C307.018 60.1593 307.525 60.1022 308.047 60.0433C317.928 58.9706 327.785 58.7431 337.718 58.7245C338.416 58.7206 339.115 58.7166 339.834 58.7125C370.041 58.5979 403.355 64.9554 430.279 79.078C433.267 80.6033 435.526 81.4248 438.963 80.8965C441.25 79.2098 442.34 77.0828 443.646 74.5972C451.414 60.9689 465.417 50.9124 480.276 46.416C495.915 42.36 512.458 43.9777 526.656 51.9279C541.483 61.0444 551.998 74.5787 556.329 91.5059C559.764 106.587 556.421 122.914 548.372 135.933C546.735 138.279 544.965 140.426 543.067 142.563C542.709 143.016 542.351 143.468 541.982 143.934C536.9 150.221 529.991 154.288 523.001 158.125C521.294 158.972 521.294 158.972 520.522 159.804C520.406 165.059 522.202 169.444 524.252 174.184C532.507 194.133 536.586 214.297 536.602 235.851C536.603 236.457 536.604 237.063 536.604 237.687C536.582 267.483 528.139 293.461 507.924 315.629C507.476 316.125 507.028 316.62 506.567 317.131C485.136 339.661 452.287 350.285 422.386 354.751C422.216 353.789 422.216 353.789 422.044 352.808C420.209 342.581 420.209 342.581 414.429 334.195C406.572 329.189 397.557 329.347 388.734 331.211C375.365 334.314 362.398 341.05 352.099 350.109C351.722 349.926 351.345 349.742 350.956 349.552C350.444 349.312 349.932 349.072 349.405 348.825C348.905 348.586 348.405 348.348 347.89 348.102C341.008 345.578 332.108 345.732 325.368 348.535C324.7 348.858 324.033 349.181 323.345 349.514C321.597 350.109 321.597 350.109 320.27 349.726C318.534 348.491 316.857 347.188 315.173 345.882C300.945 335.364 283.018 328.899 265.234 330.88C259.597 332.271 256.271 335.499 253.299 340.329C251.117 344.796 250.352 349.921 249.32 354.751C243.618 354.421 238.179 353.158 232.66 351.767C232.197 351.651 231.733 351.535 231.255 351.415C218.558 348.211 206.463 343.774 194.947 337.511C194.51 337.278 194.073 337.046 193.623 336.807C183.905 331.634 175.376 325.631 167.473 317.957C166.463 316.983 165.437 316.029 164.406 315.077C145.869 297.656 136.003 270.819 135.195 245.692C134.775 218.261 138.441 189.756 151.237 165.051C152.185 163.078 152.287 161.96 151.847 159.804C150.095 158.508 148.442 157.53 146.542 156.488C131.152 147.17 120.552 135.309 115.636 117.672C114.539 113.174 114.384 108.843 114.424 104.229C114.429 103.412 114.434 102.594 114.439 101.752C114.548 95.7143 115.168 90.5417 117.366 84.875C117.655 84.0835 117.944 83.292 118.242 82.4765C123.732 68.5252 136.142 55.3202 149.842 49.1402C166.927 41.9375 185.498 42.4452 202.241 50.3945Z" fill="#FCDAAD"/>
<path d="M143.019 514.845C143.772 514.853 144.525 514.86 145.301 514.868C161.255 515.284 174.737 523.299 186.161 534.033C196.167 544.643 201.735 556.897 206.104 570.651C206.275 571.186 206.445 571.721 206.621 572.272C206.768 572.746 206.916 573.221 207.067 573.71C207.512 575.035 207.512 575.035 208.872 576.222C210.27 576.408 210.27 576.408 211.815 576.346C212.333 576.342 212.852 576.338 213.387 576.333C214.958 576.272 214.958 576.272 216.829 575.559C218.677 571.192 217.15 566.298 215.834 562.007C215.659 561.428 215.483 560.85 215.302 560.254C213.143 553.442 210.052 547.165 206.178 541.161C205.754 540.477 205.33 539.793 204.894 539.089C205.112 538.651 205.331 538.214 205.557 537.763C205.775 538.419 205.994 539.076 206.22 539.752C207.708 540.473 207.708 540.473 209.535 541.078C210.935 541.706 212.332 542.341 213.726 542.982C214.558 543.363 215.39 543.743 216.222 544.124C216.658 544.323 217.094 544.522 217.542 544.727C236.519 553.38 255.972 560.792 275.436 568.262C277.062 568.886 278.687 569.511 280.312 570.137C290.475 574.049 300.652 577.923 310.852 581.736C311.867 582.116 312.882 582.497 313.897 582.878C315.304 583.407 316.712 583.932 318.121 584.456C318.922 584.755 319.723 585.055 320.548 585.363C334.874 590.219 348.366 586.854 361.858 581.244C367.213 579.026 372.63 576.97 378.042 574.896C379.156 574.468 380.271 574.04 381.385 573.612C384.884 572.27 388.384 570.93 391.884 569.591C392.478 569.363 393.073 569.136 393.686 568.901C397.892 567.292 402.098 565.685 406.306 564.079C406.896 563.854 407.485 563.628 408.093 563.396C414.4 560.989 420.714 558.614 427.064 556.323C439.088 551.974 450.886 546.906 462.23 540.996C463.497 540.415 463.497 540.415 464.823 540.415C465.644 537.953 465.722 535.566 465.859 532.997C465.888 532.5 465.917 532.003 465.946 531.491C466.016 530.266 466.083 529.041 466.149 527.817C469.213 527.817 472.276 527.817 475.433 527.817C474.872 528.446 474.311 529.075 473.733 529.723C464.855 540.119 453.179 557.286 454.172 571.829C454.7 574.183 454.7 574.183 455.954 575.6C458.179 576.478 459.801 576.518 462.171 576.222C464.519 574.348 465.335 572.613 466.178 569.767C466.408 569.022 466.638 568.276 466.875 567.508C467.114 566.718 467.353 565.929 467.6 565.115C470.712 555.329 474.623 546.902 481.4 539.089C481.833 538.569 482.265 538.05 482.711 537.514C491.922 526.795 502.951 519.706 516.544 515.881C516.951 515.763 517.358 515.646 517.778 515.524C528.631 513.178 540.168 515.121 549.615 520.688C559.931 527.81 565.889 538.299 568.34 550.494C569.008 554.37 569.157 558.161 569.135 562.09C569.129 563.132 569.129 563.132 569.124 564.196C568.795 585.397 558.344 604.868 543.505 619.599C528.313 634.081 508.54 640.376 487.86 640.101C475.191 639.67 462.885 634.519 453.551 625.953C453.042 625.505 452.534 625.057 452.01 624.596C446.624 619.585 442.855 613.345 440.149 606.529C439.642 605.261 439.642 605.261 438.3 604.071C436.753 603.809 436.753 603.809 435.026 603.823C434.445 603.804 433.865 603.785 433.267 603.766C431.615 603.934 431.615 603.934 430.547 605.123C429.551 606.784 429.551 606.784 429.162 609.104C428.354 611.365 428.354 611.365 426.509 612.404C425.696 612.622 424.882 612.84 424.043 613.064C423.582 613.191 423.121 613.317 422.645 613.448C421.017 613.883 419.382 614.282 417.744 614.681C416.809 614.921 416.809 614.921 415.855 615.165C389.686 621.856 362.894 623.669 335.987 623.515C333.858 623.506 331.729 623.509 329.6 623.513C318.032 623.526 306.58 623.3 295.073 621.975C294.17 621.877 293.267 621.779 292.364 621.682C250.908 616.967 250.908 616.967 241.363 610.702C240.888 609.165 240.447 607.617 240.037 606.061C238.971 604.654 238.376 604.144 236.641 603.761C236.135 603.754 235.628 603.747 235.105 603.74C234.6 603.719 234.095 603.699 233.575 603.678C231.327 604.27 230.674 605.469 229.428 607.387C228.883 608.736 228.387 610.106 227.936 611.49C224.166 621.633 215.112 629.301 205.551 633.977C188.532 641.661 170.162 641.95 152.8 635.444C144.346 631.868 136.844 627.423 129.965 621.312C129.192 620.669 129.192 620.669 128.403 620.014C116.291 609.778 108.061 594.73 104.104 579.537C103.892 578.722 103.679 577.906 103.46 577.066C100.099 561.966 101.342 546.449 109.29 533.016C116.763 521.357 129.231 514.653 143.019 514.845Z" fill="#FCDAAD"/>
<path d="M413.846 333.035C418.319 336.421 420.61 342.095 421.723 347.457C421.888 349.985 421.888 349.985 421.723 352.099C421.285 352.536 420.847 352.974 420.396 353.425C419.617 354.43 419.617 354.43 418.822 355.455C416.635 357.903 416.635 357.903 414.429 358.066C415.085 358.504 415.742 358.942 416.418 359.393C416.199 359.83 415.98 360.268 415.755 360.719C416.411 360.938 417.068 361.156 417.744 361.382C417.744 361.819 417.744 362.257 417.744 362.708C416.65 362.489 415.556 362.27 414.429 362.045C413.991 362.701 413.553 363.358 413.103 364.034C412.884 363.815 412.665 363.596 412.439 363.371C412.463 364.192 412.463 364.192 412.486 365.029C412.583 371.226 412.004 377.14 411.113 383.264C410.894 383.264 410.676 383.264 410.45 383.264C410.297 383.928 410.144 384.592 409.987 385.276C407.511 395.548 407.511 395.548 403.045 398.945C400.654 400.086 398.539 400.14 395.945 400.089C395.45 400.083 394.955 400.077 394.445 400.07C385.592 399.835 377.09 397.575 369.246 393.438C367.33 392.373 367.33 392.373 364.904 392.547C362.708 392.547 362.708 392.547 361.423 391.552C361.191 391.224 360.958 390.896 360.719 390.558C360.938 390.339 361.156 390.12 361.382 389.894C360.725 389.894 360.069 389.894 359.393 389.894C359.201 390.414 359.01 390.934 358.812 391.469C358.066 393.21 358.066 393.21 356.74 394.536C357.397 394.536 358.053 394.536 358.729 394.536C358.729 394.974 358.729 395.411 358.729 395.862C359.386 395.643 360.042 395.425 360.719 395.199C360.938 394.543 361.156 393.886 361.382 393.21C362.476 393.429 363.57 393.648 364.697 393.873C364.478 394.748 364.26 395.624 364.034 396.525C363.378 396.525 362.721 396.525 362.045 396.525C360.535 398.392 360.535 398.392 360.719 400.504C361.606 400.972 361.606 400.972 362.511 401.449C363.295 401.866 364.079 402.283 364.863 402.7C365.632 403.108 366.402 403.516 367.194 403.936C369.339 405.145 369.339 405.145 370.634 406.187C372.584 407.549 374.706 408.17 376.964 408.834C377.689 409.049 377.689 409.049 378.429 409.268C384.357 410.909 390.41 411.353 396.525 411.776C395.149 413.153 394.424 413.48 392.63 414.113C392.095 414.306 391.559 414.5 391.008 414.7C390.422 414.911 389.835 415.123 389.231 415.34C370.597 422.287 351.52 431.145 337.811 446.016C336.848 446.92 336.848 446.92 335.521 446.92C334.685 445.923 334.685 445.923 333.739 444.558C330.358 439.963 326.637 436.662 321.97 433.409C321.571 433.13 321.172 432.85 320.762 432.562C312.845 427.183 304.448 422.953 295.578 419.405C294.102 418.814 292.63 418.214 291.158 417.612C286.543 415.734 281.927 413.93 277.17 412.439C276.732 413.533 276.295 414.628 275.844 415.755C275.461 415.618 275.078 415.481 274.683 415.34C272.847 415.034 272.1 415.47 270.539 416.418C270.539 416.856 270.539 417.293 270.539 417.744C271.414 417.306 272.29 416.869 273.191 416.418C272.777 417.703 272.777 417.703 271.865 419.07C268.653 419.967 266.453 419.523 263.31 418.539C262.885 418.409 262.46 418.279 262.022 418.145C260.673 417.729 259.327 417.302 257.982 416.874C257.081 416.594 256.18 416.314 255.279 416.036C253.612 415.52 251.948 414.999 250.284 414.474C248.688 413.98 247.08 413.523 245.465 413.094C243.353 412.439 243.353 412.439 242.026 411.113C240.907 410.713 239.772 410.358 238.628 410.036C238.025 409.863 237.421 409.69 236.799 409.512C236.336 409.384 235.873 409.256 235.396 409.124C235.614 408.686 235.833 408.249 236.059 407.798C236.715 407.798 237.372 407.798 238.048 407.798C237.911 407.429 237.774 407.059 237.633 406.679C237.314 404.709 237.928 403.632 238.711 401.83C245.356 401.184 251.053 403.102 257.277 405.145C257.029 404.822 256.78 404.499 256.524 404.166C248.588 393.172 248.406 380.341 248.657 367.35C248.09 367.278 247.524 367.206 246.94 367.132C241.346 366.385 235.937 365.34 230.464 363.951C229.664 363.749 228.865 363.547 228.041 363.339C215.213 360.01 202.778 355.488 190.969 349.446C192.965 348.827 193.533 348.754 195.61 349.446C195.61 349.009 195.61 348.571 195.61 348.12C196.048 348.12 196.486 348.12 196.937 348.12C196.718 347.026 196.499 345.932 196.273 344.805C197.368 345.023 198.462 345.242 199.589 345.468C199.808 344.155 200.027 342.842 200.252 341.489C199.158 340.833 198.064 340.176 196.937 339.5C198.263 338.837 198.263 338.837 199.502 339.246C200.003 339.474 200.503 339.703 201.019 339.938C201.862 340.314 201.862 340.314 202.722 340.698C203.633 341.11 203.633 341.11 204.562 341.531C218.911 347.819 233.929 351.846 249.32 354.751C249.385 354.206 249.45 353.66 249.517 353.098C250.398 346.525 251.784 338.78 257.329 334.444C262.263 331.046 265.868 329.973 271.824 330.01C272.757 330.014 272.757 330.014 273.708 330.019C278.858 330.106 283.486 330.736 288.442 332.206C289.148 332.409 289.854 332.611 290.582 332.82C299.835 335.8 309.069 340.374 316.458 346.711C318.921 348.87 318.921 348.87 321.977 349.462C323.55 348.947 324.806 348.279 326.238 347.457C329.415 346.15 332.333 345.922 335.729 345.965C336.228 345.969 336.728 345.973 337.242 345.977C342.766 346.076 347.071 347.246 352.099 349.446C352.582 349.045 353.066 348.643 353.565 348.229C368.478 336.144 394.981 321.917 413.846 333.035Z" fill="#794F2E"/>
<path d="M236.722 621.975C237.121 622.096 237.519 622.217 237.93 622.341C256.649 627.992 275.191 631.538 294.617 633.661C295.36 633.743 296.102 633.825 296.867 633.909C305.99 634.872 315.065 635.34 324.236 635.348C325.156 635.35 326.076 635.352 326.996 635.354C328.912 635.358 330.829 635.36 332.745 635.359C334.663 635.359 336.582 635.364 338.501 635.373C354.684 635.448 370.867 635.107 386.911 632.75C387.688 632.639 388.466 632.527 389.267 632.413C402.182 630.49 414.894 627.704 427.439 624.096C429.719 623.448 431.97 622.963 434.321 622.638C434.959 623.49 434.959 623.49 435.609 624.36C445.257 637.17 457.696 645.98 473.443 649.824C474.237 650.022 475.03 650.219 475.847 650.423C497.451 655.148 520.208 649.498 538.646 637.784C543.041 634.905 547.228 631.718 550.965 628.012C552.867 626.162 554.293 625.018 556.992 624.793C563.632 625.293 570.505 628.639 575.191 633.281C576.624 635.077 577.089 636.252 576.885 638.552C573.825 644.623 567.311 646.821 561.219 648.871C505.668 666.718 443.467 666.766 104.413 645.724C100.225 643.529 96.9453 641.318 95.2358 636.811C95.49 634.524 95.9265 633.252 97.5256 631.576C102.214 627.964 109.037 624.688 115.066 624.829C118.027 625.663 119.866 627.919 122.016 630.03C136.793 644.47 159.205 652.245 179.625 652.047C197.597 651.515 215.911 645.023 228.669 632.03C231.618 628.85 234.316 625.583 236.722 621.975Z" fill="#FAD4A2"/>
<path d="M480.504 350.462C482.277 351.569 483.73 352.781 485.255 354.212C487.204 356.028 489.164 357.816 491.181 359.556C500.234 367.457 508.306 376.091 515.218 385.916C515.514 386.329 515.81 386.742 516.115 387.168C527.716 403.434 537.401 423.963 537.763 444.268C537.782 444.924 537.782 444.924 537.801 445.594C538.318 464.625 534.158 481.731 521.186 495.988C509.815 507.871 492.119 516.29 475.534 516.738C465.114 516.838 455.855 514.679 448.039 507.385C442.035 501.03 440.541 493.969 440.748 485.49C441.119 478.608 444.829 473.456 449.647 468.763C457.628 461.882 468.139 457.858 478.297 455.53C478.774 455.419 479.25 455.309 479.741 455.195C481.073 454.895 482.41 454.616 483.747 454.338C486.398 453.429 487.62 452.415 489.357 450.235C489.855 447.858 489.855 447.858 489.357 445.594C488.334 444.344 488.334 444.344 486.705 443.605C484.373 443.508 484.373 443.508 481.898 443.812C481.06 443.891 480.222 443.971 479.359 444.053C478.4 444.159 478.4 444.159 477.422 444.268C477.405 443.643 477.389 443.018 477.372 442.375C477.308 440.023 477.242 437.671 477.175 435.319C477.147 434.308 477.119 433.296 477.092 432.285C477.601 420.162 477.601 420.162 472.78 409.787C468.95 409.523 465.85 410.062 462.171 411.113C461.027 408.825 459.883 406.537 458.739 404.249C458.534 403.845 458.329 403.44 458.118 403.024C457.565 401.903 457.055 400.761 456.548 399.618C455.43 397.658 454.939 397.307 452.888 396.525C448.315 396.318 443.736 397.991 439.421 399.307C438.726 399.514 438.032 399.721 437.316 399.934C435.114 400.589 432.915 401.25 430.716 401.913C427.803 402.791 424.889 403.662 421.974 404.529C421.303 404.733 420.633 404.938 419.942 405.148C419.324 405.332 418.706 405.516 418.069 405.705C417.525 405.87 416.98 406.034 416.419 406.203C415.092 406.472 415.092 406.472 413.766 405.809C414.07 405.382 414.374 404.956 414.688 404.516C422.063 393.654 422.625 380.762 423.712 368.013C425.149 367.654 426.585 367.294 428.022 366.935C428.492 366.817 428.962 366.698 429.446 366.576C432.279 365.862 435.117 365.171 437.963 364.508C450.762 361.485 463.711 357.885 475.326 351.576C477.233 350.582 478.357 350.031 480.504 350.462Z" fill="#FCDAAD"/>
<path d="M193.173 350.308C194.933 350.769 196.486 351.361 198.146 352.101C214.525 359.252 231.234 363.657 248.657 367.35C248.697 368.15 248.697 368.15 248.737 368.967C249.43 382.347 250.251 394.274 257.94 405.809C253.079 404.691 248.312 403.344 243.544 401.884C242.972 401.71 242.4 401.535 241.811 401.355C239.424 400.624 237.039 399.892 234.655 399.153C232.895 398.608 231.133 398.07 229.371 397.533C228.836 397.365 228.301 397.197 227.75 397.024C222.718 395.483 222.718 395.483 217.774 396.764C215.444 399.301 214.301 402.159 212.975 405.311C212.705 405.932 212.436 406.552 212.158 407.192C211.496 408.717 210.844 410.245 210.198 411.776C209.753 411.637 209.307 411.497 208.848 411.353C208.259 411.171 207.669 410.99 207.061 410.802C206.479 410.622 205.897 410.441 205.297 410.255C202.725 409.559 200.921 409.427 198.263 409.787C196.169 411.302 195.141 412.279 194.543 414.815C194.215 417.686 194.13 420.529 194.074 423.417C194.054 424.313 194.054 424.313 194.033 425.228C193.989 427.126 193.95 429.025 193.911 430.923C193.882 432.215 193.854 433.506 193.824 434.798C193.754 437.954 193.686 441.111 193.621 444.268C192.998 444.16 192.375 444.052 191.733 443.941C189.953 443.654 188.331 443.515 186.534 443.522C186.039 443.52 185.545 443.518 185.035 443.516C183.541 443.555 183.541 443.555 181.686 444.268C181.327 448.54 181.327 448.54 183.012 452.225C186.963 453.856 190.993 454.998 195.113 456.12C207.568 459.611 219.267 464.567 226.607 475.808C228.803 480.07 229.784 483.767 229.718 488.57C229.712 489.093 229.706 489.616 229.7 490.155C229.461 498.256 226.086 504.893 220.173 510.475C212.337 516.334 202.114 517.577 192.687 516.333C175.192 513.683 157.445 505.326 146.223 491.277C134.5 475.24 131.838 455.531 134.21 436.114C134.922 431.891 135.996 427.801 137.259 423.712C137.411 423.205 137.564 422.698 137.721 422.176C139.917 415.025 142.997 408.404 146.542 401.83C146.756 401.429 146.969 401.028 147.189 400.616C157.145 382.075 172.244 364.825 188.979 352.099C189.414 351.706 189.848 351.314 190.295 350.91C191.632 350.109 191.632 350.109 193.173 350.308Z" fill="#FCDAAD"/>
<path d="M376.458 228.997C378.85 231.009 381.054 233.186 383.264 235.395C383.752 235.83 384.241 236.264 384.745 236.711C388.878 240.459 391.337 245.093 393.873 249.983C394.295 250.786 394.295 250.786 394.725 251.605C399.907 262.284 400.078 275.889 396.525 287.116C390.342 302.761 379.236 313.305 364.034 320.146C359.511 322.106 354.969 323.388 350.109 324.249C349.504 324.363 348.899 324.476 348.276 324.593C338.3 326.076 325.905 325.937 316.292 322.923C315.875 322.795 315.457 322.666 315.027 322.534C299.99 317.793 285.622 307.796 278.205 293.614C272.304 281.875 271.642 269.31 275.181 256.614C280.948 240.724 292.723 229.1 307.775 221.971C329.437 211.991 357.33 214.119 376.458 228.997Z" fill="#FEEECC"/>
<path d="M205.557 423.049C208.748 423.581 211.245 424.236 214.244 425.331C214.688 425.492 215.132 425.653 215.59 425.82C217.027 426.343 218.461 426.871 219.896 427.4C220.891 427.764 221.886 428.129 222.882 428.493C228.606 430.593 234.293 432.767 239.935 435.082C243.459 436.515 247.01 437.811 250.61 439.041C258.877 441.901 267.045 445.016 275.222 448.122C278.327 449.299 281.433 450.474 284.539 451.65C285.287 451.933 286.035 452.216 286.806 452.508C293.306 454.966 299.819 457.388 306.348 459.765C306.973 459.994 307.598 460.223 308.242 460.459C308.765 460.649 309.288 460.839 309.826 461.034C310.987 461.508 310.987 461.508 311.65 462.171C311.715 463.564 311.731 464.959 311.73 466.354C311.731 467.017 311.731 467.017 311.732 467.693C311.733 469.185 311.729 470.676 311.726 472.168C311.725 473.233 311.726 474.298 311.726 475.363C311.726 478.263 311.722 481.163 311.718 484.063C311.713 487.091 311.713 490.118 311.712 493.146C311.71 498.883 311.705 504.62 311.698 510.357C311.691 516.887 311.687 523.416 311.684 529.946C311.677 543.382 311.665 556.818 311.65 570.254C310.607 569.946 309.563 569.636 308.52 569.326C307.939 569.153 307.358 568.981 306.759 568.804C304.147 567.994 301.601 567.034 299.049 566.053C298.5 565.844 297.951 565.634 297.385 565.419C295.605 564.74 293.826 564.057 292.048 563.374C290.796 562.895 289.544 562.416 288.292 561.937C273.471 556.258 258.709 550.437 243.99 544.497C242.956 544.079 241.921 543.662 240.885 543.246C235.297 540.996 229.74 538.683 224.224 536.263C223.722 536.045 223.22 535.827 222.703 535.603C218.003 533.519 218.003 533.519 216.166 531.795C215.907 530.15 215.907 530.15 216 528.355C216.024 527.758 216.048 527.16 216.073 526.545C216.119 525.861 216.119 525.861 216.166 525.164C216.792 524.866 217.417 524.567 218.062 524.26C228.664 519.028 236.337 512.169 240.286 500.783C243.362 490.412 242.61 480.551 237.592 470.957C230.406 457.929 218.637 452.526 205.557 446.92C205.557 439.042 205.557 431.165 205.557 423.049Z" fill="#F5895B"/>
<path d="M464.823 423.712C464.823 431.589 464.823 439.467 464.823 447.583C461.322 448.896 457.821 450.209 454.214 451.562C452.355 452.495 450.68 453.359 448.951 454.463C448.542 454.718 448.134 454.973 447.713 455.237C438.772 460.958 432.407 469.022 429.68 479.411C427.271 490.912 429.369 501.371 435.647 511.239C439.975 517.655 447.173 521.654 454.214 524.501C454.214 527.127 454.214 529.753 454.214 532.458C438.036 541.104 420.471 547.129 403.388 553.737C399.244 555.341 395.1 556.948 390.958 558.557C389.95 558.949 388.943 559.34 387.935 559.73C380.66 562.554 373.403 565.421 366.177 568.369C365.247 568.746 365.247 568.746 364.298 569.13C363.763 569.348 363.227 569.567 362.675 569.793C361.382 570.254 361.382 570.254 360.056 570.254C360.056 534.805 360.056 499.357 360.056 462.834C363.912 461.12 367.706 459.496 371.654 458.045C372.187 457.847 372.719 457.65 373.267 457.447C374.419 457.02 375.571 456.594 376.724 456.168C378.587 455.481 380.448 454.791 382.31 454.101C384.989 453.108 387.669 452.116 390.349 451.124C397.426 448.503 404.497 445.867 411.569 443.232C412.277 442.968 412.985 442.704 413.714 442.433C423.543 438.771 433.369 435.102 443.19 431.42C443.73 431.218 444.271 431.016 444.827 430.807C446.359 430.233 447.891 429.659 449.422 429.084C450.128 428.819 450.128 428.819 450.848 428.549C453.06 427.718 455.267 426.879 457.468 426.019C458.249 425.714 459.03 425.409 459.835 425.095C460.514 424.827 461.193 424.559 461.893 424.283C463.497 423.712 463.497 423.712 464.823 423.712Z" fill="#F5895B"/>
<path d="M353.873 235.263C357.893 238.565 359.747 241.324 360.346 246.544C360.053 252.396 357.137 256.919 353.192 261.075C349.989 263.824 345.816 266.561 341.489 266.561C341.489 274 341.489 281.44 341.489 289.106C355.297 287.683 355.297 287.683 366.2 279.853C367.101 278.471 367.976 277.07 368.816 275.65C369.978 273.891 370.832 272.9 372.654 271.865C375.088 271.908 376.654 272.047 378.622 273.523C379.693 276.199 379.386 278.402 378.622 281.148C374.729 289.956 367.311 294.242 358.73 297.726C343.063 303.264 324.32 302.614 308.998 296.399C301.806 292.922 295.867 288.134 293.084 280.485C292.507 278.102 292.164 276.637 292.918 274.31C293.747 273.191 293.747 273.191 295.736 271.865C297.933 271.741 297.933 271.741 300.378 272.528C301.546 273.889 302.426 275.318 303.354 276.851C307.002 282.837 311.294 285.67 318.002 287.611C321.996 288.522 325.347 288.442 329.554 288.442C329.773 281.221 329.991 274 330.217 266.561C328.248 266.232 328.248 266.232 326.238 265.897C320.378 263.498 316.098 259.565 313.458 253.827C311.915 250.011 311.388 245.726 312.914 241.811C315.883 236.816 320.184 233.993 325.575 232.08C334.439 230.052 346.143 230.061 353.873 235.263Z" fill="#79502E"/>
<path d="M321.931 395.324C322.477 395.501 323.023 395.679 323.586 395.862C324.096 396.027 324.607 396.192 325.132 396.362C325.946 396.628 325.946 396.628 326.777 396.898C333.243 398.672 340.398 398.686 346.719 396.362C349.683 395.305 349.683 395.305 351.436 395.199C353.272 396.253 353.272 396.253 355.29 397.81C365.554 405.36 377.213 409.804 389.895 411.113C390.572 411.187 391.25 411.26 391.949 411.336C393.473 411.495 394.998 411.643 396.525 411.776C395.149 413.153 394.424 413.48 392.63 414.113C392.095 414.307 391.559 414.5 391.008 414.7C390.422 414.911 389.835 415.123 389.231 415.34C370.597 422.287 351.52 431.145 337.811 446.016C336.848 446.92 336.848 446.92 335.521 446.92C334.685 445.923 334.685 445.923 333.739 444.558C330.358 439.963 326.637 436.662 321.97 433.41C321.571 433.13 321.172 432.85 320.762 432.562C312.373 426.863 303.474 422.567 294.079 418.822C293.085 418.419 292.093 418.016 291.1 417.612C286.699 415.828 282.284 414.095 277.833 412.439C277.833 412.221 277.833 412.002 277.833 411.776C279.061 411.63 279.061 411.63 280.314 411.481C294.608 409.645 307.463 405.368 318.701 396.108C320.271 395.199 320.271 395.199 321.931 395.324Z" fill="#FBD7A4"/>
<path d="M324.249 465.486C324.749 465.533 325.248 465.58 325.762 465.628C326.746 465.719 326.746 465.719 327.75 465.812C328.4 465.873 329.049 465.933 329.719 465.996C331.769 466.168 333.796 466.238 335.853 466.232C336.503 466.234 337.152 466.236 337.822 466.237C341.041 466.116 344.249 465.778 347.457 465.486C347.457 501.591 347.457 537.696 347.457 574.896C339.445 577.081 332.897 577.859 324.912 575.559C324.249 574.896 324.249 574.896 324.168 573.105C324.168 572.299 324.169 571.493 324.169 570.662C324.169 570.215 324.168 569.767 324.168 569.307C324.167 567.797 324.17 566.287 324.174 564.777C324.174 563.699 324.174 562.621 324.174 561.543C324.173 558.607 324.177 555.671 324.182 552.735C324.186 549.671 324.186 546.606 324.187 543.541C324.189 537.734 324.195 531.926 324.201 526.119C324.209 519.509 324.212 512.899 324.216 506.289C324.223 492.688 324.234 479.087 324.249 465.486Z" fill="#F5895B"/>
<path d="M273.067 342.442C273.895 342.46 273.895 342.46 274.74 342.477C288.365 342.985 303.936 348.915 313.549 358.883C315.02 361.172 314.715 363.646 314.551 366.272C314.524 367.099 314.524 367.099 314.497 367.943C314.45 369.293 314.379 370.642 314.303 371.991C313.56 372.011 313.56 372.011 312.802 372.031C310.567 372.094 308.332 372.167 306.097 372.24C305.317 372.26 304.538 372.281 303.735 372.302C302.991 372.328 302.247 372.353 301.481 372.38C300.794 372.401 300.106 372.421 299.398 372.443C297.614 372.495 297.614 372.495 296.399 373.98C296.614 376.365 296.614 376.365 297.062 378.622C299.303 379.594 301.33 380.187 303.748 380.513C304.674 380.641 304.674 380.641 305.619 380.772C306.255 380.856 306.892 380.939 307.547 381.026C308.521 381.159 308.521 381.159 309.515 381.295C311.11 381.513 312.706 381.727 314.303 381.938C314.631 383.25 314.631 383.25 314.966 384.59C308.089 391.78 298.699 396.23 289.105 398.515C288.51 398.663 287.916 398.81 287.303 398.963C281.022 400.321 273.561 401.266 267.887 397.852C263.233 394.418 262.299 388.626 261.256 383.264C260.657 379.219 260.464 375.206 260.468 371.121C260.469 370.556 260.469 369.991 260.47 369.408C260.509 365.206 260.765 361.047 261.173 356.865C261.225 356.323 261.277 355.781 261.33 355.223C262.184 347.328 262.184 347.328 264.952 344.206C267.511 342.319 269.98 342.337 273.067 342.442Z" fill="#F5895B"/>
<path d="M398.805 341.904C399.294 341.879 399.783 341.854 400.288 341.829C402.91 341.787 404.635 341.984 406.744 343.618C412.362 349.669 411.353 360.541 411.32 368.261C411.32 368.71 411.319 369.158 411.318 369.62C411.238 389.736 411.238 389.736 404.773 397.147C401.784 399.676 399.829 400.077 396.028 400.048C395.276 400.043 395.276 400.043 394.51 400.038C381.873 399.781 367.125 395.144 358.066 385.916C357.491 384.533 357.491 384.533 357.403 383.264C358.926 381.741 359.407 381.709 361.475 381.443C362.294 381.328 362.294 381.328 363.13 381.211C364.275 381.061 365.42 380.913 366.565 380.765C371.687 380.058 371.687 380.058 375.97 377.296C376.136 375.666 376.136 375.666 375.97 373.981C374.219 372.23 373.331 372.454 370.888 372.38C370.144 372.354 369.401 372.329 368.634 372.302C367.855 372.282 367.075 372.261 366.272 372.24C365.095 372.201 365.095 372.201 363.894 372.162C361.952 372.1 360.009 372.043 358.066 371.991C357.27 361.542 357.27 361.542 358.944 358.416C360.342 357.177 361.735 356.317 363.371 355.414C364.013 354.992 364.655 354.57 365.316 354.135C375.521 347.515 386.463 342.14 398.805 341.904Z" fill="#F5895B"/>
<path d="M193.409 85.0744C197.888 88.3547 202.307 92.4899 203.236 98.1782C202.464 102.714 199.035 105.354 195.885 108.438C193.144 111.237 190.752 114.302 188.316 117.366C187.641 118.204 186.965 119.042 186.288 119.879C185.583 120.754 184.877 121.629 184.172 122.505C183.844 122.912 183.515 123.319 183.177 123.738C181.577 125.735 180.043 127.747 178.588 129.851C177.044 131.954 177.044 131.954 175.055 133.28C168.581 134.166 163.718 133.183 158.478 129.302C153.068 124.967 149.44 118.994 148.531 112.062C147.746 103.691 149.86 96.0699 155.162 89.5166C155.479 89.1097 155.796 88.7029 156.123 88.2837C165.97 77.0722 181.592 77.5325 193.409 85.0744Z" fill="#79502F"/>
<path d="M511.156 84.6678C516.961 89.2494 521.721 95.379 522.702 102.911C523.382 111.223 522.413 118.355 516.917 124.95C516.146 125.753 515.359 126.542 514.555 127.313C514.227 127.631 513.898 127.95 513.56 128.279C509.076 132.312 505.162 133.57 499.192 133.633C495.13 132.871 493.002 129.537 490.642 126.401C485.106 119.208 479.154 112.413 472.964 105.778C470.098 102.602 468.967 100.917 469.107 96.5827C469.774 93.2966 471.818 91.1993 474.107 88.8536C474.513 88.4288 474.92 88.0039 475.339 87.5663C485.262 78.0741 499.9 76.9321 511.156 84.6678Z" fill="#79502E"/>
<path d="M297.726 337.511C303.94 338.293 309.04 340.544 313.818 344.621C317.46 348.057 317.46 348.057 322.003 349.475C323.552 348.947 324.843 348.307 326.238 347.457C330.19 345.701 333.985 346.071 338.174 346.794C339.049 347.232 339.924 347.669 340.826 348.12C339.076 349.214 337.325 350.308 335.521 351.436C335.521 350.998 335.521 350.56 335.521 350.109C335.084 350.328 334.646 350.547 334.195 350.772C333.539 351.101 333.539 351.101 332.869 351.436C333.197 353.077 333.197 353.077 333.532 354.751C334.189 354.532 334.845 354.313 335.521 354.088C335.959 354.307 336.397 354.526 336.848 354.751C336.848 355.189 336.848 355.626 336.848 356.077C336.36 356.157 335.872 356.238 335.369 356.321C334.722 356.432 334.075 356.543 333.408 356.657C332.45 356.819 332.45 356.819 331.473 356.984C329.613 357.39 327.981 357.971 326.238 358.729C327.727 358.832 327.727 358.832 329.471 357.735C333.341 356.046 337.742 356.091 341.785 357.175C344.231 358.223 345.189 358.926 346.589 361.273C348.022 364.926 347.745 368.833 347.706 372.696C347.713 373.464 347.721 374.232 347.729 375.023C347.704 382.38 347.704 382.38 345.468 385.253C342.512 387.282 339.729 387.583 336.226 387.532C335.757 387.529 335.287 387.525 334.804 387.521C331.163 387.415 329.019 386.907 326.238 384.59C324.949 382.655 324.612 381.523 324.249 379.285C324.372 380.133 324.495 380.981 324.622 381.855C324.995 384.424 324.995 384.424 324.249 385.916C323.593 385.588 323.593 385.588 322.923 385.253C322.508 383.222 322.508 383.222 322.26 381.274C320.62 381.503 320.62 381.503 318.944 381.938C318.726 382.375 318.507 382.813 318.281 383.264C316.914 383.678 316.914 383.678 315.629 383.927C315.629 383.27 315.629 382.614 315.629 381.938C314.877 381.979 314.125 382.02 313.35 382.062C310.118 382.057 307 381.625 303.818 381.109C303.326 381.036 302.835 380.964 302.328 380.889C299.342 380.372 297.562 379.766 295.736 377.296C295.446 375.597 295.446 375.597 295.736 373.98C296.51 372.897 296.51 372.897 297.726 371.991C299.473 371.765 299.473 371.765 301.546 371.797C302.288 371.803 303.029 371.81 303.793 371.816C304.954 371.841 304.954 371.841 306.138 371.867C306.92 371.876 307.702 371.885 308.507 371.894C310.439 371.918 312.371 371.95 314.303 371.991C314.717 364.795 314.717 364.795 312.453 358.199C310.928 356.849 309.425 355.786 307.672 354.751C307.175 354.43 306.679 354.108 306.167 353.777C305.295 353.22 304.411 352.681 303.512 352.169C302.367 351.436 302.367 351.436 301.497 350.475C299.317 348.471 296.337 347.606 293.638 346.462C291.758 345.468 291.758 345.468 291.095 343.479C291.751 343.041 292.408 342.603 293.084 342.152C292.865 341.715 292.646 341.277 292.421 340.826C293.747 339.5 293.747 339.5 295.736 338.837C296.174 339.056 296.612 339.275 297.062 339.5C297.281 338.844 297.5 338.187 297.726 337.511Z" fill="#7C512F"/>
<path d="M223.46 407.135C227.442 407.461 231.143 408.335 234.981 409.414C235.906 409.672 235.906 409.672 236.85 409.934C239.019 410.542 241.186 411.159 243.353 411.776C244.213 412.02 245.073 412.263 245.934 412.506C266.759 418.402 287.147 425.154 306.47 435.026C307.088 435.338 307.707 435.65 308.344 435.971C316.501 440.241 323.901 446.417 328.891 454.214C328.891 454.652 328.891 455.089 328.891 455.54C321.106 453.797 313.783 451.362 306.346 448.495C305.198 448.058 304.05 447.621 302.902 447.185C300.458 446.257 298.015 445.326 295.572 444.394C289.715 442.16 283.844 439.965 277.974 437.766C275.967 437.015 273.96 436.262 271.953 435.509C261.042 431.417 250.123 427.347 239.198 423.291C238.13 422.894 237.062 422.496 235.994 422.096C233.43 421.138 230.862 420.196 228.28 419.284C227.785 419.106 227.29 418.929 226.78 418.745C225.849 418.411 224.915 418.083 223.979 417.762C222.739 417.314 222.739 417.314 220.808 416.418C219.994 413.976 220.408 413.348 221.388 411.03C221.632 410.441 221.877 409.851 222.129 409.243C222.797 407.798 222.797 407.798 223.46 407.135Z" fill="#FCEDCE"/>
<path d="M260.279 198.763C261.575 199.397 262.729 200.087 263.908 200.915C264.496 201.298 265.084 201.681 265.69 202.075C270.746 206.995 272.71 213.09 272.818 220.02C272.76 226.81 271.262 232.657 266.426 237.639C262.301 241.351 258.556 243.028 253.048 242.897C248.195 242.318 243.921 239.673 240.7 236.059C235.925 229.345 235.106 221.57 236.367 213.54C237.509 208.713 239.398 204.091 243.565 201.159C245.019 200.34 246.472 199.608 247.994 198.926C251.363 197.241 256.747 197.709 260.279 198.763Z" fill="#79502F"/>
<path d="M425.701 200.252C431.323 203.883 433.905 209.05 435.313 215.449C436.57 223.136 435.298 229.714 430.742 236.077C427.637 239.9 423.986 242.345 419.057 242.925C413.352 243.171 409.564 242.169 405.316 238.33C399.696 232.333 398.812 225.135 398.947 217.254C399.228 211.494 401.643 206.213 405.808 202.241C412.071 197.738 418.597 196.746 425.701 200.252Z" fill="#7A502F"/>
<path d="M448.909 407.135C449.465 408.321 450.017 409.51 450.567 410.699C450.875 411.36 451.182 412.022 451.499 412.704C452.225 414.429 452.225 414.429 452.225 415.755C431.164 423.78 410.082 431.761 388.909 439.486C383.743 441.371 378.583 443.271 373.426 445.179C372.736 445.435 372.045 445.69 371.334 445.954C368.545 446.986 365.756 448.018 362.968 449.051C361.023 449.772 359.079 450.492 357.134 451.212C356.55 451.428 355.967 451.645 355.366 451.868C346.536 455.135 346.536 455.135 344.142 454.214C344.686 453.421 345.241 452.635 345.799 451.852C346.107 451.413 346.415 450.975 346.732 450.523C350.248 446.436 354.586 443.289 359.061 440.331C359.58 439.987 360.099 439.644 360.634 439.29C365.12 436.374 369.72 433.894 374.574 431.652C376.032 430.977 377.479 430.283 378.928 429.589C395.665 421.693 413.582 415.972 431.553 411.633C435.79 410.605 439.965 409.419 444.134 408.145C447.457 407.135 447.457 407.135 448.909 407.135Z" fill="#FCEDCE"/>
<path d="M344.393 358.359C347.261 361.117 347.586 364.322 347.721 368.119C347.726 369.644 347.721 371.17 347.706 372.696C347.713 373.464 347.721 374.232 347.729 375.023C347.704 382.38 347.704 382.38 345.468 385.253C342.512 387.282 339.729 387.583 336.226 387.532C335.522 387.527 335.522 387.527 334.804 387.521C331.163 387.415 329.019 386.907 326.238 384.59C324.115 381.405 324.665 377.917 324.666 374.17C324.663 372.79 324.639 371.411 324.614 370.032C324.61 369.147 324.608 368.263 324.606 367.378C324.601 366.578 324.595 365.778 324.59 364.954C324.977 362.254 325.863 360.839 327.564 358.729C332.653 355.549 339.072 355.784 344.393 358.359Z" fill="#F4895C"/>
<path d="M171.739 80.8965C170.413 82.8858 170.413 82.8858 168.424 83.5489C167.622 84.8751 167.622 84.8751 167.098 86.2012C166.879 85.7636 166.66 85.3259 166.435 84.875C165.997 84.875 165.559 84.875 165.108 84.875C165.108 84.4374 165.108 83.9998 165.108 83.5489C164.671 83.5489 164.233 83.5489 163.782 83.5489C164.22 84.643 164.658 85.737 165.108 86.8643C164.452 87.5207 163.796 88.1772 163.119 88.8535C163.557 88.8535 163.994 88.8535 164.445 88.8535C164.445 89.9476 164.445 91.0417 164.445 92.169C165.102 92.3878 165.758 92.6066 166.435 92.8321C167.334 93.4744 168.221 94.1346 169.087 94.8213C168.369 95.2726 168.369 95.2726 167.636 95.7331C164.427 98.7288 162.304 102.641 162.083 107.088C162.293 110.57 163.64 113.581 165.108 116.703C165.464 117.469 165.82 118.235 166.186 119.024C167.025 120.733 167.025 120.733 168.424 122.008C167.347 123.141 166.24 124.245 165.108 125.323C164.671 125.323 164.233 125.323 163.782 125.323C162.65 126.401 161.543 127.506 160.467 128.639C156.027 126.76 152.263 123.164 150.344 118.752C147.742 110.419 147.813 103.613 151.184 95.4844C152.325 93.316 153.622 91.4199 155.162 89.5166C155.479 89.1098 155.796 88.7029 156.123 88.2837C158.522 85.5525 161.361 83.8724 164.57 82.2227C165.173 81.909 165.173 81.909 165.788 81.5891C167.987 80.5233 169.424 79.8856 171.739 80.8965Z" fill="#794F2E"/>
<path d="M185.001 94.1582C186.675 95.3674 188.179 96.6824 189.643 98.1368C189.241 100.25 188.561 101.548 187.239 103.234C186.882 103.694 186.526 104.154 186.158 104.627C185.776 105.111 185.394 105.595 185.001 106.094C184.215 107.104 183.429 108.114 182.644 109.124C182.062 109.87 182.062 109.87 181.469 110.63C179.466 113.215 177.53 115.849 175.588 118.48C174.582 119.774 173.659 120.957 172.402 122.008C169.485 121.931 167.819 120.688 165.771 118.692C162.681 114.302 160.972 109.489 161.793 104.105C163.654 98.3666 166.918 95.4173 172.071 92.5834C176.61 91.4486 180.835 92.1271 185.001 94.1582Z" fill="#A9784C"/>
<path d="M500.63 80.8965C499.731 80.9336 499.731 80.9336 498.814 80.9716C498.032 81.0152 497.25 81.0588 496.444 81.1037C495.667 81.1421 494.89 81.1806 494.09 81.2202C491.945 81.5702 491.289 81.8406 490.021 83.5488C490.947 85.8996 490.947 85.8996 492.01 88.1904C491.572 88.4092 491.134 88.628 490.684 88.8535C491.121 89.2911 491.559 89.7288 492.01 90.1797C491.572 90.1797 491.134 90.1797 490.684 90.1797C491.34 91.2738 491.997 92.3678 492.673 93.4951C492.084 93.7246 492.084 93.7246 491.484 93.9587C488.089 95.3598 485.79 96.6752 483.39 99.4629C484.347 102.422 485.998 104.468 488.031 106.757C490.064 109.045 491.716 111.092 492.673 114.051C491.021 114.506 489.769 114.714 488.031 114.714C488.031 117.121 488.031 119.528 488.031 122.008C485.671 119.677 483.388 117.289 481.152 114.838C480.834 114.49 480.516 114.142 480.188 113.784C478.02 111.406 475.862 109.021 473.777 106.57C472.808 105.428 472.808 105.428 471.762 104.457C469.837 102.526 469.176 100.91 468.968 98.261C469.191 94.1193 471.298 91.7313 474.106 88.8535C474.513 88.4287 474.92 88.0039 475.339 87.5662C480.9 82.2464 493.322 76.0242 500.63 80.8965Z" fill="#794F2E"/>
<path d="M501.617 94.0494C505.32 96.1925 508.013 99.642 509.913 103.441C510.748 109.339 509.161 113.772 505.935 118.692C504.638 120.24 503.73 120.967 501.956 122.008C498.668 121.768 497.119 119.188 495.089 116.859C492.312 113.518 489.744 110.013 487.169 106.516C485.734 104.568 484.254 102.665 482.727 100.789C483.517 97.7163 485.025 96.5421 487.531 94.8317C491.461 92.5562 497.396 92.6315 501.617 94.0494Z" fill="#A9784C"/>
<path d="M116.703 58.3516C117.36 58.3516 118.016 58.3516 118.692 58.3516C118.692 58.7892 118.692 59.2268 118.692 59.6777C118.255 59.6777 117.817 59.6777 117.366 59.6777C117.188 60.1427 117.011 60.6077 116.827 61.0868C115.995 63.1026 115.044 65.0307 114.051 66.9717C114.707 66.534 115.364 66.0964 116.04 65.6455C117.366 66.3086 117.366 66.3086 117.864 67.5933C117.946 68.2703 117.946 68.2703 118.029 68.9609C117.592 69.3986 117.154 69.8362 116.703 70.2871C117.36 70.2871 118.016 70.2871 118.692 70.2871C118.474 71.1624 118.255 72.0377 118.029 72.9395C118.686 72.7206 119.342 72.5018 120.019 72.2764C120.675 72.4952 121.332 72.714 122.008 72.9395C123.321 71.1889 124.634 69.4384 125.986 67.6348C125.986 70.2462 125.032 71.2324 123.583 73.3953C116.593 84.3517 114.639 96.621 114.051 109.409C113.832 109.409 113.613 109.409 113.388 109.409C113.388 105.908 113.388 102.407 113.388 98.7998C112.294 98.581 111.2 98.3622 110.072 98.1367C109.853 97.6991 109.635 97.2614 109.409 96.8105C108.753 97.1388 108.753 97.1388 108.083 97.4736C107.864 97.036 107.645 96.5984 107.42 96.1475C106.982 96.1475 106.545 96.1475 106.094 96.1475C105.875 96.8039 105.656 97.4604 105.431 98.1367C104.774 98.1367 104.118 98.1367 103.441 98.1367C103.133 106.558 103.403 114.204 105.578 122.368C106.094 124.66 106.094 124.66 105.431 126.649C104.993 126.431 104.555 126.212 104.105 125.986C103.583 124.409 103.14 122.869 102.737 121.262C102.622 120.829 102.507 120.397 102.389 119.951C97.7241 101.937 101.568 82.8997 110.735 66.9717C111.737 65.3452 112.777 63.7489 113.844 62.1643C114.096 61.7838 114.348 61.4033 114.609 61.0112C115.343 59.9575 115.343 59.9575 116.703 58.3516ZM116.703 73.6025C116.922 74.259 117.141 74.9154 117.366 75.5918C117.585 74.9353 117.804 74.2789 118.029 73.6025C117.592 73.6025 117.154 73.6025 116.703 73.6025ZM120.019 71.6133C121.345 72.2764 121.345 72.2764 121.345 72.2764L120.019 71.6133ZM109.409 98.7998C110.735 99.4629 110.735 99.4629 110.735 99.4629L109.409 98.7998Z" fill="#784F2E"/>
<path d="M192.958 517.207C195.803 517.207 198.647 517.207 201.578 517.207C198.926 519.196 198.926 519.196 198.263 519.196C198.263 519.853 198.263 520.509 198.263 521.186C198.7 521.186 199.138 521.186 199.589 521.186C199.671 521.705 199.753 522.225 199.838 522.76C200.113 524.594 200.113 524.594 201.578 525.827C201.359 526.046 201.14 526.265 200.915 526.49C202.556 526.818 202.556 526.818 204.23 527.153C204.255 527.739 204.28 528.324 204.306 528.928C204.589 534.108 205.281 538.793 206.883 543.73C206.226 543.73 205.57 543.73 204.894 543.73C204.675 544.606 204.456 545.481 204.23 546.383C204.012 545.726 203.793 545.07 203.567 544.394C203.39 544.804 203.212 545.214 203.029 545.637C202.241 547.046 202.241 547.046 200.252 548.372C200.033 549.029 199.814 549.685 199.589 550.361C199.151 550.361 198.714 550.361 198.263 550.361C198.112 549.992 197.962 549.623 197.807 549.242C196.961 547.594 196.961 547.594 195.362 546.134C192.669 543.442 190.758 540.946 190.306 537.1C190.743 537.1 191.181 537.1 191.632 537.1C191.194 536.224 190.757 535.349 190.306 534.447C189.43 534.666 188.555 534.885 187.653 535.11C187.653 534.673 187.653 534.235 187.653 533.784C188.091 533.784 188.529 533.784 188.979 533.784C188.761 533.128 188.542 532.471 188.316 531.795C189.848 530.482 191.38 529.169 192.958 527.816C193.177 528.473 193.396 529.129 193.621 529.806C194.278 529.368 194.934 528.93 195.61 528.479C195.392 527.823 195.173 527.167 194.947 526.49C193.611 526.004 193.611 526.004 192.295 525.827C191.723 524.224 191.557 523.407 192.088 521.766C193.103 520.315 193.984 519.847 195.61 519.196C195.829 519.415 196.048 519.634 196.273 519.859C196.492 519.422 196.711 518.984 196.937 518.533C194.967 518.205 194.967 518.205 192.958 517.87C192.958 517.651 192.958 517.432 192.958 517.207Z" fill="#7A502E"/>
<path d="M540.415 183.675C541.072 183.675 541.728 183.675 542.404 183.675C545.217 193.317 547.517 202.919 549.035 212.851C549.114 213.346 549.192 213.841 549.273 214.351C551.317 227.726 551.16 242.217 549.781 255.661C549.729 256.169 549.677 256.677 549.624 257.201C549.455 258.565 549.455 258.565 549.035 260.593C548.379 260.921 548.379 260.921 547.709 261.256C547.274 262.932 547.274 262.932 547.046 264.571C546.827 264.571 546.608 264.571 546.383 264.571C546.479 263.3 546.576 262.029 546.673 260.759C546.759 259.629 546.845 258.5 546.93 257.37C547.014 256.342 547.11 255.314 547.213 254.287C547.739 248.791 547.832 243.33 547.832 237.814C547.833 236.28 547.845 234.745 547.858 233.211C547.878 228.07 547.699 223.005 547.121 217.894C547.069 217.425 547.018 216.957 546.965 216.474C546.669 214.122 546.233 212.256 545.057 210.198C544.807 209.099 544.579 207.995 544.394 206.883C543.888 207.389 543.382 207.895 542.86 208.416C541.603 209.673 540.346 210.93 539.089 212.188C539.417 210.218 539.417 210.218 539.752 208.209C539.342 208.647 538.931 209.084 538.509 209.535C537.1 210.861 537.1 210.861 535.773 210.861C535.773 212.174 535.773 213.487 535.773 214.84C535.555 214.84 535.336 214.84 535.11 214.84C534.005 209.314 532.9 203.788 531.795 198.263C531.642 197.675 531.489 197.088 531.331 196.482C531.132 194.947 531.132 194.947 532.458 192.958C532.818 193.157 533.178 193.356 533.548 193.562C534.023 193.814 534.497 194.066 534.986 194.326C535.69 194.706 535.69 194.706 536.408 195.095C537.86 195.811 537.86 195.811 539.752 194.947C539.971 195.385 540.19 195.823 540.415 196.273C539.977 196.711 539.54 197.149 539.089 197.6C539.527 197.6 539.964 197.6 540.415 197.6C541.493 198.594 541.493 198.594 542.404 199.589C543.793 195.422 542.148 191.148 540.827 187.122C540.415 185.664 540.415 185.664 540.415 183.675Z" fill="#79502F"/>
<path d="M539.752 404.482C541.741 405.146 541.741 405.146 542.401 406.268C542.592 406.755 542.783 407.242 542.979 407.743C543.304 408.571 543.304 408.571 543.634 409.415C543.858 410.016 544.081 410.618 544.311 411.238C544.543 411.855 544.775 412.472 545.014 413.108C549.165 424.544 551.147 436.014 551.111 448.137C551.107 449.569 551.111 451 551.115 452.432C551.121 461.639 551.121 461.639 550.361 465.486C549.705 466.143 549.705 466.143 549.035 466.812C548.573 467.686 548.127 468.569 547.709 469.465C547.802 468.263 547.9 467.061 547.999 465.859C548.053 465.19 548.107 464.521 548.162 463.831C548.372 462.171 548.372 462.171 549.035 461.508C549.104 459.595 549.128 457.702 549.118 455.789C549.116 455.207 549.114 454.626 549.111 454.026C549.076 449.307 548.959 444.591 548.786 439.875C548.756 438.879 548.756 438.879 548.725 437.863C548.699 437.246 548.673 436.63 548.647 435.995C548.626 435.447 548.605 434.899 548.583 434.335C548.483 432.846 548.483 432.846 547.046 431.669C545.664 431.779 545.664 431.779 544.394 432.332C544.175 432.77 543.956 433.207 543.73 433.658C543.402 432.674 543.402 432.674 543.067 431.669C543.505 431.231 543.943 430.794 544.394 430.343C544.831 430.343 545.269 430.343 545.72 430.343C546.048 430.015 546.048 430.015 546.383 429.68C545.836 429.16 545.289 428.64 544.725 428.105C543.067 426.364 543.067 426.364 543.067 425.038C542.63 425.038 542.192 425.038 541.741 425.038C540.995 421.888 540.995 421.888 541.741 420.396C541.304 420.178 540.866 419.959 540.415 419.733C540.415 418.42 540.415 417.108 540.415 415.755C540.853 415.755 541.29 415.755 541.741 415.755C542.636 413.33 542.157 412.061 541.12 409.746C539.752 406.663 539.752 406.663 539.752 404.482Z" fill="#784F2E"/>
<path d="M192.958 517.207C195.803 517.207 198.647 517.207 201.578 517.207C198.926 519.196 198.926 519.196 198.263 519.196C198.263 519.853 198.263 520.509 198.263 521.186C198.7 521.186 199.138 521.186 199.589 521.186C199.671 521.705 199.753 522.225 199.838 522.76C200.113 524.594 200.113 524.594 201.578 525.827C201.359 526.046 201.14 526.265 200.915 526.49C202.009 526.709 203.103 526.928 204.23 527.153C204.559 532.405 204.559 532.405 204.894 537.763C202.74 535.609 200.966 533.761 199.174 531.38C196.451 527.551 196.451 527.551 192.295 525.827C191.722 524.224 191.557 523.407 192.088 521.766C193.103 520.315 193.984 519.847 195.61 519.196C195.829 519.415 196.048 519.634 196.273 519.859C196.492 519.422 196.711 518.984 196.937 518.533C194.967 518.205 194.967 518.205 192.958 517.87C192.958 517.651 192.958 517.432 192.958 517.207Z" fill="#7C5230"/>
<path d="M207.546 525.827C208.202 526.484 208.859 527.14 209.535 527.816C209.097 528.692 208.66 529.567 208.209 530.469C207.99 530.469 207.771 530.469 207.546 530.469C208.161 530.612 208.161 530.612 208.789 530.759C210.198 531.132 210.198 531.132 211.524 531.795C211.962 531.576 212.4 531.357 212.85 531.132C212.413 529.819 211.975 528.506 211.524 527.153C212.837 526.716 214.15 526.278 215.503 525.827C215.489 526.648 215.475 527.468 215.461 528.314C215.458 530.246 215.549 531.934 216.166 533.784C215.291 533.565 214.415 533.347 213.514 533.121C213.732 534.215 213.951 535.309 214.177 536.437C213.958 535.999 213.739 535.561 213.514 535.11C213.076 536.423 212.638 537.736 212.187 539.089C211.75 539.089 211.312 539.089 210.861 539.089C210.861 539.527 210.861 539.964 210.861 540.415C209.33 540.196 207.798 539.977 206.22 539.752C205.414 537.217 205.411 534.678 205.391 532.044C205.377 531.592 205.363 531.141 205.349 530.676C205.339 529.365 205.339 529.365 205.557 527.153C206.213 526.716 206.869 526.278 207.546 525.827Z" fill="#7C5231"/>
<path d="M105.431 519.859C105.868 520.516 106.306 521.172 106.757 521.849C106.538 522.286 106.319 522.724 106.094 523.175C106.531 523.394 106.969 523.612 107.42 523.838C107.834 525.537 107.834 525.537 108.083 527.153C107.673 527.235 107.262 527.317 106.84 527.402C105.304 527.732 105.304 527.732 104.104 529.143C103.448 529.143 102.792 529.143 102.115 529.143C101.896 529.799 101.678 530.455 101.452 531.132C101.89 531.132 102.327 531.132 102.778 531.132C103.398 533.128 103.471 533.696 102.778 535.773C101.079 536.892 101.079 536.892 99.4629 537.763C99.2441 537.106 99.0253 536.45 98.7998 535.773C98.581 536.649 98.3622 537.524 98.1367 538.426C97.0426 537.769 95.9485 537.113 94.8213 536.437C95.4508 534.212 96.0795 531.999 96.8105 529.806C97.0294 530.024 97.2482 530.243 97.4736 530.469C97.9532 529.762 97.9532 529.762 98.4424 529.042C98.8612 528.432 99.28 527.823 99.7115 527.195C100.127 526.587 100.542 525.979 100.97 525.353C102.115 523.838 102.115 523.838 103.441 523.175C103.905 522.302 104.348 521.417 104.768 520.522C104.986 520.304 105.205 520.085 105.431 519.859Z" fill="#7C5331"/>
<path d="M373.4 272.445C374.029 272.473 374.658 272.5 375.307 272.528C374.992 272.761 374.678 272.993 374.353 273.233C373.107 274.542 373.107 274.542 373.069 276.797C372.654 279.159 372.654 279.159 370.955 280.775C370.155 281.288 370.155 281.288 369.339 281.812C369.558 282.687 369.777 283.562 370.002 284.464C369.564 284.464 369.127 284.464 368.676 284.464C368.676 284.902 368.676 285.339 368.676 285.79C369.113 286.009 369.551 286.228 370.002 286.453C368.47 286.672 366.938 286.891 365.36 287.116C365.579 285.803 365.798 284.49 366.023 283.138C364.662 284.359 364.662 284.359 364.034 285.79C363.159 285.352 362.284 284.915 361.382 284.464C361.943 284.067 362.503 283.671 363.081 283.262C365.705 281.106 367.265 278.346 368.997 275.463C370.818 272.549 370.818 272.549 373.4 272.445Z" fill="#754B2B"/>
<path d="M562.96 132.617C563.739 133.715 563.739 133.715 564.286 135.27C562.105 140.818 557.721 146.763 553.677 151.184C553.02 151.184 552.364 151.184 551.687 151.184C550.714 148.654 551.4 147.013 552.35 144.553C553.226 144.772 554.101 144.99 555.003 145.216C554.852 144.833 554.702 144.45 554.547 144.055C554.34 142.563 554.34 142.563 555.293 141.072C555.635 140.689 555.977 140.306 556.329 139.911C557.204 140.349 558.079 140.786 558.981 141.237C559.145 140.8 559.31 140.362 559.479 139.911C560.518 137.416 561.73 135.023 562.96 132.617Z" fill="#785030"/>
<path d="M537.099 173.729C537.537 174.604 537.975 175.479 538.426 176.381C538.863 176.381 539.301 176.381 539.752 176.381C540.408 178.35 541.065 180.32 541.741 182.349C541.085 182.567 540.428 182.786 539.752 183.012C539.533 181.918 539.314 180.824 539.089 179.696C538.651 179.696 538.213 179.696 537.763 179.696C537.325 180.79 536.887 181.884 536.436 183.012C535.78 182.136 535.123 181.261 534.447 180.359C536.934 179.033 536.934 179.033 538.426 179.033C538.207 178.527 537.988 178.021 537.763 177.5C537.099 175.718 537.099 175.718 537.099 173.729ZM528.479 177.707C528.917 177.707 529.355 177.707 529.806 177.707C529.806 178.363 529.806 179.02 529.806 179.696C530.9 179.477 531.994 179.259 533.121 179.033C533.121 179.471 533.121 179.908 533.121 180.359C533.559 180.359 533.996 180.359 534.447 180.359C534.228 180.797 534.009 181.235 533.784 181.686C533.128 181.467 532.471 181.248 531.795 181.022C531.102 184.091 530.788 187.182 530.469 190.306C528.822 188.659 528.431 187.244 527.692 185.042C527.45 184.339 527.208 183.635 526.959 182.911C526.49 181.022 526.49 181.022 527.153 179.033C527.591 178.596 528.028 178.158 528.479 177.707Z" fill="#754B2A"/>
<path d="M371.991 373.317C372.866 374.411 373.742 375.506 374.644 376.633C374.862 375.539 375.081 374.445 375.307 373.317C375.744 373.536 376.182 373.755 376.633 373.98C376.84 375.472 376.84 375.472 376.633 377.296C374.217 379.647 372.379 380.536 369.007 380.777C366.687 380.611 366.687 380.611 365.402 379.617C365.169 379.288 364.937 378.96 364.697 378.622C365.135 377.966 365.573 377.309 366.023 376.633C366.461 376.852 366.899 377.07 367.35 377.296C367.568 376.639 367.787 375.983 368.013 375.307C370.043 374.188 370.043 374.188 371.991 373.317Z" fill="#764E2C"/>
<path d="M541.741 280.485C542.61 281.915 543.099 282.783 542.948 284.474C541.204 290.08 538.478 295.188 535.773 300.378C535.555 300.816 535.336 301.253 535.11 301.704C534.454 301.704 533.797 301.704 533.121 301.704C533.873 299.754 534.687 297.848 535.569 295.954C537.791 291.136 539.383 287.156 539.752 281.812C540.408 281.374 541.065 280.936 541.741 280.485Z" fill="#704224"/>
<path d="M196.937 527.153C199.344 527.153 201.751 527.153 204.23 527.153C204.449 530.654 204.668 534.156 204.894 537.763C202.751 535.62 200.885 533.693 199.05 531.339C198.649 530.83 198.248 530.322 197.835 529.798C196.937 528.479 196.937 528.479 196.937 527.153Z" fill="#F9D7A5"/>
<path d="M515.881 320.934C516.114 324.496 516.114 324.496 515.881 326.238C514.555 327.564 514.555 327.564 513.229 328.228C513.229 327.79 513.229 327.352 513.229 326.901C512.572 326.901 511.916 326.901 511.239 326.901C511.02 326.245 510.802 325.588 510.576 324.912C510.576 325.569 510.576 326.225 510.576 326.901C510.139 326.901 509.701 326.901 509.25 326.901C509.469 324.932 509.688 322.963 509.913 320.934C512.457 320.298 513.444 320.324 515.881 320.934Z" fill="#7A5331"/>
<path d="M293.747 273.191C295.498 273.191 297.248 273.191 299.052 273.191C299.179 275.937 299.163 278.09 297.726 280.485C295.985 281.024 295.985 281.024 294.41 281.148C294.298 280.195 294.188 279.242 294.079 278.289C294.017 277.758 293.956 277.227 293.892 276.68C293.747 275.181 293.747 275.181 293.747 273.191Z" fill="#7D5432"/>
<path d="M442.278 500.63C443.284 501.969 444.288 503.31 445.286 504.655C445.62 505.105 445.954 505.554 446.298 506.017C446.634 506.47 446.97 506.924 447.316 507.39C448.259 508.655 448.259 508.655 449.572 509.913C448.916 510.132 448.259 510.351 447.583 510.576C447.145 510.139 446.708 509.701 446.257 509.25C446.038 509.688 445.819 510.125 445.594 510.576C445.156 510.576 444.718 510.576 444.268 510.576C442.914 508.65 442.278 507.658 442.278 505.271C441.622 505.49 440.965 505.709 440.289 505.935C439.851 505.497 439.414 505.059 438.963 504.608C439.619 504.608 440.276 504.608 440.952 504.608C441.39 503.295 441.827 501.983 442.278 500.63Z" fill="#7E5432"/>
<path d="M534.447 263.245C534.666 263.245 534.885 263.245 535.11 263.245C535.027 264.132 535.027 264.132 534.942 265.038C534.874 265.814 534.807 266.59 534.737 267.389C534.668 268.159 534.599 268.928 534.528 269.721C534.458 271.579 534.59 272.772 535.11 274.518C535.136 275.844 535.14 277.17 535.11 278.496C534.673 278.715 534.235 278.934 533.784 279.159C533.784 278.722 533.784 278.284 533.784 277.833C531.745 278.348 531.745 278.348 530.469 279.822C530.907 276.066 531.787 272.553 532.831 268.923C532.986 268.374 533.141 267.826 533.301 267.261C533.68 265.922 534.064 264.583 534.447 263.245Z" fill="#774C2B"/>
<path d="M477.422 419.733C477.641 419.733 477.86 419.733 478.085 419.733C479.014 427.444 478.812 435.19 478.748 442.941C479.623 443.16 480.499 443.379 481.4 443.604C479.431 443.933 479.431 443.933 477.422 444.268C477.422 436.171 477.422 428.075 477.422 419.733Z" fill="#F8E6B1"/>
<path d="M374.229 270.912C377.065 271.254 377.989 271.808 379.948 273.855C380.272 275.999 380.272 275.999 380.155 278.33C380.126 279.107 380.096 279.883 380.065 280.682C380.026 281.274 379.988 281.865 379.948 282.475C379.511 282.475 379.073 282.475 378.622 282.475C378.499 282.912 378.376 283.35 378.249 283.801C376.879 286.661 374.799 288.784 372.654 291.095C372.654 288.745 373.071 288.38 374.519 286.619C376.884 283.567 378.377 280.944 378.912 277.046C378.734 275.143 378.734 275.143 377.669 273.564C375.102 271.999 372.86 272.63 370.002 273.191C371.505 271.474 371.83 271.223 374.229 270.912Z" fill="#F6EFDF"/>
<path d="M204.894 537.763C205.55 538.091 205.55 538.091 206.22 538.426C206.22 538.863 206.22 539.301 206.22 539.752C206.685 539.93 207.15 540.108 207.629 540.291C209.645 541.123 211.573 542.074 213.514 543.067C212.851 544.394 212.851 544.394 211.524 545.057C211.871 546.889 212.26 548.588 212.851 550.361C212.413 550.361 211.975 550.361 211.524 550.361C210.665 548.885 209.809 547.406 208.955 545.927C208.713 545.512 208.471 545.097 208.222 544.669C206.924 542.416 205.785 540.216 204.894 537.763Z" fill="#F3DCAD"/>
<path d="M167.098 326.238C167.535 326.457 167.973 326.676 168.424 326.901C168.697 329.29 168.526 330.074 167.098 332.082C166.66 332.56 166.222 333.039 165.771 333.532C163.14 332.419 161.217 330.825 159.141 328.891C159.141 328.234 159.141 327.578 159.141 326.901C159.578 326.901 160.016 326.901 160.467 326.901C160.959 327.462 161.451 328.023 161.959 328.601C163.651 330.483 163.651 330.483 165.979 330.092C166.567 329.915 167.155 329.737 167.761 329.554C167.761 329.116 167.761 328.678 167.761 328.228C167.323 328.009 166.885 327.79 166.435 327.564C166.653 327.127 166.872 326.689 167.098 326.238Z" fill="#7A502F"/>
<path d="M331.543 268.55C332.199 268.878 332.199 268.878 332.869 269.213C332.855 269.951 332.842 270.69 332.828 271.451C332.694 273.743 332.694 273.743 333.532 275.181C333.095 275.181 332.657 275.181 332.206 275.181C332.385 276.797 332.385 276.797 332.869 278.496C333.526 278.934 334.182 279.371 334.858 279.822C334.858 281.148 334.858 281.148 333.947 282.143C333.591 282.471 333.235 282.8 332.869 283.138C332.432 283.575 331.994 284.013 331.543 284.464C331.543 279.212 331.543 273.961 331.543 268.55Z" fill="#7E5634"/>
<path d="M486.042 39.7852C486.48 39.7852 486.917 39.7852 487.368 39.7852C487.368 40.2228 487.368 40.6604 487.368 41.1113C487.806 41.1113 488.243 41.1113 488.694 41.1113C488.694 42.2054 488.694 43.2995 488.694 44.4268C487.97 44.6319 487.245 44.837 486.498 45.0484C485.012 45.4767 483.531 45.9269 482.063 46.416C482.063 45.7596 482.063 45.1031 482.063 44.4268C482.501 44.4268 482.939 44.4268 483.39 44.4268C483.827 43.3327 484.265 42.2386 484.716 41.1113C485.372 41.3301 486.029 41.549 486.705 41.7744C486.486 41.118 486.267 40.4615 486.042 39.7852Z" fill="#7E5533"/>
<path d="M466.149 527.816C466.368 527.816 466.587 527.816 466.812 527.816C467.031 530.005 467.25 532.193 467.476 534.447C468.132 534.228 468.788 534.01 469.465 533.784C468.545 536.364 467.333 538.403 465.735 540.622C465.316 541.208 464.897 541.793 464.466 542.397C463.986 543.057 463.986 543.057 463.497 543.73C463.278 542.855 463.059 541.98 462.834 541.078C463.49 540.859 464.147 540.64 464.823 540.415C465.644 537.953 465.722 535.566 465.859 532.997C465.902 532.251 465.902 532.251 465.946 531.491C466.016 530.266 466.083 529.041 466.149 527.816Z" fill="#DEC79C"/>
<path d="M196.937 527.153C199.344 527.153 201.751 527.153 204.23 527.153C204.449 530.654 204.668 534.156 204.894 537.763C202.904 535.773 202.904 535.773 202.855 533.984C202.94 533.33 203.024 532.676 203.112 532.002C203.191 531.343 203.27 530.684 203.352 530.005C203.423 529.502 203.494 528.998 203.567 528.479C201.598 528.706 201.598 528.706 199.589 529.143C199.37 529.58 199.151 530.018 198.926 530.469C197.931 529.557 197.931 529.557 196.937 528.479C196.937 528.042 196.937 527.604 196.937 527.153Z" fill="#EEDDAF"/>
<path d="M339.5 230.754C339.5 230.973 339.5 231.192 339.5 231.417C338.811 231.442 338.122 231.467 337.412 231.492C332.097 231.726 327.277 232.145 322.26 234.069C321.576 234.329 320.892 234.589 320.188 234.857C319.777 235.035 319.367 235.212 318.944 235.395C319.163 234.52 319.382 233.645 319.607 232.743C326.284 230.544 332.565 230.546 339.5 230.754Z" fill="#F2E8D3"/>
<path d="M122.671 248.657C122.89 248.657 123.109 248.657 123.334 248.657C123.553 249.97 123.772 251.283 123.997 252.636C124.216 252.636 124.435 252.636 124.66 252.636C124.66 256.137 124.66 259.638 124.66 263.245C121.992 260.577 122.633 256.237 122.63 252.677C122.64 251.337 122.653 249.997 122.671 248.657Z" fill="#724A29"/>
<path d="M139.248 55.6992C139.686 55.918 140.123 56.1369 140.574 56.3623C139.662 57.6885 139.662 57.6885 138.585 59.0146C138.147 59.0146 137.71 59.0146 137.259 59.0146C137.259 59.4523 137.259 59.8899 137.259 60.3408C136.602 60.5596 135.946 60.7785 135.27 61.0039C134.15 62.0946 133.046 63.201 131.954 64.3193C131.084 65.0011 130.206 65.6726 129.302 66.3086C130.306 63.9395 131.701 62.425 133.529 60.6309C134.04 60.124 134.551 59.6172 135.078 59.0949C136.415 57.8561 137.767 56.7578 139.248 55.6992Z" fill="#F9E6B5"/>
<path d="M454.214 43.7637C454.87 43.9825 455.527 44.2013 456.203 44.4268C451.928 48.8241 451.928 48.8241 449.572 50.3945C448.145 50.1303 448.145 50.1303 446.92 49.7314C448.087 48.7149 449.263 47.7082 450.443 46.7061C451.096 46.1445 451.75 45.583 452.424 45.0044C453.015 44.5949 453.605 44.1855 454.214 43.7637Z" fill="#754D30"/>
<path d="M149.194 170.413C150.279 172.582 149.846 174.788 149.194 177.044C147.495 179.033 147.495 179.033 145.879 180.359C146.198 176.531 147.328 173.756 149.194 170.413Z" fill="#F5DDAC"/>
<path d="M307.672 289.769C308.708 290.97 308.708 290.97 309.661 292.421C309.442 293.077 309.223 293.734 308.998 294.41C307.713 294.949 307.713 294.949 306.346 295.073C305.908 294.636 305.47 294.198 305.02 293.747C305.144 292.421 305.144 292.421 305.683 291.095C306.339 290.657 306.996 290.219 307.672 289.769Z" fill="#7D5432"/>
<path d="M288.442 562.96C289.974 563.398 291.506 563.835 293.084 564.286C292.865 565.38 292.646 566.474 292.421 567.602C291.764 566.945 291.108 566.289 290.432 565.612C289.447 566.269 289.447 566.269 288.442 566.938C287.779 564.949 287.779 564.949 288.442 562.96ZM286.453 566.938C287.11 567.157 287.766 567.376 288.442 567.602C287.786 567.602 287.129 567.602 286.453 567.602C286.453 567.383 286.453 567.164 286.453 566.938Z" fill="#7F5432"/>
<path d="M392.547 330.217C394.079 330.217 395.61 330.217 397.188 330.217C396.97 331.749 396.751 333.28 396.525 334.858C396.088 334.858 395.65 334.858 395.199 334.858C392.547 331.894 392.547 331.894 392.547 330.217Z" fill="#754B2A"/>
<path d="M401.167 330.217C405.277 329.965 408.095 330.326 411.776 332.206C409.279 333.039 408.214 332.452 405.809 331.543C405.59 332.199 405.371 332.856 405.146 333.532C404.927 332.657 404.708 331.782 404.482 330.88C403.388 330.88 402.294 330.88 401.167 330.88C401.167 330.661 401.167 330.442 401.167 330.217Z" fill="#693F20"/>
<path d="M537.763 466.812C538.2 466.812 538.638 466.812 539.089 466.812C539.308 467.688 539.527 468.563 539.752 469.465C540.19 469.465 540.627 469.465 541.078 469.465C540.859 470.121 540.64 470.778 540.415 471.454C538.883 471.016 537.352 470.579 535.773 470.128C536.437 468.139 536.437 468.139 537.763 466.812Z" fill="#744B2A"/>
<path d="M268.55 342.815C271.176 342.815 273.801 342.815 276.507 342.815C275.85 343.253 275.194 343.691 274.518 344.142C274.518 344.798 274.518 345.455 274.518 346.131C273.642 346.35 272.767 346.568 271.865 346.794C271.783 346.179 271.783 346.179 271.699 345.551C271.26 343.787 271.26 343.787 268.55 342.815Z" fill="#F79162"/>
<path d="M537.763 253.962C538.757 254.832 538.757 254.832 539.752 255.951C539.752 256.608 539.752 257.264 539.752 257.94C538.877 257.722 538.001 257.503 537.1 257.277C536.662 257.934 536.224 258.59 535.773 259.267C535.773 257.735 535.773 256.203 535.773 254.625C536.43 254.406 537.086 254.187 537.763 253.962Z" fill="#714828"/>
<path d="M540.415 156.488C541.509 156.488 542.603 156.488 543.73 156.488C543.949 157.582 544.168 158.676 544.394 159.804C543.081 160.46 543.081 160.46 541.741 161.13C540.415 159.141 540.415 159.141 540.415 156.488Z" fill="#7F5635"/>
<path d="M570.254 555.003C570.473 555.441 570.691 555.878 570.917 556.329C571.355 556.548 571.792 556.767 572.243 556.992C571.805 557.43 571.368 557.867 570.917 558.318C570.61 560.084 570.61 560.084 570.502 562.048C570.453 562.713 570.403 563.378 570.352 564.063C570.32 564.575 570.287 565.086 570.254 565.612C570.035 565.612 569.816 565.612 569.591 565.612C568.927 562.07 568.977 559.225 569.591 555.666C569.81 555.447 570.028 555.228 570.254 555.003Z" fill="#734A29"/>
<path d="M216.829 524.501C218.197 524.791 218.197 524.791 219.481 525.164C218.825 525.164 218.168 525.164 217.492 525.164C217.492 525.656 217.492 526.149 217.492 526.656C217.492 531.132 217.492 531.132 216.829 532.458C216.166 531.795 216.166 531.795 216.078 530.303C216.08 529.701 216.081 529.099 216.083 528.479C216.081 527.878 216.08 527.276 216.078 526.656C216.166 525.164 216.166 525.164 216.829 524.501Z" fill="#F79162"/>
<path d="M252.636 397.852C254.625 400.364 256.266 403.082 257.94 405.809C256.628 405.371 255.315 404.933 253.962 404.482C253.52 402.272 253.078 400.062 252.636 397.852Z" fill="#F0DFAF"/>
<path d="M423.049 403.819C421.752 404.281 420.453 404.736 419.153 405.187C418.43 405.441 417.707 405.695 416.962 405.956C415.092 406.472 415.092 406.472 413.766 405.809C414.676 404.5 415.444 403.895 416.998 403.516C419.336 403.194 420.768 403.059 423.049 403.819Z" fill="#F4E4B4"/>
<path d="M223.46 403.156C223.46 404.25 223.46 405.344 223.46 406.472C223.898 406.69 224.335 406.909 224.786 407.135C222.708 407.827 222.141 407.754 220.145 407.135C221.573 403.156 221.573 403.156 223.46 403.156Z" fill="#805734"/>
<path d="M541.741 280.485C542.487 281.604 542.487 281.604 543.067 283.138C542.487 284.961 542.487 284.961 541.741 286.453C540.451 284.518 540.115 283.386 539.752 281.148C540.408 280.93 541.065 280.711 541.741 280.485Z" fill="#734625"/>
<path d="M343.479 378.622C344.805 380.611 344.805 380.611 344.805 382.601C345.242 382.601 345.68 382.601 346.131 382.601C346.131 381.288 346.131 379.975 346.131 378.622C346.35 378.622 346.569 378.622 346.794 378.622C346.918 380.86 346.918 380.86 346.794 383.264C345.809 383.92 345.809 383.92 344.805 384.59C343.573 382.511 343.345 381.026 343.479 378.622Z" fill="#F79062"/>
<path d="M125.323 266.561C125.542 267.436 125.761 268.311 125.986 269.213C126.424 269.213 126.862 269.213 127.312 269.213C127.312 271.182 127.312 273.152 127.312 275.181C125.596 273.464 125.738 272.51 125.572 270.125C125.522 269.46 125.473 268.795 125.422 268.109C125.389 267.598 125.357 267.087 125.323 266.561Z" fill="#6D4227"/>
<path d="M531.795 192.958C532.451 193.177 533.108 193.396 533.784 193.621C533.565 195.809 533.347 197.997 533.121 200.252C531.815 198.293 531.418 197.234 531.132 194.947C531.351 194.291 531.569 193.634 531.795 192.958Z" fill="#744929"/>
<path d="M137.922 627.942C139.262 628.341 140.588 628.787 141.9 629.269C142.119 629.706 142.338 630.144 142.563 630.595C140.813 630.814 139.062 631.032 137.259 631.258C137.478 630.164 137.696 629.07 137.922 627.942Z" fill="#724827"/>
<path d="M223.46 407.135C228.599 407.632 228.599 407.632 230.091 409.124C227.66 409.124 225.228 409.124 222.797 409.124C223.016 408.468 223.235 407.811 223.46 407.135Z" fill="#F5ECDA"/>
<path d="M271.865 214.84C272.084 214.84 272.303 214.84 272.528 214.84C272.623 219.766 272.623 219.766 271.865 222.134C270.99 221.915 270.115 221.696 269.213 221.471C269.527 220.992 269.842 220.513 270.166 220.02C271.163 218.225 271.577 216.854 271.865 214.84Z" fill="#825835"/>
<path d="M537.763 400.504C539.752 402.908 539.752 402.908 539.752 405.146C538.877 405.364 538.002 405.583 537.1 405.809C537.017 401.996 537.017 401.996 537.763 400.504Z" fill="#724624"/>
<path d="M470.791 35.1436C471.229 35.3624 471.666 35.5812 472.117 35.8066C471.461 36.0255 470.804 36.2443 470.128 36.4697C470.128 36.9074 470.128 37.345 470.128 37.7959C468.815 38.0147 467.502 38.2335 466.149 38.459C466.149 38.0213 466.149 37.5837 466.149 37.1328C467.677 36.4256 469.226 35.7641 470.791 35.1436Z" fill="#76462A"/>
<path d="M325.575 466.149C327.545 466.149 329.514 466.149 331.543 466.149C329.775 467.328 328.209 468.056 326.238 468.802C326.019 467.926 325.801 467.051 325.575 466.149Z" fill="#F38C5D"/>
<path d="M567.602 520.522C568.735 521.599 569.839 522.706 570.917 523.838C570.917 524.276 570.917 524.713 570.917 525.164C569.632 524.708 569.632 524.708 568.265 523.838C567.767 522.097 567.767 522.097 567.602 520.522Z" fill="#724528"/>
<path d="M480.074 350.772C482.239 351.969 483.316 352.652 484.716 354.751C484.21 354.546 483.704 354.341 483.182 354.129C481.939 353.638 480.68 353.185 479.411 352.762C479.63 352.105 479.849 351.449 480.074 350.772Z" fill="#F7E0B0"/>
<path d="M501.293 352.762C502.606 353.418 503.919 354.075 505.271 354.751C503.282 356.077 503.282 356.077 501.293 356.077C501.293 354.983 501.293 353.889 501.293 352.762Z" fill="#734825"/>
<path d="M313.64 286.453C314.966 287.116 314.966 287.116 315.712 289.147C315.903 289.79 316.095 290.432 316.292 291.095C315.636 290.876 314.979 290.657 314.303 290.432C314.084 289.119 313.865 287.806 313.64 286.453Z" fill="#7E5533"/>
<path d="M338.174 277.17C338.83 277.17 339.487 277.17 340.163 277.17C340.163 279.358 340.163 281.546 340.163 283.801C339.944 283.801 339.725 283.801 339.5 283.801C339.418 283.172 339.336 282.543 339.251 281.894C339.025 279.765 339.025 279.765 337.511 278.496C337.73 278.058 337.948 277.621 338.174 277.17Z" fill="#754A28"/>
</svg>
