<svg width="182" height="146" viewBox="0 0 182 146" fill="none" xmlns="http://www.w3.org/2000/svg">
<path d="M95 23.5C131.768 23.5 161.5 50.8501 161.5 84.5C161.5 118.15 131.768 145.5 95 145.5C58.2319 145.5 28.5 118.15 28.5 84.5C28.5 50.8501 58.2319 23.5 95 23.5Z" fill="#F4E9D7" stroke="#BB9C77"/>
<path d="M148 0.5C166.546 0.5 181.5 14.1978 181.5 31C181.5 47.8022 166.546 61.5 148 61.5C129.454 61.5 114.5 47.8022 114.5 31C114.5 14.1978 129.454 0.5 148 0.5Z" fill="#F4E9D7" stroke="#BB9C77"/>
<path d="M34 0.5C52.546 0.5 67.5 14.1978 67.5 31C67.5 47.8022 52.546 61.5 34 61.5C15.454 61.5 0.5 47.8022 0.5 31C0.5 14.1978 15.454 0.5 34 0.5Z" fill="#F4E9D7" stroke="#BB9C77"/>
</svg>
