<svg width="145" height="25" viewBox="0 0 145 25" fill="none" xmlns="http://www.w3.org/2000/svg">
<path d="M11.868 21.84L11.616 24H0.24L0.42 17.052L0.24 0.923999H3.192L3.012 16.8L3.12 21.588H11.652L11.868 21.84ZM17.8086 18.384L17.8806 24H15.2166L15.3246 18.6L15.2166 6.072H17.9166L17.8086 18.384ZM32.957 14.676C35.621 15.204 36.953 16.62 36.953 18.924C36.953 20.652 36.281 21.948 34.937 22.812C33.593 23.676 31.625 24.108 29.033 24.108C27.473 24.108 25.973 24.072 24.533 24L24.641 18.6L24.533 6.072L30.149 6.036C31.949 6.036 33.341 6.42 34.325 7.188C35.333 7.932 35.837 9 35.837 10.392C35.837 11.424 35.585 12.3 35.081 13.02C34.577 13.74 33.869 14.292 32.957 14.676ZM32.993 10.716C32.993 9.828 32.705 9.18 32.129 8.772C31.553 8.364 30.629 8.16 29.357 8.16H27.161L27.125 13.704L30.329 13.812C31.217 13.62 31.877 13.284 32.309 12.804C32.765 12.3 32.993 11.604 32.993 10.716ZM29.357 22.056C30.917 22.056 32.105 21.792 32.921 21.264C33.761 20.712 34.181 19.908 34.181 18.852C34.181 17.988 33.893 17.316 33.317 16.836C32.741 16.356 31.865 16.032 30.689 15.864L27.125 15.9L27.089 18.384L27.161 21.948C27.905 22.02 28.637 22.056 29.357 22.056ZM50.109 16.764C51.573 18.996 53.193 21.192 54.969 23.352L54.933 23.712C53.925 24.024 53.097 24.204 52.449 24.252L51.981 23.964C50.157 21.204 48.777 19.032 47.841 17.448L44.457 17.484V18.384L44.529 24H41.865L41.973 18.6L41.865 6.072L47.985 6.036C49.881 6.036 51.333 6.48 52.341 7.368C53.373 8.256 53.889 9.54 53.889 11.22C53.889 12.444 53.553 13.536 52.881 14.496C52.233 15.456 51.309 16.212 50.109 16.764ZM44.493 15.252L47.877 15.36C50.013 14.76 51.081 13.452 51.081 11.436C51.081 10.38 50.769 9.588 50.145 9.06C49.521 8.532 48.573 8.244 47.301 8.196L44.529 8.232L44.493 15.252ZM73.6924 24H70.9924L70.5604 22.056L69.6244 19.392L65.3404 19.356L61.5244 19.392L60.5524 21.912L60.0484 24H57.3844L64.2964 6.072H67.3924L73.6924 24ZM68.8684 17.196L65.8804 8.7H65.6644L62.3884 17.196L65.5564 17.232L68.8684 17.196ZM86.3903 16.764C87.8543 18.996 89.4743 21.192 91.2503 23.352L91.2143 23.712C90.2063 24.024 89.3783 24.204 88.7303 24.252L88.2623 23.964C86.4383 21.204 85.0583 19.032 84.1223 17.448L80.7383 17.484V18.384L80.8103 24H78.1463L78.2543 18.6L78.1463 6.072L84.2663 6.036C86.1623 6.036 87.6143 6.48 88.6223 7.368C89.6543 8.256 90.1703 9.54 90.1703 11.22C90.1703 12.444 89.8343 13.536 89.1623 14.496C88.5143 15.456 87.5903 16.212 86.3903 16.764ZM80.7743 15.252L84.1582 15.36C86.2943 14.76 87.3623 13.452 87.3623 11.436C87.3623 10.38 87.0503 9.588 86.4263 9.06C85.8023 8.532 84.8543 8.244 83.5823 8.196L80.8103 8.232L80.7743 15.252ZM98.5976 18.384L98.6696 24H96.0056L96.1136 18.6L96.0056 6.072H98.7056L98.5976 18.384ZM119.11 15.18V17.772C119.134 19.812 118.51 21.396 117.238 22.524C115.99 23.652 114.19 24.216 111.838 24.216C109.51 24.216 107.734 23.664 106.51 22.56C105.286 21.432 104.698 19.836 104.746 17.772L104.782 15.036L104.746 6.072H107.446L107.302 17.34C107.278 18.852 107.65 19.992 108.418 20.76C109.21 21.528 110.386 21.912 111.946 21.912C113.482 21.912 114.646 21.528 115.438 20.76C116.23 19.992 116.614 18.852 116.59 17.34L116.482 6.072H119.218L119.11 15.18ZM144.16 24H141.748L141.352 18.528L140.38 10.248H140.164L135.016 21.984H132.892L128.032 10.248H127.816L126.88 18.312L126.376 24H124.072L126.052 6.072H129.184L130.084 8.772L134.008 18.42H134.224L138.328 8.628L139.264 6.072H142.324L144.16 24Z" fill="#FFFBF5"/>
</svg>
