<svg width="485" height="956" viewBox="0 0 485 956" fill="none" xmlns="http://www.w3.org/2000/svg">
<g clip-path="url(#clip0_2123_499)">
<rect width="485" height="956" fill="#FFFBF5"/>
<path d="M385 118.5C533.841 118.5 654.5 239.159 654.5 388C654.5 536.841 533.841 657.5 385 657.5C236.159 657.5 115.5 536.841 115.5 388C115.5 239.159 236.159 118.5 385 118.5Z" stroke="#BB9C77" stroke-opacity="0.95"/>
<path d="M243 -151.5C391.841 -151.5 512.5 -30.8407 512.5 118C512.5 266.841 391.841 387.5 243 387.5C94.1593 387.5 -26.5 266.841 -26.5 118C-26.5 -30.8407 94.1593 -151.5 243 -151.5Z" stroke="#BB9C77" stroke-opacity="0.95"/>
<path d="M115 521.5C263.841 521.5 384.5 642.159 384.5 791C384.5 939.841 263.841 1060.5 115 1060.5C-33.8407 1060.5 -154.5 939.841 -154.5 791C-154.5 642.159 -33.8407 521.5 115 521.5Z" stroke="#BB9C77" stroke-opacity="0.95"/>
<g filter="url(#filter0_f_2123_499)">
<circle cx="385" cy="824" r="33" fill="#E2D9CC"/>
</g>
<g filter="url(#filter1_f_2123_499)">
<circle cx="458" cy="133" r="33" fill="#E2D9CC"/>
</g>
<g filter="url(#filter2_f_2123_499)">
<circle cx="115" cy="445" r="33" fill="#E2D9CC"/>
</g>
</g>
<defs>
<filter id="filter0_f_2123_499" x="349" y="788" width="72" height="72" filterUnits="userSpaceOnUse" color-interpolation-filters="sRGB">
<feFlood flood-opacity="0" result="BackgroundImageFix"/>
<feBlend mode="normal" in="SourceGraphic" in2="BackgroundImageFix" result="shape"/>
<feGaussianBlur stdDeviation="1.5" result="effect1_foregroundBlur_2123_499"/>
</filter>
<filter id="filter1_f_2123_499" x="422" y="97" width="72" height="72" filterUnits="userSpaceOnUse" color-interpolation-filters="sRGB">
<feFlood flood-opacity="0" result="BackgroundImageFix"/>
<feBlend mode="normal" in="SourceGraphic" in2="BackgroundImageFix" result="shape"/>
<feGaussianBlur stdDeviation="1.5" result="effect1_foregroundBlur_2123_499"/>
</filter>
<filter id="filter2_f_2123_499" x="79" y="409" width="72" height="72" filterUnits="userSpaceOnUse" color-interpolation-filters="sRGB">
<feFlood flood-opacity="0" result="BackgroundImageFix"/>
<feBlend mode="normal" in="SourceGraphic" in2="BackgroundImageFix" result="shape"/>
<feGaussianBlur stdDeviation="1.5" result="effect1_foregroundBlur_2123_499"/>
</filter>
<clipPath id="clip0_2123_499">
<rect width="485" height="956" fill="white"/>
</clipPath>
</defs>
</svg>
