<svg width="393" height="852" viewBox="0 0 393 852" fill="none" xmlns="http://www.w3.org/2000/svg">
<g clip-path="url(#clip0_2121_485)">
<rect width="393" height="852" fill="#FFFBF5"/>
<path d="M63.5 392.5C197.705 392.5 306.5 501.295 306.5 635.5C306.5 769.705 197.705 878.5 63.5 878.5C-70.7052 878.5 -179.5 769.705 -179.5 635.5C-179.5 501.295 -70.7052 392.5 63.5 392.5Z" stroke="#BB9C77" stroke-opacity="0.95"/>
<path d="M324.5 128.5C458.705 128.5 567.5 237.295 567.5 371.5C567.5 505.705 458.705 614.5 324.5 614.5C190.295 614.5 81.5 505.705 81.5 371.5C81.5 237.295 190.295 128.5 324.5 128.5Z" stroke="#BB9C77" stroke-opacity="0.95"/>
<g filter="url(#filter0_f_2121_485)">
<circle cx="81" cy="392" r="33" fill="#E2D9CC"/>
</g>
<g filter="url(#filter1_f_2121_485)">
<circle cx="270" cy="783" r="33" fill="#E2D9CC"/>
</g>
<g filter="url(#filter2_f_2121_485)">
<circle cx="384" cy="129" r="33" fill="#E2D9CC"/>
</g>
<path d="M216.5 -146.5C350.705 -146.5 459.5 -37.7052 459.5 96.5C459.5 230.705 350.705 339.5 216.5 339.5C82.2948 339.5 -26.5 230.705 -26.5 96.5C-26.5 -37.7052 82.2948 -146.5 216.5 -146.5Z" stroke="#BB9C77" stroke-opacity="0.95"/>
</g>
<defs>
<filter id="filter0_f_2121_485" x="45" y="356" width="72" height="72" filterUnits="userSpaceOnUse" color-interpolation-filters="sRGB">
<feFlood flood-opacity="0" result="BackgroundImageFix"/>
<feBlend mode="normal" in="SourceGraphic" in2="BackgroundImageFix" result="shape"/>
<feGaussianBlur stdDeviation="1.5" result="effect1_foregroundBlur_2121_485"/>
</filter>
<filter id="filter1_f_2121_485" x="234" y="747" width="72" height="72" filterUnits="userSpaceOnUse" color-interpolation-filters="sRGB">
<feFlood flood-opacity="0" result="BackgroundImageFix"/>
<feBlend mode="normal" in="SourceGraphic" in2="BackgroundImageFix" result="shape"/>
<feGaussianBlur stdDeviation="1.5" result="effect1_foregroundBlur_2121_485"/>
</filter>
<filter id="filter2_f_2121_485" x="348" y="93" width="72" height="72" filterUnits="userSpaceOnUse" color-interpolation-filters="sRGB">
<feFlood flood-opacity="0" result="BackgroundImageFix"/>
<feBlend mode="normal" in="SourceGraphic" in2="BackgroundImageFix" result="shape"/>
<feGaussianBlur stdDeviation="1.5" result="effect1_foregroundBlur_2121_485"/>
</filter>
<clipPath id="clip0_2121_485">
<rect width="393" height="852" fill="white"/>
</clipPath>
</defs>
</svg>
