<svg width="129" height="40" viewBox="0 0 129 40" fill="none" xmlns="http://www.w3.org/2000/svg">
<g filter="url(#filter0_d_2364_637)">
<rect x="-6" y="4" width="127" height="24" rx="10" fill="#BB9C77"/>
</g>
<path d="M65.24 20.796H74.802V22.434H65.24V20.796ZM69.048 10.254H70.784V21.804H69.048V10.254ZM64.414 17.296H66.122V23.26H64.414V17.296ZM73.906 17.296H75.656V23.246H73.906V17.296ZM64.96 11.43H66.64V14.902H73.332V11.416H75.096V16.54H64.96V11.43ZM84.448 10.702H90.23V12.228H84.448V10.702ZM78.918 13.81H83.23V15.28H78.918V13.81ZM84.504 14.3H89.138V15.826H84.504V14.3ZM80.752 10.1H82.264V14.664H80.752V10.1ZM83.692 10.702H85.246V14.804C85.246 15.4107 85.2273 16.078 85.19 16.806C85.162 17.5247 85.1013 18.2667 85.008 19.032C84.9147 19.7973 84.7747 20.5393 84.588 21.258C84.4013 21.9767 84.1587 22.63 83.86 23.218C83.7573 23.1247 83.622 23.022 83.454 22.91C83.286 22.8073 83.1133 22.7093 82.936 22.616C82.7587 22.5227 82.6047 22.4527 82.474 22.406C82.754 21.8553 82.978 21.258 83.146 20.614C83.314 19.97 83.4353 19.3073 83.51 18.626C83.594 17.9353 83.6453 17.268 83.664 16.624C83.6827 15.9707 83.692 15.364 83.692 14.804V10.702ZM78.988 16.848H82.53V23.218H81.004V18.318H78.988V16.848ZM78.26 10.478H79.744V15.882C79.744 16.498 79.73 17.1373 79.702 17.8C79.674 18.4627 79.6087 19.1253 79.506 19.788C79.4127 20.4413 79.2773 21.0667 79.1 21.664C78.9227 22.2613 78.6753 22.798 78.358 23.274C78.274 23.1713 78.162 23.0547 78.022 22.924C77.8913 22.7933 77.756 22.6673 77.616 22.546C77.476 22.4247 77.3453 22.3267 77.224 22.252C77.4573 21.832 77.6393 21.3607 77.77 20.838C77.91 20.306 78.0127 19.7553 78.078 19.186C78.1527 18.6167 78.1993 18.0473 78.218 17.478C78.246 16.9087 78.26 16.372 78.26 15.868V10.478ZM88.648 14.3H88.928L89.208 14.258L90.258 14.58C90.062 15.98 89.754 17.2353 89.334 18.346C88.914 19.4473 88.3867 20.404 87.752 21.216C87.1173 22.028 86.38 22.7 85.54 23.232C85.4747 23.092 85.3813 22.9333 85.26 22.756C85.1387 22.588 85.008 22.4247 84.868 22.266C84.7373 22.1073 84.6067 21.9767 84.476 21.874C85.2133 21.4633 85.8667 20.9033 86.436 20.194C87.0053 19.4753 87.4767 18.6447 87.85 17.702C88.2327 16.75 88.4987 15.7233 88.648 14.622V14.3ZM86.254 15.322C86.4873 16.2833 86.8047 17.1933 87.206 18.052C87.6167 18.9013 88.116 19.6573 88.704 20.32C89.3013 20.9827 89.992 21.51 90.776 21.902C90.6547 22.0047 90.5193 22.1353 90.37 22.294C90.2207 22.4527 90.0807 22.6207 89.95 22.798C89.8193 22.9753 89.712 23.134 89.628 23.274C88.7973 22.7887 88.074 22.168 87.458 21.412C86.8513 20.656 86.338 19.7927 85.918 18.822C85.5073 17.842 85.162 16.778 84.882 15.63L86.254 15.322ZM96.74 21.202H104.706V22.854H96.74V21.202ZM97.314 14.44H104.37V16.064H97.314V14.44ZM99.974 10.24H101.71V22H99.974V10.24ZM91.714 12.704H96.292V14.216H91.714V12.704ZM93.716 17.478L95.382 15.49V23.26H93.716V17.478ZM93.716 10.114H95.382V13.404H93.716V10.114ZM95.2 15.966C95.3307 16.05 95.508 16.19 95.732 16.386C95.9653 16.5727 96.2127 16.7827 96.474 17.016C96.7353 17.24 96.9733 17.45 97.188 17.646C97.4027 17.8327 97.5567 17.968 97.65 18.052L96.642 19.424C96.502 19.2467 96.3293 19.0413 96.124 18.808C95.928 18.5653 95.718 18.318 95.494 18.066C95.27 17.814 95.0507 17.576 94.836 17.352C94.6213 17.128 94.4393 16.9413 94.29 16.792L95.2 15.966ZM95.69 12.704H96.012L96.306 12.634L97.244 13.25C96.8987 14.1647 96.446 15.0373 95.886 15.868C95.326 16.6893 94.71 17.4313 94.038 18.094C93.366 18.7567 92.68 19.3073 91.98 19.746C91.9333 19.5967 91.8587 19.4193 91.756 19.214C91.6627 18.9993 91.5647 18.7987 91.462 18.612C91.3687 18.416 91.2753 18.262 91.182 18.15C91.826 17.814 92.442 17.3753 93.03 16.834C93.618 16.2833 94.1453 15.6813 94.612 15.028C95.0787 14.3653 95.438 13.6887 95.69 12.998V12.704Z" fill="#31291F"/>
<rect x="11" y="4" width="5" height="24" fill="#FFFBF5"/>
<rect x="21" y="4" width="5" height="24" fill="#FFFBF5"/>
<g filter="url(#filter1_d_2364_637)">
<rect x="-6" y="4" width="127" height="24" rx="10" fill="#D5B58F"/>
</g>
<path d="M65.24 20.796H74.802V22.434H65.24V20.796ZM69.048 10.254H70.784V21.804H69.048V10.254ZM64.414 17.296H66.122V23.26H64.414V17.296ZM73.906 17.296H75.656V23.246H73.906V17.296ZM64.96 11.43H66.64V14.902H73.332V11.416H75.096V16.54H64.96V11.43ZM84.448 10.702H90.23V12.228H84.448V10.702ZM78.918 13.81H83.23V15.28H78.918V13.81ZM84.504 14.3H89.138V15.826H84.504V14.3ZM80.752 10.1H82.264V14.664H80.752V10.1ZM83.692 10.702H85.246V14.804C85.246 15.4107 85.2273 16.078 85.19 16.806C85.162 17.5247 85.1013 18.2667 85.008 19.032C84.9147 19.7973 84.7747 20.5393 84.588 21.258C84.4013 21.9767 84.1587 22.63 83.86 23.218C83.7573 23.1247 83.622 23.022 83.454 22.91C83.286 22.8073 83.1133 22.7093 82.936 22.616C82.7587 22.5227 82.6047 22.4527 82.474 22.406C82.754 21.8553 82.978 21.258 83.146 20.614C83.314 19.97 83.4353 19.3073 83.51 18.626C83.594 17.9353 83.6453 17.268 83.664 16.624C83.6827 15.9707 83.692 15.364 83.692 14.804V10.702ZM78.988 16.848H82.53V23.218H81.004V18.318H78.988V16.848ZM78.26 10.478H79.744V15.882C79.744 16.498 79.73 17.1373 79.702 17.8C79.674 18.4627 79.6087 19.1253 79.506 19.788C79.4127 20.4413 79.2773 21.0667 79.1 21.664C78.9227 22.2613 78.6753 22.798 78.358 23.274C78.274 23.1713 78.162 23.0547 78.022 22.924C77.8913 22.7933 77.756 22.6673 77.616 22.546C77.476 22.4247 77.3453 22.3267 77.224 22.252C77.4573 21.832 77.6393 21.3607 77.77 20.838C77.91 20.306 78.0127 19.7553 78.078 19.186C78.1527 18.6167 78.1993 18.0473 78.218 17.478C78.246 16.9087 78.26 16.372 78.26 15.868V10.478ZM88.648 14.3H88.928L89.208 14.258L90.258 14.58C90.062 15.98 89.754 17.2353 89.334 18.346C88.914 19.4473 88.3867 20.404 87.752 21.216C87.1173 22.028 86.38 22.7 85.54 23.232C85.4747 23.092 85.3813 22.9333 85.26 22.756C85.1387 22.588 85.008 22.4247 84.868 22.266C84.7373 22.1073 84.6067 21.9767 84.476 21.874C85.2133 21.4633 85.8667 20.9033 86.436 20.194C87.0053 19.4753 87.4767 18.6447 87.85 17.702C88.2327 16.75 88.4987 15.7233 88.648 14.622V14.3ZM86.254 15.322C86.4873 16.2833 86.8047 17.1933 87.206 18.052C87.6167 18.9013 88.116 19.6573 88.704 20.32C89.3013 20.9827 89.992 21.51 90.776 21.902C90.6547 22.0047 90.5193 22.1353 90.37 22.294C90.2207 22.4527 90.0807 22.6207 89.95 22.798C89.8193 22.9753 89.712 23.134 89.628 23.274C88.7973 22.7887 88.074 22.168 87.458 21.412C86.8513 20.656 86.338 19.7927 85.918 18.822C85.5073 17.842 85.162 16.778 84.882 15.63L86.254 15.322ZM96.74 21.202H104.706V22.854H96.74V21.202ZM97.314 14.44H104.37V16.064H97.314V14.44ZM99.974 10.24H101.71V22H99.974V10.24ZM91.714 12.704H96.292V14.216H91.714V12.704ZM93.716 17.478L95.382 15.49V23.26H93.716V17.478ZM93.716 10.114H95.382V13.404H93.716V10.114ZM95.2 15.966C95.3307 16.05 95.508 16.19 95.732 16.386C95.9653 16.5727 96.2127 16.7827 96.474 17.016C96.7353 17.24 96.9733 17.45 97.188 17.646C97.4027 17.8327 97.5567 17.968 97.65 18.052L96.642 19.424C96.502 19.2467 96.3293 19.0413 96.124 18.808C95.928 18.5653 95.718 18.318 95.494 18.066C95.27 17.814 95.0507 17.576 94.836 17.352C94.6213 17.128 94.4393 16.9413 94.29 16.792L95.2 15.966ZM95.69 12.704H96.012L96.306 12.634L97.244 13.25C96.8987 14.1647 96.446 15.0373 95.886 15.868C95.326 16.6893 94.71 17.4313 94.038 18.094C93.366 18.7567 92.68 19.3073 91.98 19.746C91.9333 19.5967 91.8587 19.4193 91.756 19.214C91.6627 18.9993 91.5647 18.7987 91.462 18.612C91.3687 18.416 91.2753 18.262 91.182 18.15C91.826 17.814 92.442 17.3753 93.03 16.834C93.618 16.2833 94.1453 15.6813 94.612 15.028C95.0787 14.3653 95.438 13.6887 95.69 12.998V12.704Z" fill="#31291F"/>
<rect x="11" y="4" width="5" height="24" fill="#FFFBF5"/>
<rect x="21" y="4" width="5" height="24" fill="#FFFBF5"/>
<defs>
<filter id="filter0_d_2364_637" x="-10" y="4" width="135" height="32" filterUnits="userSpaceOnUse" color-interpolation-filters="sRGB">
<feFlood flood-opacity="0" result="BackgroundImageFix"/>
<feColorMatrix in="SourceAlpha" type="matrix" values="0 0 0 0 0 0 0 0 0 0 0 0 0 0 0 0 0 0 127 0" result="hardAlpha"/>
<feOffset dy="4"/>
<feGaussianBlur stdDeviation="2"/>
<feComposite in2="hardAlpha" operator="out"/>
<feColorMatrix type="matrix" values="0 0 0 0 0 0 0 0 0 0 0 0 0 0 0 0 0 0 0.25 0"/>
<feBlend mode="normal" in2="BackgroundImageFix" result="effect1_dropShadow_2364_637"/>
<feBlend mode="normal" in="SourceGraphic" in2="effect1_dropShadow_2364_637" result="shape"/>
</filter>
<filter id="filter1_d_2364_637" x="-14" y="0" width="143" height="40" filterUnits="userSpaceOnUse" color-interpolation-filters="sRGB">
<feFlood flood-opacity="0" result="BackgroundImageFix"/>
<feColorMatrix in="SourceAlpha" type="matrix" values="0 0 0 0 0 0 0 0 0 0 0 0 0 0 0 0 0 0 127 0" result="hardAlpha"/>
<feOffset dy="4"/>
<feGaussianBlur stdDeviation="4"/>
<feComposite in2="hardAlpha" operator="out"/>
<feColorMatrix type="matrix" values="0 0 0 0 0.105882 0 0 0 0 0.215686 0 0 0 0 0.388235 0 0 0 0.3 0"/>
<feBlend mode="normal" in2="BackgroundImageFix" result="effect1_dropShadow_2364_637"/>
<feBlend mode="normal" in="SourceGraphic" in2="effect1_dropShadow_2364_637" result="shape"/>
</filter>
</defs>
</svg>
