<?xml version="1.0" encoding="UTF-8"?>
<svg id="_x32_" xmlns="http://www.w3.org/2000/svg" xmlns:xlink="http://www.w3.org/1999/xlink" version="1.1" viewBox="0 0 512 512">
  <!-- Generator: Adobe Illustrator 29.3.1, SVG Export Plug-In . SVG Version: 2.1.0 Build 151)  -->
  <defs>
    <style>
      .st0 {
        fill: #fff7eb;
      }
    </style>
  </defs>
  <path class="st0" d="M259,156.6c0-8.7,0-16.2,1.1-23.4l-6.3,7.2c-10.9,12.6-38.6,20.8-61.8,18.2-23.2-2.6-33.1-14.9-22.2-27.5l82.5-86.3c1.6-1.7,2.1-4.2,1.1-6.3-.9-2.1-3-3.5-5.3-3.5h-13.3c-3.9,0-7.6,1.5-10.3,4.3l-71.5,72.5c-14.7,15.4-14,23.9-14,47.8v276.9c0,20.5,25.8,37.4,49,40,23.2,2.6,55-5.6,65.9-18.2l7.3-8.5c-1.3-4.2-2.1-8.6-2.1-13.3V156.6h0Z"/>
  <path class="st0" d="M120.1,156.6c0-8.7,0-16.2,1.1-23.4l-6.3,7.2c-10.9,12.6-38.6,20.8-61.8,18.2-23.2-2.6-33.1-14.9-22.2-27.5L113.4,44.8c1.6-1.7,2.1-4.2,1.1-6.3-.9-2.1-3-3.5-5.3-3.5h-13.3c-3.9,0-7.6,1.5-10.3,4.3L14,111.9C-.7,127.2,0,135.7,0,159.7v276.9c0,20.5,25.8,37.4,49,40,23.2,2.6,55-5.6,65.9-18.2l7.3-8.5c-1.3-4.2-2.1-8.6-2.1-13.3,0,0,0-279.9,0-279.9Z"/>
  <path class="st0" d="M506.2,35h-14.4c-4.2,0-8.2,1.8-11,5l-87.5,100.4c-11,12.6-38.6,20.8-61.8,18.2-23.2-2.6-33.1-14.9-22.2-27.5l82.5-86.3c1.6-1.7,2.1-4.2,1.1-6.3-.9-2.1-3-3.5-5.3-3.5h-13.3c-3.9,0-7.6,1.5-10.3,4.3l-71.5,72.5c-14.7,15.4-14,23.9-14,47.8v276.9c0,20.5,25.8,37.4,49,40,23.2,2.6,55-5.6,65.9-18.2l108.1-125.6c6.8-7.9,10.5-18,10.5-28.4V40.8c0-3.2-2.6-5.8-5.8-5.8Z"/>
</svg>