<?xml version="1.0" encoding="UTF-8"?>
<svg id="_x32_" xmlns="http://www.w3.org/2000/svg" xmlns:xlink="http://www.w3.org/1999/xlink" version="1.1" viewBox="0 0 512 512">
  <!-- Generator: Adobe Illustrator 29.3.1, SVG Export Plug-In . SVG Version: 2.1.0 Build 151)  -->
  <defs>
    <style>
      .st0 {
        fill: #fff7eb;
      }
    </style>
  </defs>
  <path class="st0" d="M243.4,129.2s-46-26.5-110.8-26.5-90.9,20.2-90.9,20.2c-13.4,7.2-22.8,16.5-22.8,30.3v242.8c0,6.4,3.2,12.4,8.5,16.1,5.4,3.7,12.3,4.8,18.6,2.8,0,0,44.1-18.9,86.6-18.9,61.2,0,108.3,25.8,108.3,25.8,1.3.4,2.6.2,3.7-.6,1.1-.7,1.7-1.9,1.7-3.2V133c0-1.7-1.2-3.3-2.9-3.8Z"/>
  <path class="st0" d="M469.2,122.9s-48.4-20.2-90.9-20.2c-64.8,0-110.8,26.5-110.8,26.5-1.7.5-2.9,2.1-2.9,3.8v285.1c0,1.3.6,2.5,1.7,3.2,1.1.8,2.4,1,3.7.6,0,0,47.2-25.8,108.3-25.8s86.6,18.9,86.6,18.9c6.3,2,13.2.9,18.6-2.8,5.4-3.8,8.5-9.7,8.5-16.1v-242.8c0-13.8-9.4-23.1-22.8-30.3Z"/>
</svg>