<?xml version="1.0" encoding="UTF-8"?>
<svg id="_x32_" xmlns="http://www.w3.org/2000/svg" xmlns:xlink="http://www.w3.org/1999/xlink" version="1.1" viewBox="0 0 512 512">
  <!-- Generator: Adobe Illustrator 29.3.1, SVG Export Plug-In . SVG Version: 2.1.0 Build 151)  -->
  <defs>
    <style>
      .st0 {
        fill: #fff7eb;
      }
    </style>
  </defs>
  <path class="st0" d="M112.3,67.8c-5.7,0-10.8-2.3-14.5-6-3.7-3.8-6-8.8-6-14.5,0-5.7,2.3-10.8,6-14.5,3.8-3.7,8.8-6,14.5-6h321.2S433.5,0,433.5,0H112.3c-26.1,0-47.2,21.1-47.2,47.2v380.4c0,26.1,21.1,47.2,47.2,47.2h81.2v1c0,20,17.8,36.2,39.7,36.2h96.1c21.9,0,39.7-16.2,39.7-36.2v-1h77.8V67.8H112.3ZM385.6,338.4c0,77.5-38,103-38,132.1v5.3c0,9.2-8.2,16.6-18.2,16.6h-96.1c-10.1,0-18.2-7.4-18.2-16.6v-6.5c0-43.3-29.2-46.4-83.4-187.5-5.4-13.1-2.3-20.9,4.2-24.4,2.9-.9,6-1.4,9.3-1.4s8.6.8,12.7,2.1c5.7,2.6,10.9,6.7,13.9,12.3,11.8,25.3,16,39.2,18.3,39.2s1.6-2.5,2.2-7.5c0-2.7,0-126,0-126,0-6.7,4.1-12.4,10.1-15.4,3-.9,6.1-1.5,9.3-1.5s6.3.6,9.3,1.5c6,3,10.2,8.8,10.2,15.5v71.6c4-.6,8.1-.9,12.5-.9v-102.5c0-6.7,4.1-12.4,10.1-15.5,3-.9,6-1.5,9.3-1.5s5.9.4,8.7,1.2c6.3,2.9,10.8,8.9,10.8,15.8v106.9c4.2.7,8.3,1.5,12.5,2.4v-102.8c0-6.6,4-12.3,9.9-15.4,3-.9,6.2-1.6,9.5-1.6s6.4.6,9.3,1.5c6,3,10.2,8.8,10.2,15.5v110.2c4.4.8,8.6,1.7,12.5,2.5v-87.6c0-6.7,4.1-12.5,10.2-15.5,2.9-.9,6-1.5,9.3-1.5s6.3.6,9.3,1.5c6,3,10.2,8.8,10.2,15.5v162.7Z"/>
</svg>