<?xml version="1.0" encoding="UTF-8"?>
<svg id="_x32_" xmlns="http://www.w3.org/2000/svg" xmlns:xlink="http://www.w3.org/1999/xlink" version="1.1" viewBox="0 0 512 512">
  <!-- Generator: Adobe Illustrator 29.3.1, SVG Export Plug-In . SVG Version: 2.1.0 Build 151)  -->
  <defs>
    <style>
      .st0 {
        fill: #fff7eb;
      }
    </style>
  </defs>
  <path class="st0" d="M462.3,306.3v-84.4h-9.3c-39.5,0-74.7,6.8-103.7,15.7-5.7-11.5-12.3-23.4-17.9-33.2,25-21.3,40.8-53,40.8-88.3,0-64.1-52-116.1-116.1-116.1s-116.1,52-116.1,116.1,15.8,67,40.8,88.3c-5.6,9.8-12.2,21.7-17.9,33.2-29-8.8-64.2-15.6-103.7-15.7h-9.3v84.4c-28.2.6-38.9,23.8-38.9,52.4s10.8,51.8,38.9,52.4v67.2l9,.3h.3c2.8.1,28.5,1.2,63.3,5.9,34.8,4.6,78.7,12.9,117.7,27.1l1.5.6h29.1l1.5-.6c40.2-14.6,85.7-22.9,121-27.5,17.6-2.3,32.7-3.7,43.4-4.4,5.3-.4,9.5-.6,12.4-.8,1.4,0,2.5-.1,3.3-.2.4,0,.6,0,.8,0h.3s9-.3,9-.3v-67.2c28.2-.5,38.9-23.8,38.9-52.4s-10.8-51.8-38.9-52.4ZM230.7,488.6c-37.9-12.1-77.7-19.1-109.4-23.2-23.4-3-42.4-4.5-52.9-5.1v-52.3c20.3-7.2,34.7-26.6,34.7-49.3s-14.5-42.1-34.7-49.3v-68.6c48.6,1.4,90.1,13.5,119.8,25.6,15.8,6.4,28.3,12.9,36.8,17.7,2.2,1.2,4.1,2.4,5.8,3.3v201.3ZM268.8,492.8c-.5.2-1,.3-1.5.5h-22.6c-.5-.2-1-.4-1.5-.5v-199.3h25.6v199.3ZM443.6,309.3c-20.2,7.2-34.7,26.6-34.7,49.3s14.5,42.1,34.7,49.3v52.3c-10.5.6-29.5,2.1-52.9,5.1-31.7,4.1-71.5,11.1-109.4,23.2v-201.3c8.1-4.9,23-13.1,43.3-21.3,29.7-12,70.9-23.9,119.1-25.3v68.6h0Z"/>
</svg>