<?xml version="1.0" encoding="UTF-8"?>
<svg id="_x32_" xmlns="http://www.w3.org/2000/svg" xmlns:xlink="http://www.w3.org/1999/xlink" version="1.1" viewBox="0 0 512 512">
  <!-- Generator: Adobe Illustrator 29.3.1, SVG Export Plug-In . SVG Version: 2.1.0 Build 151)  -->
  <defs>
    <style>
      .st0 {
        fill: #8d7659;
      }
    </style>
  </defs>
  <path class="st0" d="M415.6,93.3l-18.9-62.6c4.7-3,7.8-8.2,7.8-14.1,0-9.2-7.5-16.7-16.7-16.7H129.9c-17.4,0-33.3,7.1-44.6,18.5-11.4,11.4-18.5,27.2-18.5,44.6v407.6c0,22.8,18.5,41.2,41.2,41.2h302.5c19.2,0,34.8-15.5,34.8-34.7V127.6c0-17.5-12.9-31.7-29.7-34.2ZM350.9,304.4h-59.8v96.5h-52.1v-96.5h-59.8v-52.1h59.8v-59.8h52.1v59.8h59.8v52.1h0ZM129.9,92.8c-8.3,0-15.6-3.3-21-8.7-5.4-5.5-8.7-12.8-8.7-21s3.3-15.6,8.7-21c5.4-5.4,12.8-8.7,21-8.7h242l18,59.4H129.9Z"/>
  <rect class="st0" x="229.7" y="363.1" width="70.6" height="46.8"/>
</svg>